<svg height="128pt" viewBox="0 0 128 128" width="128pt" xmlns="http://www.w3.org/2000/svg" xmlns:xlink="http://www.w3.org/1999/xlink">
  <linearGradient id="a" gradientTransform="matrix(.232143 0 0 .328947 -8.566925 263.82696)" gradientUnits="userSpaceOnUse" spreadMethod="pad" x1="12" x2="116" y1="66" y2="66">
    <stop offset="0" stop-color="#0063cc"/>
    <stop offset=".0384615" stop-color="#1a89ff" stop-opacity=".901961"/>
    <stop offset=".0768555" stop-color="#0063cc"/>
    <stop offset=".923077" stop-color="#0063cc"/>
    <stop offset=".961538" stop-color="#1d88fb" stop-opacity=".901961"/>
    <stop offset="1" stop-color="#0063cc"/>
  </linearGradient>
  <path d="m20 16h88c4.41797 0 8 3.582031 8 8v84c0 4.41797-3.58203 8-8 8h-88c-4.417969 0-8-3.58203-8-8v-84c0-4.417969 3.582031-8 8-8zm0 0" fill="url(#a)"/>
  <path d="m20 12h88c4.41797 0 8 3.582031 8 8v84c0 4.41797-3.58203 8-8 8h-88c-4.417969 0-8-3.58203-8-8v-84c0-4.417969 3.582031-8 8-8zm0 0" fill="#007bff"/>
  <g fill="#fff">
    <path d="m84.592343 50.637023h6.279279c-.430931-3.41792-1.462087-6.43912-3.093469-9.063594-1.63138-2.624475-3.662912-4.836968-6.094594-6.637481-2.431681-1.800512-5.14039-3.158525-8.126125-4.074039-2.985736-.915516-6.048423-1.373272-9.188063-1.373272-5.171171 0-9.711335.930772-13.620495 2.792319-3.909162 1.861546-7.156534 4.363954-9.742119 7.507221-2.585586 3.143265-4.524776 6.759549-5.817568 10.848846-1.292793 4.089297-1.939189 8.392216-1.939189 12.908756 0 4.516537.646396 8.819456 1.939189 12.908754 1.292792 4.089298 3.231982 7.690322 5.817568 10.803073 2.585585 3.112748 5.832957 5.599897 9.742119 7.461439 3.90916 1.861547 8.449324 2.792318 13.620495 2.792318 3.878378 0 7.402777-.610343 10.573198-1.831029 3.17042-1.220687 5.9253-2.96016 8.264639-5.218429s4.247748-5.004812 5.725225-8.23963c1.477478-3.234819 2.431682-6.86636 2.862612-10.894625h-6.279279c-.307808 2.929648-1.015765 5.660932-2.123873 8.193856-1.108109 2.532924-2.554805 4.745417-4.34009 6.637482-1.785286 1.892063-3.90916 3.387404-6.371622 4.48602-2.462462 1.098619-5.232732 1.647927-8.31081 1.647927-4.37087 0-8.126126-.823964-11.265765-2.472582-3.139639-1.647234-5.709838-3.829209-7.710588-6.545237-2.000751-2.716027-3.478229-5.798259-4.432433-9.246696-.954205-3.448439-1.431306-6.942653-1.431306-10.482642 0-3.601025.477101-7.110497 1.431306-10.528418.954204-3.417921 2.431682-6.484895 4.432433-9.200921 2.00075-2.716026 4.570949-4.898002 7.710588-6.545929 3.139639-1.647925 6.894895-2.471889 11.265765-2.471889 2.400901 0 4.694069.350947 6.879504 1.052841 2.185436.701895 4.186186 1.724219 6.002253 3.066975 1.816065 1.342755 3.355104 3.005939 4.617116 4.989553 1.262012 1.983616 2.170044 4.226625 2.724099 6.729033zm10.157657 45.592621"/>
    <path d="m59.379167 51-.439285.07492s-1.988843.336758-4.009582.878495c-1.010369.27087-2.028308.590529-2.830293.957827-.400988.183648-.749363.379781-1.023033.602313-.273671.222533-.496389.486051-.536571.834425l-.003.02056v.02056c-.0015.529901.02853 1.125576.03539 1.615964.346307-.432245.878478-.711023 1.474115-.711023h9.661322c1.038794 0 1.886862.845159 1.886862 1.880393v1.27808h10.477982.176893v-1.27808c0-1.035234-.848069-1.880393-1.886862-1.880393h-9.611206l6.891469-1.37357.370006-.07492-.147417-.735997-.37147.07492-10.115354 2.015548zm-7.332225 5.046214c-.633722 0-1.132117.496689-1.132117 1.128236v3.308319c0 .631547.498395 1.128236 1.132117 1.128236h9.661322c.633721 0 1.132117-.496689 1.132117-1.128236v-3.308319c0-.631547-.498396-1.128236-1.132117-1.128236zm1.132117.277652h7.397088c.495225 0 .905105.409941.905105.903471v3.158473c0 .493529-.40988.90347-.905105.90347h-7.397088c-.495226 0-.905105-.409941-.905105-.90347v-3.158473c0-.49353.409879-.903471.905105-.903471zm0 .752158c-.09016 0-.15036.06147-.15036.151313v3.158473c0 .08985.06023.151314.15036.151314h7.397088c.09016 0 .15036-.06147.15036-.151314v-3.158473c0-.08985-.06023-.151313-.15036-.151313zm10.416067 2.128664v1.278081c0 1.035232-.84807 1.880394-1.886862 1.880394h-9.661322c-.839571 0-1.553575-.552105-1.796942-1.310401v6.864907h24v-8.712981h-.176893zm-13.345126 9.488644v4.426274c0 1.035232.848068 1.880394 1.886862 1.880394h20.226276c1.038794 0 1.886862-.845162 1.886862-1.880394v-4.426274z" stroke-width=".75345"/>
  </g>
</svg>
