<?xml version="1.0" encoding="UTF-8" standalone="no"?>
<svg
   enable-background="new"
   height="128"
   viewBox="0 0 128 128"
   width="128"
   version="1.1"
   id="svg17"
   sodipodi:docname="hplip.svg"
   inkscape:version="1.1.1 (3bf5ae0d25, 2021-09-20)"
   xmlns:inkscape="http://www.inkscape.org/namespaces/inkscape"
   xmlns:sodipodi="http://sodipodi.sourceforge.net/DTD/sodipodi-0.dtd"
   xmlns="http://www.w3.org/2000/svg"
   xmlns:svg="http://www.w3.org/2000/svg"
   xmlns:rdf="http://www.w3.org/1999/02/22-rdf-syntax-ns#"
   xmlns:cc="http://creativecommons.org/ns#"
   xmlns:dc="http://purl.org/dc/elements/1.1/">
  <metadata
     id="metadata23">
    <rdf:RDF>
      <cc:Work
         rdf:about="">
        <dc:format>image/svg+xml</dc:format>
        <dc:type
           rdf:resource="http://purl.org/dc/dcmitype/StillImage" />
      </cc:Work>
    </rdf:RDF>
  </metadata>
  <defs
     id="defs21">
    <clipPath
       clipPathUnits="userSpaceOnUse"
       id="clipPath261">
      <circle
         r="31.147017"
         cy="64.419189"
         cx="65.692314"
         id="circle263"
         style="display:inline;fill:#3584e4;fill-opacity:1;stroke:none;stroke-width:4.15294;stroke-linejoin:round;stroke-miterlimit:4;stroke-dasharray:0.519117, 0.259558;stroke-dashoffset:0;stroke-opacity:1;enable-background:new" />
    </clipPath>
  </defs>
  <sodipodi:namedview
     inkscape:document-rotation="0"
     pagecolor="#ffffff"
     bordercolor="#666666"
     borderopacity="1"
     objecttolerance="10"
     gridtolerance="10"
     guidetolerance="10"
     inkscape:pageopacity="0"
     inkscape:pageshadow="2"
     inkscape:window-width="640"
     inkscape:window-height="480"
     id="namedview19"
     showgrid="false"
     inkscape:zoom="4.7674466"
     inkscape:cx="78.658458"
     inkscape:cy="64.919448"
     inkscape:current-layer="svg17"
     inkscape:pagecheckerboard="0" />
  <filter
     id="c"
     color-interpolation-filters="sRGB"
     height="1.029203"
     width="1"
     x="0"
     y="0">
    <feOffset
       dy="4"
       result="pf_100_offsetBlur"
       id="feOffset2" />
    <feFlood
       flood-opacity=".4"
       id="feFlood4" />
    <feComposite
       in2="pf_100_offsetBlur"
       operator="in"
       result="pf_100_dropShadow"
       id="feComposite6" />
    <feBlend
       in="SourceGraphic"
       in2="pf_100_dropShadow"
       mode="normal"
       id="feBlend8" />
  </filter>
  <circle
     r="60.000008"
     cy="64"
     cx="64"
     id="circle911"
     style="display:inline;fill:#3584e4;fill-opacity:1;stroke:none;stroke-width:8;stroke-linejoin:round;stroke-miterlimit:4;stroke-dasharray:1, 0.5;stroke-dashoffset:0;stroke-opacity:1;enable-background:new" />
  <path
     style="display:inline;opacity:0.2;fill:#000000;fill-opacity:1;stroke:none;stroke-width:8;stroke-linejoin:round;stroke-miterlimit:4;stroke-dasharray:1, 0.5;stroke-dashoffset:0;stroke-opacity:1;enable-background:new"
     d="M 123.93751,62.246093 A 60.000008,60.000008 0 0 1 64.00001,121 60.000008,60.000008 0 0 1 4.06251,62.753905 a 60.000008,60.000008 0 0 0 -0.0625,1.246094 60.000008,60.000008 0 0 0 60,60.000001 60.000008,60.000008 0 0 0 60,-60.000001 60.000008,60.000008 0 0 0 -0.0625,-1.753906 z"
     id="circle1110"
     inkscape:connector-curvature="0" />
  <g
     clip-path="url(#clipPath261)"
     transform="matrix(1.9263485,0,0,1.9263485,-62.546296,-60.093811)"
     id="g26">
    <path
       id="path15"
       transform="matrix(0.47461307,0,0,0.47910402,30.189171,29.00599)"
       filter="url(#c)"
       fill="#f6f5f4"
       d="M 51.426237,3.5849023 37.669233,41.395903 h -0.004 l -23.379,64.228997 h 15.564 L 49.732237,51.043903 h 11.7 l -19.883,54.581997 15.559,0.005 18.527,-50.920997 c 2.666,-7.321 -1.528,-13.313 -9.314,-13.313 h -13.083 l 14.46,-38.0612516 h -16.272 z m 40.769,37.8110007 -24.042,66.065997 h -0.011 l -13.487,32.84579 h 14.851 l 14.884,-34.68279 h 20.656003 c 3.625,0 7.605,-2.787 8.844,-6.190997 l 16.282,-44.725 c 2.664,-7.324 -1.529,-13.313 -9.32,-13.313 z m 12.108003,9.612 h 11.695 l -16.377003,44.933 h -11.695 z" />
  </g>
</svg>
