<?xml version="1.0" encoding="UTF-8" standalone="no"?>
<svg
   xmlns:dc="http://purl.org/dc/elements/1.1/"
   xmlns:cc="http://creativecommons.org/ns#"
   xmlns:rdf="http://www.w3.org/1999/02/22-rdf-syntax-ns#"
   xmlns:svg="http://www.w3.org/2000/svg"
   xmlns="http://www.w3.org/2000/svg"
   xmlns:xlink="http://www.w3.org/1999/xlink"
   xmlns:sodipodi="http://sodipodi.sourceforge.net/DTD/sodipodi-0.dtd"
   xmlns:inkscape="http://www.inkscape.org/namespaces/inkscape"
   height="128"
   width="128"
   version="1.1"
   id="svg53"
   sodipodi:docname="libreoffice-impress.svg"
   inkscape:version="1.0.2 (e86c870879, 2021-01-15)">
  <metadata
     id="metadata59">
    <rdf:RDF>
      <cc:Work
         rdf:about="">
        <dc:format>image/svg+xml</dc:format>
        <dc:type
           rdf:resource="http://purl.org/dc/dcmitype/StillImage" />
      </cc:Work>
    </rdf:RDF>
  </metadata>
  <defs
     id="defs57" />
  <sodipodi:namedview
     pagecolor="#ffffff"
     bordercolor="#666666"
     borderopacity="1"
     objecttolerance="10"
     gridtolerance="10"
     guidetolerance="10"
     inkscape:pageopacity="0"
     inkscape:pageshadow="2"
     inkscape:window-width="640"
     inkscape:window-height="480"
     id="namedview55"
     showgrid="false"
     inkscape:zoom="6.7421875"
     inkscape:cx="35.448436"
     inkscape:cy="64"
     inkscape:current-layer="svg53" />
  <linearGradient
     id="c-93"
     gradientUnits="userSpaceOnUse"
     x1="2210.3497"
     x2="1860.3497"
     y1="530.299217"
     y2="70.299217">
    <stop
       offset="0"
       stop-color="#18a303"
       id="stop2" />
    <stop
       offset="1"
       stop-color="#106802"
       id="stop4" />
  </linearGradient>
  <linearGradient
     id="linearGradient1081"
     gradientUnits="userSpaceOnUse"
     x1="-108"
     x2="-20"
     y1="-100"
     y2="-100">
    <stop
       offset="0"
       stop-color="#6d2a00"
       id="stop7" />
    <stop
       offset=".045"
       stop-color="#f6965b"
       id="stop9"
       style="stop-color:#f37425;stop-opacity:1" />
    <stop
       offset=".091"
       stop-color="#b24909"
       id="stop11" />
    <stop
       offset=".909"
       stop-color="#c05310"
       id="stop13" />
    <stop
       offset=".955"
       stop-color="#f6965b"
       id="stop15"
       style="stop-color:#f37425;stop-opacity:1" />
    <stop
       offset="1"
       stop-color="#6d2a00"
       id="stop17" />
  </linearGradient>
  <linearGradient
     id="d-2-3"
     gradientUnits="userSpaceOnUse"
     x1="2207.3587"
     x2="1832.2997"
     y1="536.791217"
     y2="77.525217">
    <stop
       offset="0"
       stop-color="#6e6e6e"
       id="stop20" />
    <stop
       offset="1"
       stop-color="#b0b0b0"
       id="stop22" />
  </linearGradient>
  <linearGradient
     id="a-1-5"
     gradientUnits="userSpaceOnUse"
     x1="2211.9377"
     x2="1857.7137"
     y1="538.841217"
     y2="78.515217">
    <stop
       offset="0"
       stop-color="#a33e03"
       id="stop25" />
    <stop
       offset="1"
       stop-color="#d36118"
       id="stop27" />
  </linearGradient>
  <rect
     fill="#deddda"
     height="59"
     rx="8"
     width="88"
     x="20"
     y="61"
     id="rect30" />
  <rect
     fill="url(#linearGradient1081)"
     fill-rule="evenodd"
     height="40"
     rx="8"
     transform="scale(-1)"
     width="88"
     x="-108"
     y="-120"
     id="rect32" />
  <path
     d="M 73.160156,8 H 28 c -4.432,0 -8,3.568 -8,8 v 90 c 0,4.432 3.568,8 8,8 H 99.999996 C 104.432,114 108,110.432 108,106 V 43.70508 Z"
     fill="#f6f5f4"
     id="path36"
     sodipodi:nodetypes="csssssscc" />
  <path
     d="m108.21484 32.630859v-16.630859c0-1.108-.2232-2.161391-.62695-3.119141s-.98794-1.819968-1.71094-2.542968c-.723-.7230004-1.58522-1.3071879-2.54297-1.7109379s-2.01114-.6269531-3.11914-.6269531h-16.873043c-2.778059 0-2.900702 2.889554-1.431641 4.365234l21.609374 21.708985c1.76321 1.77016 4.69531 1.34877 4.69531-1.44336z"
     fill="#c05310"
     id="path38" />
  <path
     d="M 28.800781,8 C 23.939924,8 20,11.95576 20,16.82812 v 89.34376 C 20,111.55464 22.516163,115 28.800781,115 H 99.199219 C 105.48384,115 108,111.76955 108,106.17188 V 43.61523 L 73.369141,8 h -0.41211 z m 0,1.95898 h 43.742188 l 33.498051,34.45118 v 61.76172 c 0,3.82469 -3.03597,6.86914 -6.841801,6.86914 H 28.800781 c -3.805828,0 -6.841797,-3.04445 -6.841797,-6.86914 V 16.82812 c 0,-3.82469 3.035969,-6.86914 6.841797,-6.86914 z"
     fill="#c05310"
     id="path40"
     sodipodi:nodetypes="sssssscccssccssssss" />
  <g
     transform="matrix(.203125 0 0 .203125 -348.82124 .23269)"
     id="g51">
    <path
       id="g"
       d="m2020.3497 452.18984v8.32032l-48.0019 31.68164h23.5175l35.4258-28.00196h13.0606v-12z"
       fill="#646464" />
    <path
       d="m2032.3497 356.18594v72.0039h104.0059v-72.0039zm6.002 6h92.0039v60.00195h-92.0039zm6 10v4h80.0039v-4zm0 12v4h80.0039v-4zm0 12v4h80.0039v-4zm0 10v4h80.0039v-4z"
       fill="url(#d-2-3)"
       id="path43" />
    <path
       d="m2118.295 371.15664a3.0004314 3.0004314 0 0 0 -2.0625.9082l-27.8789 27.88086-13.8809-13.88086a3.0004314 3.0004314 0 0 0 -4.2421 0l-22 22.00196a3.0004314 3.0004314 0 1 0 4.2421 4.24219l19.879-19.87891 13.8808 13.87891a3.0004314 3.0004314 0 0 0 4.2422 0l30.002-30a3.0004314 3.0004314 0 0 0 -2.1817-5.15235z"
       fill="url(#c-93)"
       id="path45" />
    <use
       fill="#646464"
       height="1085"
       transform="matrix(-1 0 0 1 4062.701 0)"
       width="5033"
       xlink:href="#g"
       id="use47" />
    <path
       d="m1906.3458 272.18203c-1.108 0-2 .89195-2 2v180.00781c0 1.10805.892 2 2 2h252.0098c1.108 0 2-.89195 2-2v-180.00781c0-1.10805-.892-2-2-2zm8 6h236.0098c.831 0 1.602.2512 2.2402.68164.2127.14348.4091.30754.5898.48828.099.0992.1792.21499.2676.32422.556.68682.9024 1.54939.9024 2.50586v164.00781c0 .83104-.2512 1.60201-.6817 2.24024-.287.42549-.6526.79114-1.0781 1.07812-.6382.43045-1.4092.68164-2.2402.68164h-236.0098c-.831 0-1.602-.25116-2.2402-.68164-.4255-.28698-.7912-.65263-1.0782-1.07812-.4304-.63823-.6816-1.40919-.6816-2.24024v-164.00781c0-.27767.027-.54715.08-.80859.053-.26025.1318-.51107.2324-.75v-.002c.1007-.23891.226-.46541.3691-.67774v-.002c.065-.096.1481-.17589.2207-.26563.088-.10923.1683-.22499.2676-.32422.1805-.18033.3775-.34507.5899-.48828.6382-.43044 1.4092-.68164 2.2402-.68164zm14 16.00196v16h208.0098v-16zm40.0019 26v14h128.0059v-14zm-16 36.08007v10.03516h60.002v-10.03516zm-18.998.0352a5 5 0 0 0 -5 5 5 5 0 0 0 5 5 5 5 0 0 0 5-5 5 5 0 0 0 -5-5zm18.998 19.96484v10.03516h60.002v-10.03516zm-18.998.0352a5 5 0 0 0 -5 5 5 5 0 0 0 5 5 5 5 0 0 0 5-5 5 5 0 0 0 -5-5zm18.998 19.96484v10.03516h60.002v-10.03516zm-18.998.0352a5 5 0 0 0 -5 5 5 5 0 0 0 5 5 5 5 0 0 0 5-5 5 5 0 0 0 -5-5zm18.998 19.96484v10.03516h60.002v-10.03516zm-18.998.0352a5 5 0 0 0 -5 5 5 5 0 0 0 5 5 5 5 0 0 0 5-5 5 5 0 0 0 -5-5z"
       fill="url(#a-1-5)"
       id="path49" />
  </g>
</svg>
