<?xml version="1.0" encoding="UTF-8" standalone="no"?>
<svg
   xmlns:dc="http://purl.org/dc/elements/1.1/"
   xmlns:cc="http://creativecommons.org/ns#"
   xmlns:rdf="http://www.w3.org/1999/02/22-rdf-syntax-ns#"
   xmlns:svg="http://www.w3.org/2000/svg"
   xmlns="http://www.w3.org/2000/svg"
   xmlns:xlink="http://www.w3.org/1999/xlink"
   xmlns:sodipodi="http://sodipodi.sourceforge.net/DTD/sodipodi-0.dtd"
   xmlns:inkscape="http://www.inkscape.org/namespaces/inkscape"
   height="128"
   width="128"
   version="1.1"
   id="svg437"
   sodipodi:docname="libreoffice-writer.svg"
   inkscape:version="1.0.2 (e86c870879, 2021-01-15)">
  <metadata
     id="metadata443">
    <rdf:RDF>
      <cc:Work
         rdf:about="">
        <dc:format>image/svg+xml</dc:format>
        <dc:type
           rdf:resource="http://purl.org/dc/dcmitype/StillImage" />
      </cc:Work>
    </rdf:RDF>
  </metadata>
  <defs
     id="defs441" />
  <sodipodi:namedview
     pagecolor="#ffffff"
     bordercolor="#666666"
     borderopacity="1"
     objecttolerance="10"
     gridtolerance="10"
     guidetolerance="10"
     inkscape:pageopacity="0"
     inkscape:pageshadow="2"
     inkscape:window-width="640"
     inkscape:window-height="480"
     id="namedview439"
     showgrid="false"
     inkscape:zoom="6.7421875"
     inkscape:cx="35.448436"
     inkscape:cy="64"
     inkscape:current-layer="svg437" />
  <linearGradient
     id="c-7"
     gradientTransform="matrix(1.9726968 0 0 1.9549122 884.54589 2931.3572)"
     gradientUnits="userSpaceOnUse"
     x1="346.696"
     x2="361.368"
     y1="-1576.519"
     y2="-1566.796">
    <stop
       offset="0"
       stop-color="#fff"
       id="stop288" />
    <stop
       offset="1"
       stop-color="#fff"
       stop-opacity="0"
       id="stop290" />
  </linearGradient>
  <linearGradient
     id="h-3">
    <stop
       offset="0"
       stop-color="#666"
       id="stop293" />
    <stop
       offset="1"
       stop-color="#666"
       stop-opacity=".5"
       id="stop295" />
  </linearGradient>
  <linearGradient
     id="l">
    <stop
       offset="0"
       stop-color="#808080"
       id="stop298" />
    <stop
       offset="1"
       stop-color="#666"
       id="stop300" />
  </linearGradient>
  <linearGradient
     id="o"
     gradientTransform="matrix(0 3.3507195 -5.47088 0 7668.2556 -1672.1482)"
     gradientUnits="userSpaceOnUse"
     x1="445.695"
     x2="441.388"
     y1="1103.578"
     y2="1099.82">
    <stop
       offset="0"
       stop-color="#e9b913"
       id="stop303" />
    <stop
       offset="1"
       stop-color="#ff0"
       id="stop305" />
  </linearGradient>
  <linearGradient
     id="linearGradient1081"
     gradientUnits="userSpaceOnUse"
     x1="-108"
     x2="-20"
     y1="-100"
     y2="-100">
    <stop
       offset="0"
       stop-color="#004064"
       id="stop308" />
    <stop
       offset=".045"
       stop-color="#68c9ff"
       id="stop310"
       style="stop-color:#4cbfff;stop-opacity:1" />
    <stop
       offset=".091"
       stop-color="#1185c6"
       id="stop312" />
    <stop
       offset=".909"
       stop-color="#1185c6"
       id="stop314" />
    <stop
       offset=".955"
       stop-color="#68c9ff"
       id="stop316"
       style="stop-color:#4cbfff;stop-opacity:1" />
    <stop
       offset="1"
       stop-color="#004064"
       id="stop318" />
  </linearGradient>
  <linearGradient
     id="p-3"
     gradientUnits="userSpaceOnUse"
     x1="2192.9923"
     x2="1840.9923"
     y1="534.037403"
     y2="70.037403">
    <stop
       offset="0"
       stop-color="#0369a3"
       id="stop321" />
    <stop
       offset="1"
       stop-color="#1c99e0"
       id="stop323" />
  </linearGradient>
  <linearGradient
     id="a-9-5"
     gradientTransform="matrix(19.367977 0 0 15.639298 -2800.1953 8902.5583)"
     gradientUnits="userSpaceOnUse"
     x2="0"
     y1="-581.638"
     y2="-577.573">
    <stop
       offset="0"
       stop-color="#44adeb"
       id="stop326" />
    <stop
       offset="1"
       stop-color="#aadcf7"
       id="stop328" />
  </linearGradient>
  <linearGradient
     id="b-4-6"
     gradientTransform="matrix(-17.490561 0 0 15.847496 7686.1677 -18788.108)"
     gradientUnits="userSpaceOnUse"
     x2="0"
     y1="1173"
     y2="1178">
    <stop
       offset="0"
       stop-color="#666"
       id="stop331" />
    <stop
       offset="1"
       stop-color="#333"
       id="stop333" />
  </linearGradient>
  <linearGradient
     id="d-8-7"
     gradientTransform="matrix(17.490561 0 0 15.847496 -4532.2428 -18783.221)"
     gradientUnits="userSpaceOnUse"
     x2="0"
     y1="1173.911"
     y2="1178">
    <stop
       offset="0"
       stop-color="#666"
       id="stop336" />
    <stop
       offset="1"
       stop-color="#1a1a1a"
       id="stop338" />
  </linearGradient>
  <linearGradient
     id="e-4-3"
     gradientTransform="matrix(1.9726968 0 0 1.9549122 884.54589 2931.3572)"
     gradientUnits="userSpaceOnUse"
     x2="0"
     y1="-1554.465"
     y2="-1562.367">
    <stop
       offset="0"
       stop-color="#18a303"
       id="stop341" />
    <stop
       offset="1"
       stop-color="#106802"
       id="stop343" />
  </linearGradient>
  <linearGradient
     id="f-5-6"
     gradientTransform="matrix(17.490561 0 0 15.847496 -4532.2428 -18763.476)"
     gradientUnits="userSpaceOnUse"
     x2="0"
     y1="1173"
     y2="1178">
    <stop
       offset="0"
       stop-color="#0369a3"
       id="stop346" />
    <stop
       offset="1"
       stop-color="#023f62"
       id="stop348" />
  </linearGradient>
  <linearGradient
     id="g-0-1"
     gradientTransform="matrix(1.9726968 0 0 1.9549122 -134.48418 -129.3276)"
     gradientUnits="userSpaceOnUse"
     x2="0"
     xlink:href="#h-3"
     y1="-8.721"
     y2="-1.764" />
  <radialGradient
     id="i-6-9"
     cx="-1535.304"
     cy="-842.908"
     gradientTransform="matrix(0 6.4819806 14.961722 0 14263.987 9757.3828)"
     gradientUnits="userSpaceOnUse"
     r="10">
    <stop
       offset="0"
       stop-color="#fff"
       id="stop352" />
    <stop
       offset="1"
       stop-color="#00a8ff"
       stop-opacity="0"
       id="stop354" />
  </radialGradient>
  <linearGradient
     id="j-1-2"
     gradientTransform="matrix(1.9726968 0 0 1.9549122 -134.48418 -129.3276)"
     gradientUnits="userSpaceOnUse"
     x2="0"
     xlink:href="#h-3"
     y1="-8.721"
     y2="2.989" />
  <linearGradient
     id="k-0-3"
     gradientTransform="matrix(1.9726968 0 0 1.9549122 -134.48418 -129.3276)"
     gradientUnits="userSpaceOnUse"
     x2="0"
     xlink:href="#l"
     y1="-6.308"
     y2="-.088" />
  <linearGradient
     id="m-9"
     gradientTransform="matrix(1.9726968 0 0 1.9549122 -134.48418 -129.3276)"
     gradientUnits="userSpaceOnUse"
     x2="0"
     xlink:href="#l"
     y1="-5.058"
     y2="1.412" />
  <linearGradient
     id="n-2"
     gradientTransform="matrix(1.9726968 0 0 1.9549122 884.54589 2931.3572)"
     gradientUnits="userSpaceOnUse"
     x2="0"
     y1="-1556.638"
     y2="-1550.512">
    <stop
       offset="0"
       stop-color="#0369a3"
       id="stop360" />
    <stop
       offset="1"
       stop-color="#047fc6"
       id="stop362" />
  </linearGradient>
  <rect
     fill="#deddda"
     height="59"
     rx="8"
     width="88"
     x="20"
     y="61"
     id="rect365" />
  <rect
     fill="url(#linearGradient1081)"
     fill-rule="evenodd"
     height="40"
     rx="8"
     transform="scale(-1)"
     width="88"
     x="-108"
     y="-120"
     id="rect367" />
  <path
     d="M 73.160156,8 H 28 c -4.432,0 -8,3.568 -8,8 v 90 c 0,4.432 3.568,8 8,8 H 99.999996 C 104.432,114 108,110.432 108,106 V 43.70508 Z"
     fill="#f6f5f4"
     id="path371"
     sodipodi:nodetypes="csssssscc" />
  <path
     d="m108.21484 32.630859v-16.630859c0-1.108-.2232-2.161391-.62695-3.119141s-.98794-1.819968-1.71094-2.542968c-.723-.7230004-1.58522-1.3071879-2.54297-1.7109379s-2.01114-.6269531-3.11914-.6269531h-16.873043c-2.778059 0-2.900702 2.889554-1.431641 4.365234l21.609374 21.708985c1.76321 1.77016 4.69531 1.34877 4.69531-1.44336z"
     fill="#1185c6"
     id="path373" />
  <path
     d="M 28.800781,8 C 23.939924,8 20,11.95576 20,16.82812 v 89.34376 C 20,111.55464 22.516163,115 28.800781,115 H 99.199219 C 105.48384,115 108,111.76955 108,106.17188 V 43.61523 L 73.369141,8 h -0.41211 z m 0,1.95898 h 43.742188 l 33.498051,34.45118 v 61.76172 c 0,3.82469 -3.03597,6.86914 -6.841801,6.86914 H 28.800781 c -3.805828,0 -6.841797,-3.04445 -6.841797,-6.86914 V 16.82812 c 0,-3.82469 3.035969,-6.86914 6.841797,-6.86914 z"
     fill="#1185c6"
     id="path375"
     sodipodi:nodetypes="sssssscccssccssssss" />
  <g
     transform="matrix(.203125 0 0 .203125 -345.29529 10.911888)"
     id="g435">
    <path
       d="m1904.9922 228.0374v10h62v-10zm72 0v110h166v-110zm-90 20v10h80v-10zm0 20v10h80v-10zm0 20v10h80v-10zm0 20v10h80v-10zm0 20v10h80v-10zm0 20v10h256v-10zm0 20v10h256v-10zm0 20v10h256v-10zm0 20v10h256v-10zm0 20v10h168v-10z"
       fill="url(#p-3)"
       id="path377" />
    <g
       transform="translate(482.99217 430.0374)"
       id="g433">
      <path
         d="m1502-193.8397h149.9249v93.83578h-149.9249z"
         fill="url(#a-9-5)"
         id="path379" />
      <path
         d="m1611.1769-166.20115c-29.7187 11.74511-58.7469 27.79885-78.4739 53.27135 40.3969 0 78.8172-1.93145 119.216-1.93145l.01-17.67827c-9.9976-8.59379-28.4107-29.39015-40.748-33.66359z"
         fill="#fff"
         opacity=".5"
         id="path381" />
      <path
         d="m1611.9463-164.38309c9.9937 4.9518 27.3613 22.19803 39.9727 34.66646v14.85734h-114.9372c19.9933-24.76288 49.9763-39.62021 74.9625-49.5238z"
         fill="url(#b-4-6)"
         id="path383" />
      <path
         d="m1575.2462-135.59896.8739-6.99272 13.1244-5.56368 7.3779-6.83242 12.9803-5.2157-3.3871 8.44913-5.062 8.78146-3.0103 9.54584-2.0832 5.49917-20.8159-7.67108z"
         fill="#333"
         id="path385" />
      <path
         d="m1540.3453-180.31562c-12.7239 18.99784-23.3962 36.1952-38.3433 53.20098l.138 13.75281c33.1019 0 87.7712.43008 120.8751.43008-27.7302-19.94988-57.948-38.27718-75.1479-68.48058-2.3673 2.08785-5.997-1.01655-7.52 1.09476z"
         fill="url(#c-7)"
         opacity=".5"
         id="path387" />
      <path
         d="m1579.4619-142.09709c-14.959-12.3003-22.4888-22.286-32.4825-37.14333-2.9195.87385-2.8091.54151-4.9948 0 0 0-13.371 19.68597-19.9894 29.71467-6.6203 10.0287-19.9932 24.76092-19.9932 24.76092v9.90358h114.9372s-27.46-19.65469-37.4754-27.23779z"
         fill="url(#d-8-7)"
         id="path389" />
      <path
         d="m1651.9249-124.76483h-6.4428l-28.539 4.95179s-28.2017-7.42867-32.4449-7.42867c-4.1683 0-17.5294 2.47492-20.0288 2.47492-1.7518 0-12.4931-4.95179-15.032-4.95179-4.19 0-9.0191 5.25871-21.5122 7.42866 0 0-3.5903-7.89393-5.9319-7.42866-14.9925 5.72789-19.9933 4.95179-19.9933 4.95179v24.76092h149.919v-24.76092z"
         fill="url(#e-4-3)"
         id="path391" />
      <path
         d="m1502-119.81109v19.80717h129.9356l4.9988-4.95179-4.9968-4.95375-9.9937-4.95374-24.9862-4.9518-24.9862-2.47883-22.4887 2.47688h-29.985-17.4899z"
         fill="url(#f-5-6)"
         id="path393" />
      <path
         d="m1511.9976-129.71663 7.1214-11.32676 8.4373-9.89967 6.4448-11.63173 7.9815-11.71579-5.417 14.79477-3.9651 12.18888-1.9195 7.68867-3.5824 8.19108c-1.4401-1.04196-3.2628-1.08106-4.9061-1.60889l-4.6911 1.82198-5.5077 1.49746z"
         fill="#333"
         id="path395" />
      <path
         d="m1530.3279-129.49768 5.3756-13.44979 2.6237-13.87988 3.7876-8.56838 2.3672-8.89485 3.2826 9.14899.9311 8.73846 3.973 7.78641 3.9395 8.94372.7358 6.31437-6.6145 1.84348-6.285-2.42995-6.9478 4.46697h-7.1688z"
         fill="url(#g-0-1)"
         id="path397" />
      <path
         d="m1594.7424-127.23193-8.7548-6.25181-5.5907-4.4181 5.4328 8.38266 8.9166 2.28725z"
         fill="#808080"
         id="path399" />
      <path
         d="m1651.9249-131.28251v-62.55719l-149.9249-.16031v62.7175z"
         fill="url(#i-6-9)"
         id="path401" />
      <path
         d="m1651.9249-164.67632a29.590452 29.323683 0 0 1 -29.5904-29.32369h29.5904z"
         fill="#e9b913"
         opacity=".5"
         id="path403" />
      <path
         d="m1602.0749-133.19637 3.0892-9.85667 3.7916-8.56838 2.3672-8.89094 3.2826 9.14899 4.2136 7.80792 3.038 7.78446-.434 8.32402 4.1703 4.15027-8.5891-.46136-17.3341-3.55207 2.4067-5.88429z"
         fill="url(#j-1-2)"
         id="path405" />
      <path
         d="m1581.9613-129.71663-7.2793-10.92796-12.9014-13.94439-10.6723-13.9092-4.1289-5.79045 4.4741 15.03328 4.9041 9.01214 4.3518 13.77041 1.2625 6.75617 4.4938 1.4916 6.865-1.57761c2.8841-.28347 5.7662.0489 8.6326.0841z"
         fill="url(#k-0-3)"
         id="path407" />
      <path
         d="m1649.8931-127.70502-5.8688-3.4993-8.2183-11.15863-12.0847-10.35126-9.4354-7.8001 1.8188 6.51572 8.3406 13.03926.9153 11.7588 5.0107 3.81208 11.2443-2.16409 8.2794-.15053z"
         fill="url(#m-9)"
         id="path409" />
      <path
         d="m1502.0532-114.72832-.051 14.7244h124.9368v-4.95179l-4.9969-4.95375-24.9862-4.95374-24.9881-2.47492-24.9862 2.47492-27.0417.73895-17.8825-.60602z"
         fill="url(#n-2)"
         id="path411" />
      <path
         d="m1572.0347-119.68402-25.0927 2.81899-26.7695 2.02919-16.3241.0587 16.0913.66076 27.5862-.0391 24.4417-2.50619 25.0296 2.36544 11.1339 2.1504 13.7102 3.16696 4.4978 4.27344.6194 4.70547h2.2804l.4044-5.45029-6.7269-6.37302-26.0396-4.85404-24.8421-3.0047z"
         fill="#0088b7"
         id="path413" />
      <path
         d="m1556.9751-104.95375 4.9968-4.95375h19.9914l14.9924 4.95179 4.9969 4.94984h-9.9976l-34.9799-4.95179z"
         fill="#1c99e0"
         opacity=".5"
         id="path415" />
      <path
         d="m1547.0031-174.29058 3.0814 11.54571c2.5329 4.64878 7.5041 6.61738 11.6073 10.57608 5.9221 5.72202 12.503 12.4782 15.0221 14.65597l-2.0319-3.11613-12.8876-13.98739-10.6644-13.86815-4.1308-5.80218z"
         fill="#fff"
         opacity=".4"
         id="path417" />
      <path
         d="m1542.0063-174.29058-6.4468 14.88275-6.4349 17.86203-7.0505 8.54883c1.014.22481 4.1545.96964 5.0166 1.59325l3.5706-8.18717 1.9135-7.69649 4.0046-12.2182 5.4249-14.785z"
         opacity=".25"
         id="path419" />
      <path
         d="m1549.4039-129.69317c-4.0795 0-8.743 4.94593-20.5259 7.20776l-.434.24437c.217.0723.9627.20526 3.5785-.18377 3.4857-.51805 15.8999-5.7318 18.8589-5.55977 2.967.17204 11.8204 5.18052 13.5643 5.00849 1.7439-.17594 18.5-2.58439 21.6405-1.89627 3.1366.694 31.932 7.08852 31.932 7.08852l27.4935-5.00849 6.4113.18376v-2.13867h-6.4705l-28.4857 4.94593s-28.2431-7.44822-32.4844-7.44822c-4.1703 0-17.5373 2.50229-20.0367 2.50229-1.7518 0-12.501-4.94593-15.0418-4.94593z"
         fill="#ff0"
         opacity=".35"
         id="path421" />
      <path
         d="m1651.9945-168.43914a25.647485 25.415207 0 0 1 -25.642-25.41522h25.6475z"
         fill="url(#o)"
         opacity=".74"
         id="path423" />
      <g
         fill="#fff"
         id="g431">
        <path
           d="m1620.3618-193.8397c0 17.28729 14.1186 31.27859 31.5631 31.27859v-1.93145c-16.3674 0-29.6141-13.12528-29.6141-29.34714z"
           opacity=".5"
           id="path425" />
        <path
           d="m1614.2583-160.54559 1.8504 6.53722 8.3247 13.07446.9213 11.72947 4.9968 3.84727.8621-.18377-4.4386-4.39855-.864-11.24074-4.7582-7.25273 12.7733 6.764 10.11 10.4451-8.1985-11.11759-12.0828-10.38645-9.4965-7.81965zm29.7759 29.32368.4931.55129-.1242-.30693z"
           opacity=".4"
           id="path427" />
        <path
           d="m1500-196v98h154v-98zm2 2.1603h149.925l.075 93.8397h-150z"
           opacity=".55"
           id="path429" />
      </g>
    </g>
  </g>
</svg>
