<?xml version="1.0" encoding="UTF-8" standalone="no"?>
<svg
   xmlns:dc="http://purl.org/dc/elements/1.1/"
   xmlns:cc="http://creativecommons.org/ns#"
   xmlns:rdf="http://www.w3.org/1999/02/22-rdf-syntax-ns#"
   xmlns:svg="http://www.w3.org/2000/svg"
   xmlns="http://www.w3.org/2000/svg"
   xmlns:sodipodi="http://sodipodi.sourceforge.net/DTD/sodipodi-0.dtd"
   xmlns:inkscape="http://www.inkscape.org/namespaces/inkscape"
   height="128"
   width="128"
   version="1.1"
   id="svg280"
   sodipodi:docname="libreoffice-startcenter.svg"
   inkscape:version="1.0.2 (e86c870879, 2021-01-15)">
  <metadata
     id="metadata286">
    <rdf:RDF>
      <cc:Work
         rdf:about="">
        <dc:format>image/svg+xml</dc:format>
        <dc:type
           rdf:resource="http://purl.org/dc/dcmitype/StillImage" />
      </cc:Work>
    </rdf:RDF>
  </metadata>
  <defs
     id="defs284" />
  <sodipodi:namedview
     pagecolor="#ffffff"
     bordercolor="#666666"
     borderopacity="1"
     objecttolerance="10"
     gridtolerance="10"
     guidetolerance="10"
     inkscape:pageopacity="0"
     inkscape:pageshadow="2"
     inkscape:window-width="640"
     inkscape:window-height="480"
     id="namedview282"
     showgrid="false"
     inkscape:zoom="6.7421875"
     inkscape:cx="35.448436"
     inkscape:cy="64"
     inkscape:current-layer="svg280" />
  <linearGradient
     id="linearGradient1081"
     gradientUnits="userSpaceOnUse"
     x1="-108"
     x2="-20"
     y1="-100"
     y2="-100">
    <stop
       offset="0"
       stop-color="#262626"
       id="stop253" />
    <stop
       offset=".045"
       stop-color="#7a7a7a"
       id="stop255"
       style="stop-color:#595959;stop-opacity:1" />
    <stop
       offset=".091"
       stop-color="#3a3a3a"
       id="stop257" />
    <stop
       offset=".909"
       stop-color="#3c3c3c"
       id="stop259" />
    <stop
       offset=".955"
       stop-color="#7a7a7a"
       id="stop261"
       style="stop-color:#595959;stop-opacity:1" />
    <stop
       offset="1"
       stop-color="#262626"
       id="stop263" />
  </linearGradient>
  <rect
     fill="#deddda"
     height="59"
     rx="8"
     width="88"
     x="20"
     y="61"
     id="rect266" />
  <rect
     fill="url(#linearGradient1081)"
     fill-rule="evenodd"
     height="40"
     rx="8"
     transform="scale(-1)"
     width="88"
     x="-108"
     y="-120"
     id="rect268" />
  <path
     d="M 73.160156,8 H 28 c -4.432,0 -8,3.568 -8,8 v 90 c 0,4.432 3.568,8 8,8 H 99.999996 C 104.432,114 108,110.432 108,106 V 43.70508 Z"
     fill="#f6f5f4"
     id="path272"
     sodipodi:nodetypes="csssssscc" />
  <g
     fill="#4a4a4a"
     id="g278">
    <path
       d="m108.21484 32.630859v-16.630859c0-1.108-.2232-2.161391-.62695-3.119141s-.98794-1.819968-1.71094-2.542968c-.723-.7230004-1.58522-1.3071879-2.54297-1.7109379s-2.01114-.6269531-3.11914-.6269531h-16.873043c-2.778059 0-2.900702 2.889554-1.431641 4.365234l21.609374 21.708985c1.76321 1.77016 4.69531 1.34877 4.69531-1.44336z"
       id="path274" />
    <path
       d="M 28.800781,8 C 23.939924,8 20,11.95576 20,16.82812 v 89.34376 C 20,111.55464 22.516163,115 28.800781,115 H 99.199219 C 105.48384,115 108,111.76955 108,106.17188 V 43.61523 L 73.369141,8 h -0.41211 z m 0,1.95898 h 43.742188 l 33.498051,34.45118 v 61.76172 c 0,3.82469 -3.03597,6.86914 -6.841801,6.86914 H 28.800781 c -3.805828,0 -6.841797,-3.04445 -6.841797,-6.86914 V 16.82812 c 0,-3.82469 3.035969,-6.86914 6.841797,-6.86914 z"
       id="path276"
       sodipodi:nodetypes="sssssscccssccssssss" />
  </g>
</svg>
