<?xml version="1.0" encoding="UTF-8" standalone="no"?>
<svg
   xmlns:dc="http://purl.org/dc/elements/1.1/"
   xmlns:cc="http://creativecommons.org/ns#"
   xmlns:rdf="http://www.w3.org/1999/02/22-rdf-syntax-ns#"
   xmlns:svg="http://www.w3.org/2000/svg"
   xmlns="http://www.w3.org/2000/svg"
   xmlns:sodipodi="http://sodipodi.sourceforge.net/DTD/sodipodi-0.dtd"
   xmlns:inkscape="http://www.inkscape.org/namespaces/inkscape"
   height="128"
   width="128"
   version="1.1"
   id="svg121"
   sodipodi:docname="libreoffice-calc.svg"
   inkscape:version="1.0.2 (e86c870879, 2021-01-15)">
  <metadata
     id="metadata127">
    <rdf:RDF>
      <cc:Work
         rdf:about="">
        <dc:format>image/svg+xml</dc:format>
        <dc:type
           rdf:resource="http://purl.org/dc/dcmitype/StillImage" />
      </cc:Work>
    </rdf:RDF>
  </metadata>
  <defs
     id="defs125" />
  <sodipodi:namedview
     pagecolor="#ffffff"
     bordercolor="#666666"
     borderopacity="1"
     objecttolerance="10"
     gridtolerance="10"
     guidetolerance="10"
     inkscape:pageopacity="0"
     inkscape:pageshadow="2"
     inkscape:window-width="640"
     inkscape:window-height="480"
     id="namedview123"
     showgrid="false"
     inkscape:zoom="6.7421875"
     inkscape:cx="35.448436"
     inkscape:cy="87.73117"
     inkscape:current-layer="svg121" />
  <linearGradient
     id="linearGradient1081"
     gradientUnits="userSpaceOnUse"
     x1="-108"
     x2="-20"
     y1="-100"
     y2="-100">
    <stop
       offset="0"
       stop-color="#28711d"
       id="stop2" />
    <stop
       offset=".045"
       stop-color="#aafb9e"
       id="stop4"
       style="stop-color:#69f854;stop-opacity:1" />
    <stop
       offset=".091"
       stop-color="#33b71f"
       id="stop6" />
    <stop
       offset=".909"
       stop-color="#33b71f"
       id="stop8" />
    <stop
       offset=".955"
       stop-color="#aafb9e"
       id="stop10"
       style="stop-color:#69f854;stop-opacity:1" />
    <stop
       offset="1"
       stop-color="#28711d"
       id="stop12" />
  </linearGradient>
  <linearGradient
     id="a-6-9"
     gradientUnits="userSpaceOnUse"
     x1="1710"
     x2="1358"
     y1="126"
     y2="-338">
    <stop
       offset="0"
       stop-color="#18a303"
       id="stop15" />
    <stop
       offset="1"
       stop-color="#43c330"
       id="stop17" />
  </linearGradient>
  <linearGradient
     id="c-3-0"
     gradientUnits="userSpaceOnUse"
     x1="1565.251"
     x2="1565.251"
     y1="51.992"
     y2="-52.008">
    <stop
       offset="0"
       stop-color="#727272"
       id="stop20" />
    <stop
       offset="1"
       stop-color="#9a9a9a"
       id="stop22" />
  </linearGradient>
  <linearGradient
     id="d-5-7"
     gradientTransform="matrix(3.7948726 0 0 5.2000008 -1620.5396 5578.9086)"
     gradientUnits="userSpaceOnUse"
     x1="829.361"
     x2="829.361"
     y1="-1064.799"
     y2="-1082.341">
    <stop
       offset="0"
       stop-color="#e4e4e4"
       id="stop25" />
    <stop
       offset="1"
       stop-color="#f9f9f9"
       id="stop27" />
  </linearGradient>
  <linearGradient
     id="e-62-5"
     gradientTransform="matrix(2.8571444 0 0 -6.2222009 33.2846 -6672.4172)"
     gradientUnits="userSpaceOnUse"
     x1="525.639"
     x2="525.639"
     y1="-1078.644"
     y2="-1068.787">
    <stop
       offset="0"
       stop-color="#63bbee"
       id="stop30" />
    <stop
       offset="1"
       stop-color="#aadcf7"
       id="stop32" />
  </linearGradient>
  <linearGradient
     id="f-2-9"
     gradientUnits="userSpaceOnUse"
     x1="1583.626"
     x2="1583.626"
     y1="-7.883"
     y2="-44.007">
    <stop
       offset="0"
       stop-color="#a33e03"
       id="stop35" />
    <stop
       offset="1"
       stop-color="#c15414"
       id="stop37" />
  </linearGradient>
  <linearGradient
     id="g-7-9"
     gradientTransform="matrix(2.8571444 0 0 -8.4444413 65.2846 -9068.2576)"
     gradientUnits="userSpaceOnUse"
     x1="525.639"
     x2="525.639"
     y1="-1078.644"
     y2="-1068.787">
    <stop
       offset="0"
       stop-color="#f09e6f"
       id="stop40" />
    <stop
       offset="1"
       stop-color="#f9cfb5"
       id="stop42" />
  </linearGradient>
  <linearGradient
     id="h-7"
     gradientTransform="matrix(2.8571444 0 0 -3.5555365 97.2846 -3797.3768)"
     gradientUnits="userSpaceOnUse"
     x1="525.639"
     x2="525.639"
     y1="-1078.644"
     y2="-1068.787">
    <stop
       offset="0"
       stop-color="#f5ce53"
       id="stop45" />
    <stop
       offset="1"
       stop-color="#fde9a9"
       id="stop47" />
  </linearGradient>
  <linearGradient
     id="i-3"
     gradientTransform="matrix(2.8571444 0 0 -5.3333208 129.2847 -5714.057)"
     gradientUnits="userSpaceOnUse"
     x1="525.639"
     x2="525.639"
     y1="-1078.644"
     y2="-1068.787">
    <stop
       offset="0"
       stop-color="#8ee780"
       id="stop50" />
    <stop
       offset="1"
       stop-color="#ccf4c6"
       id="stop52" />
  </linearGradient>
  <rect
     fill="#deddda"
     height="59"
     rx="8"
     width="88"
     x="20"
     y="61"
     id="rect55" />
  <rect
     fill="url(#linearGradient1081)"
     fill-rule="evenodd"
     height="40"
     rx="8"
     transform="scale(-1)"
     width="88"
     x="-108"
     y="-120"
     id="rect57" />
  <path
     d="M 73.160156,8 H 28 c -4.432,0 -8,3.568 -8,8 v 90 c 0,4.432 3.568,8 8,8 H 99.999996 C 104.432,114 108,110.432 108,106 V 43.70508 Z"
     fill="#f6f5f4"
     id="path61"
     sodipodi:nodetypes="csssssscc" />
  <path
     d="m108.21484 32.630859v-16.630859c0-1.108-.2232-2.161391-.62695-3.119141s-.98794-1.819968-1.71094-2.542968c-.723-.7230004-1.58522-1.3071879-2.54297-1.7109379s-2.01114-.6269531-3.11914-.6269531h-16.873043c-2.778059 0-2.900702 2.889554-1.431641 4.365234l21.609374 21.708985c1.76321 1.77016 4.69531 1.34877 4.69531-1.44336z"
     fill="#33b71f"
     id="path63" />
  <path
     d="M 28.800781,8 C 23.939924,8 20,11.95576 20,16.82812 v 89.34376 C 20,111.55464 22.516163,115 28.800781,115 H 99.199219 C 105.48384,115 108,111.76955 108,106.17188 V 43.61523 L 73.369141,8 h -0.41211 z m 0,1.95898 h 43.742188 l 33.498051,34.45118 v 61.76172 c 0,3.82469 -3.03597,6.86914 -6.841801,6.86914 H 28.800781 c -3.805828,0 -6.841797,-3.04445 -6.841797,-6.86914 V 16.82812 c 0,-3.82469 3.035969,-6.86914 6.841797,-6.86914 z"
     fill="#33b71f"
     id="path65"
     sodipodi:nodetypes="sssssscccssccssssss" />
  <g
     transform="matrix(.203125 0 0 .203125 -248.20322 92.54086)"
     id="g119">
    <path
       d="m1409-172.00786v8 32 8 32 8 32 8 32 8 32 8h240v-8-200h-232z"
       fill="url(#a-6-9)"
       id="path67" />
    <g
       fill="#92e285"
       id="g75">
      <path
         d="m1417.0009-164.00744h68v32h-68z"
         id="path69" />
      <path
         d="m1492.9938-164.00744h71.9998v32h-71.9998z"
         id="path71" />
      <path
         d="m1573.0009-164.00744h68v32h-68z"
         id="path73" />
    </g>
    <g
       fill="#d4f1cf"
       id="g95">
      <path
         d="m1417.0009-124.00744h68v32.00001h-68z"
         id="path77" />
      <path
         d="m1573.0009-124.00744h68v32.00001h-68z"
         id="path79" />
      <path
         d="m1492.9938-84.00743h71.9998v32h-71.9998z"
         id="path81" />
      <path
         d="m1573.0009-84.00743h68v32h-68z"
         id="path83" />
      <path
         d="m1417.0009-84.00743h68v32h-68z"
         id="path85" />
      <path
         d="m1492.9938-44.00742h71.9998v32h-71.9998z"
         id="path87" />
      <path
         d="m1417.0009-44.00742h68v32h-68z"
         id="path89" />
      <path
         d="m1492.9938-4.00742h71.9998v32.00001h-71.9998z"
         id="path91" />
      <path
         d="m1417.0009-4.00742h68v32.00001h-68z"
         id="path93" />
    </g>
    <path
       d="m1509.0009-60.00743h156v112.00002h-156z"
       fill="url(#c-3-0)"
       id="path97" />
    <path
       d="m1517.0009-52.00743h140v96.00002h-140z"
       fill="url(#d-5-7)"
       id="path99" />
    <path
       d="m1525.0009-24.00742h28v63.99961h-28z"
       fill="#18a303"
       id="path101" />
    <path
       d="m1529.0009 35.99259h20v-56.00001h-20z"
       fill="url(#e-62-5)"
       id="path103" />
    <path
       d="m1557.0009-44.00742h28v83.99961h-28z"
       fill="url(#f-2-9)"
       id="path105" />
    <path
       d="m1561.0009 35.99259h20v-76.00001h-20z"
       fill="url(#g-7-9)"
       id="path107" />
    <path
       d="m1589.0009-.00742h28v39.99961h-28z"
       fill="#c99c00"
       id="path109" />
    <path
       d="m1593.0009 35.99259h20v-32.00001h-20z"
       fill="url(#h-7)"
       id="path111" />
    <path
       d="m1621.0009-16.00742h28v56.00001h-28z"
       fill="#43c330"
       id="path113" />
    <path
       d="m1625.0009 35.99259h20v-48.00001h-20z"
       fill="url(#i-3)"
       id="path115" />
    <path
       d="m1492.9938-124.00744h71.9998v32.00001h-71.9998z"
       fill="#d4f1cf"
       id="path117" />
  </g>
</svg>
