<?xml version="1.0" encoding="UTF-8" standalone="no"?>
<svg
   xmlns:dc="http://purl.org/dc/elements/1.1/"
   xmlns:cc="http://creativecommons.org/ns#"
   xmlns:rdf="http://www.w3.org/1999/02/22-rdf-syntax-ns#"
   xmlns:svg="http://www.w3.org/2000/svg"
   xmlns="http://www.w3.org/2000/svg"
   xmlns:xlink="http://www.w3.org/1999/xlink"
   xmlns:sodipodi="http://sodipodi.sourceforge.net/DTD/sodipodi-0.dtd"
   xmlns:inkscape="http://www.inkscape.org/namespaces/inkscape"
   width="128"
   height="128"
   id="svg3085"
   version="1.1"
   inkscape:version="1.0 (4035a4fb49, 2020-05-01)"
   sodipodi:docname="net.poedit.Poedit.svg">
  <defs
     id="defs3087">
    <inkscape:perspective
       sodipodi:type="inkscape:persp3d"
       inkscape:vp_x="0 : 24 : 1"
       inkscape:vp_y="0 : 1000 : 0"
       inkscape:vp_z="48 : 24 : 1"
       inkscape:persp3d-origin="24 : 16 : 1"
       id="perspective3093" />
    <inkscape:perspective
       id="perspective3254"
       inkscape:persp3d-origin="0.5 : 0.33333333 : 1"
       inkscape:vp_z="1 : 0.5 : 1"
       inkscape:vp_y="0 : 1000 : 0"
       inkscape:vp_x="0 : 0.5 : 1"
       sodipodi:type="inkscape:persp3d" />
    <linearGradient
       inkscape:collect="always"
       id="linearGradient10239">
      <stop
         style="stop-color:#000000;stop-opacity:1;"
         offset="0"
         id="stop10241" />
      <stop
         style="stop-color:#000000;stop-opacity:0;"
         offset="1"
         id="stop10243" />
    </linearGradient>
    <radialGradient
       inkscape:collect="always"
       xlink:href="#linearGradient10239"
       id="radialGradient10421"
       gradientUnits="userSpaceOnUse"
       gradientTransform="matrix(1,0,0,0.1531531,0,172.42861)"
       cx="307.2821"
       cy="203.6125"
       fx="306.28568"
       fy="203.6125"
       r="4.9055533" />
    <linearGradient
       id="linearGradient1351-3">
      <stop
         id="stop1347"
         offset="0"
         style="stop-color:#d5d3cf;stop-opacity:1" />
      <stop
         id="stop1349-6"
         offset="1"
         style="stop-color:#ffffff;stop-opacity:1" />
    </linearGradient>
    <clipPath
       id="clipPath1609-7"
       clipPathUnits="userSpaceOnUse">
      <path
         inkscape:connector-curvature="0"
         style="fill:#e74747;stroke:none;stroke-width:0.25px;stroke-linecap:butt;stroke-linejoin:miter;stroke-opacity:1"
         d="m 252,116 28,-28 v -8 h -36 v 36 z"
         id="path1611-5" />
    </clipPath>
    <linearGradient
       inkscape:collect="always"
       xlink:href="#linearGradient1723"
       id="linearGradient8548"
       gradientUnits="userSpaceOnUse"
       gradientTransform="matrix(0.96153846,0,0,1,-121.55738,248)"
       x1="7.99998"
       y1="-244.84381"
       x2="111.99999"
       y2="-244" />
    <linearGradient
       id="linearGradient1723">
      <stop
         id="stop1719"
         offset="0"
         style="stop-color:#d5d3cf;stop-opacity:1" />
      <stop
         style="stop-color:#f6f5f4;stop-opacity:1"
         offset="0.04545454"
         id="stop1731" />
      <stop
         style="stop-color:#d5d3cf;stop-opacity:1"
         offset="0.09090909"
         id="stop1729" />
      <stop
         style="stop-color:#d5d3cf;stop-opacity:1"
         offset="0.90909088"
         id="stop1727" />
      <stop
         id="stop1733"
         offset="0.95454544"
         style="stop-color:#eeeeec;stop-opacity:1" />
      <stop
         id="stop1721"
         offset="1"
         style="stop-color:#d5d3cf;stop-opacity:1" />
    </linearGradient>
    <linearGradient
       id="linearGradient1103"
       gradientTransform="matrix(0.05889128,-0.34324331,0.34324333,-0.05889127,90.433574,67.147599)"
       gradientUnits="userSpaceOnUse"
       x1="128.817"
       x2="158.51801"
       y1="-97.697998"
       y2="-127.399">
      <stop
         offset="0"
         stop-color="#d0bb8e"
         id="stop15" />
      <stop
         offset="1"
         stop-color="#fff"
         id="stop17" />
    </linearGradient>
    <clipPath
       id="clipPath47"
       clipPathUnits="userSpaceOnUse">
      <rect
         id="rect49"
         y="-118.35603"
         x="-107.98447"
         width="82.813545"
         transform="scale(-1)"
         rx="8"
         height="108"
         ry="8"
         style="stroke-width:0.970084" />
    </clipPath>
  </defs>
  <sodipodi:namedview
     id="base"
     pagecolor="#ffffff"
     bordercolor="#666666"
     borderopacity="1.0"
     inkscape:pageopacity="0.0"
     inkscape:pageshadow="2"
     inkscape:zoom="5.6568543"
     inkscape:cx="63.361274"
     inkscape:cy="73.751977"
     inkscape:current-layer="layer1"
     showgrid="true"
     inkscape:grid-bbox="true"
     inkscape:document-units="px"
     inkscape:window-width="1600"
     inkscape:window-height="863"
     inkscape:window-x="0"
     inkscape:window-y="0"
     inkscape:window-maximized="1"
     inkscape:document-rotation="0"
     showguides="true"
     inkscape:guide-bbox="true" />
  <metadata
     id="metadata3090">
    <rdf:RDF>
      <cc:Work
         rdf:about="">
        <dc:format>image/svg+xml</dc:format>
        <dc:type
           rdf:resource="http://purl.org/dc/dcmitype/StillImage" />
        <dc:title />
      </cc:Work>
    </rdf:RDF>
  </metadata>
  <g
     id="layer1"
     inkscape:label="Layer 1"
     inkscape:groupmode="layer"
     transform="translate(0,80)">
    <rect
       transform="scale(-1)"
       style="display:inline;vector-effect:none;fill:#b26828;fill-opacity:1;stroke:none;stroke-width:26.3747;stroke-linecap:butt;stroke-linejoin:miter;stroke-miterlimit:4;stroke-dasharray:none;stroke-dashoffset:0;stroke-opacity:1;marker:none;marker-start:none;marker-mid:none;marker-end:none;paint-order:normal;enable-background:new"
       id="rect8496"
       width="102"
       height="104"
       x="-114.86509"
       y="-36.403511"
       rx="8"
       ry="8"
       clip-path="none" />
    <rect
       clip-path="none"
       ry="8"
       rx="7.9999995"
       y="-34.175449"
       x="-113.86509"
       height="36.491226"
       width="100"
       id="rect8510"
       style="display:inline;vector-effect:none;fill:url(#linearGradient8548);fill-opacity:1;stroke:none;stroke-width:13.4524;stroke-linecap:butt;stroke-linejoin:miter;stroke-miterlimit:4;stroke-dasharray:none;stroke-dashoffset:0;stroke-opacity:1;marker:none;marker-start:none;marker-mid:none;marker-end:none;paint-order:normal;enable-background:new"
       transform="scale(-1)" />
    <rect
       transform="scale(-1)"
       style="display:inline;vector-effect:none;fill:#f6f5f4;fill-opacity:1;stroke:none;stroke-width:13.4524;stroke-linecap:butt;stroke-linejoin:miter;stroke-miterlimit:4;stroke-dasharray:none;stroke-dashoffset:0;stroke-opacity:1;marker:none;marker-start:none;marker-mid:none;marker-end:none;paint-order:normal;enable-background:new"
       id="rect8514"
       width="100"
       height="98.526314"
       x="-113.86509"
       y="-30.52631"
       rx="7.9999995"
       ry="8"
       clip-path="none" />
    <path
       style="fill:#004e87;fill-opacity:1;stroke:#004e87;stroke-width:0.5;stroke-opacity:1"
       d="m 46.004239,-25.082908 c -1.03411,-1.119606 -2.705284,-1.671052 -5.008039,-1.656323 -2.427862,0.01876 -4.185103,0.598868 -5.275456,1.738567 -0.903854,0.941854 -1.404868,2.376307 -1.544997,4.257442 l -4.171308,0.02889 -0.0223,-3.554544 c -0.006,-0.468893 0.06288,-0.799824 0.206201,-1.006126 0.134336,-0.196853 0.364301,-0.314858 0.679587,-0.332597 l 0.647599,-0.04437 c 0.239378,-0.02038 0.360686,-0.140298 0.356478,-0.358168 0.0011,-0.156703 -0.01986,-0.257619 -0.05689,-0.297479 -0.0378,-0.03593 -0.137898,-0.05554 -0.301449,-0.05292 -0.04002,-0.0038 -0.149813,0.0053 -0.335085,0.01998 -0.721373,0.03604 -1.419659,0.05825 -2.087625,0.06093 -0.700907,0.0044 -1.426389,-0.0062 -2.16723,-0.0321 -0.175581,-0.014 -0.281294,-0.01535 -0.313851,-0.01561 -0.155508,0.0032 -0.261139,0.02223 -0.296497,0.05708 -0.04278,0.04155 -0.06219,0.140669 -0.06292,0.300508 0.0019,0.219448 0.128825,0.336021 0.386779,0.350872 l 0.606538,0.03522 c 0.331899,0.0171 0.567479,0.125396 0.707528,0.326051 0.143164,0.195151 0.214514,0.528069 0.218571,1.001677 l 0.06377,9.540086 c 0.0064,0.466931 -0.05857,0.79863 -0.196216,1.001968 -0.137067,0.200394 -0.363319,0.31505 -0.688206,0.334984 L 26.723,-13.33441 c -0.01528,0.0052 -0.03448,0.0096 -0.0588,0.0089 -0.215077,0.01596 -0.321918,0.124454 -0.321677,0.331357 -1.14e-4,0.167093 0.025,0.267796 0.0693,0.312137 0.049,0.04118 0.146153,0.06021 0.294408,0.05765 0.03981,-3.56e-4 0.142579,4.09e-4 0.301609,-0.0051 0.748192,-0.04811 1.479419,-0.07203 2.179942,-0.07444 0.667369,-0.0048 1.366567,0.0047 2.089187,0.03516 0.177908,0.0073 0.284025,0.0118 0.33109,0.01083 0.15649,-0.003 0.25252,-0.01984 0.296669,-0.06316 0.0412,-0.0439 0.06138,-0.146942 0.05757,-0.314803 9.52e-4,-0.202594 -0.09892,-0.311823 -0.302726,-0.322184 -0.0265,-0.0052 -0.04122,-0.0081 -0.05496,-0.01076 l -0.627912,-0.03533 c -0.332284,-0.01514 -0.570595,-0.119892 -0.709066,-0.3182 -0.146321,-0.199845 -0.218844,-0.531973 -0.220149,-1.004024 l -0.03032,-3.940275 4.140714,-0.02877 c 0.122446,2.070119 0.610589,3.636122 1.511786,4.622705 1.023527,1.121609 2.663531,1.676122 4.911968,1.662984 2.451394,-0.01925 4.236477,-0.601035 5.355633,-1.747322 1.116211,-1.146864 1.665294,-2.967273 1.648826,-5.458883 -0.02075,-2.532189 -0.54834,-4.349456 -1.581852,-5.466907 z m -1.507549,10.414407 c -0.735089,1.016681 -1.944466,1.525752 -3.617103,1.538542 -1.679122,0.0095 -2.89703,-0.483771 -3.647879,-1.488804 -0.752982,-0.999336 -1.135974,-2.654798 -1.153455,-4.959111 -0.01453,-2.251765 0.352671,-3.897882 1.098706,-4.923629 0.746228,-1.026728 1.951254,-1.544802 3.609191,-1.555376 1.682834,-0.01283 2.899377,0.482193 3.647474,1.485668 0.748672,1.00053 1.130682,2.6558 1.145604,4.957574 0.01778,2.281954 -0.342927,3.931378 -1.082538,4.945136 z"
       id="path207" />
    <path
       id="path209"
       d="m 37.576794,8.8376145 5.792883,14.2238945 1.313395,0.0024 -0.0038,0.912913 -5.256895,-0.01325 -9.16e-4,-0.9098 2.852124,0.0061 -1.705381,-4.201181 -7.240615,-0.01758 -1.687031,4.191233 2.673433,0.01128 -0.003,0.908995 -5.158258,-0.01136 0.0014,-0.911357 1.33575,0.0029 5.527486,-13.288459 -4.102373,-0.0078 -5.13e-4,-0.911759 z m -0.56462,1.1580625 -3.358974,7.936374 6.542837,0.0151 z m -3.095429,-6.8266578 2.33183,0.00439 3.772771,4.6678037 -1.0698,-0.00541 z"
       style="fill:#c8130e;fill-opacity:1;stroke:#c8130f;stroke-width:0.5;stroke-opacity:1" />
    <g
       id="g215"
       transform="rotate(8.7001744,561.75824,26.996312)"
       style="fill:#7c5792;fill-opacity:1">
      <path
         style="fill:#7c5792;fill-opacity:1"
         d="m 27.973,27.345 0.843,-1.6 2.372,0.986 c -0.104,0.268 -0.363,0.417 -0.944,0.535 l -3.014,0.611 0.411,2.032 c 2.903,0.06 4.018,0.919 4.18,1.709 0.122,0.585 -0.289,1.106 -0.868,1.225 -0.282,0.056 -0.605,0.008 -0.935,-0.172 -0.336,-0.887 -1.351,-1.901 -2.316,-2.468 l 1.573,7.729 c 0.004,0.131 -0.623,0.698 -1.719,0.922 l -0.41,0.084 -1.394,-6.853 c -0.7,1.725 -1.721,3.324 -3.079,4.804 l -0.308,-0.188 c 1.286,-2.395 1.896,-5.455 2.003,-8.242 l -3.296,0.669 -0.183,-0.344 4.028,-0.818 -0.671,-3.297 C 23,25.15 21.656,25.615 20.393,26.005 l -0.134,-0.224 c 2.552,-1.336 5.556,-3.415 6.989,-4.755 l 2.939,1.232 c -0.108,0.136 -0.308,0.237 -0.571,0.285 -0.212,0.048 -0.46,0.059 -0.751,0.04 -0.687,0.369 -1.546,0.773 -2.472,1.19 l 0.759,3.735 z m 9.715,-5.785 2.813,1.047 c -0.094,0.189 -0.409,0.409 -0.845,0.591 l 2.325,11.43 c 0.004,0.035 -0.496,0.652 -2.197,1 l -0.359,-1.759 -4.065,0.826 0.271,1.336 c 0.009,0.036 -0.104,0.82 -2.126,1.234 l -2.857,-14.067 2.569,0.396 3.744,-0.763 z M 35.287,34.327 39.352,33.5 37.25,23.153 33.185,23.979 Z"
         id="path213" />
    </g>
    <rect
       style="fill:#d9d9d9;fill-opacity:1;stroke:none;stroke-width:1.35976;stroke-linecap:round;stroke-linejoin:round"
       id="rect733"
       width="100"
       height="1"
       x="13.865"
       y="-35.866665" />
    <rect
       y="-2.6333313"
       x="13.865"
       height="1"
       width="100"
       id="rect1558"
       style="fill:#d9d9d9;fill-opacity:1;stroke:none;stroke-width:1.35976;stroke-linecap:round;stroke-linejoin:round" />
    <path
       id="path31"
       opacity="0.2"
       d="M 100,16 32,84 v 20 h 22 l 66.68521,-66.685211 -6.5524,-7.076508 -0.0742,-0.07227 -8.22461,-8.22461 z"
       clip-path="url(#clipPath47)"
       transform="matrix(0.77272727,0,0,0.77272727,30.37273,-56.363637)"
       sodipodi:nodetypes="ccccccccc" />
    <path
       style="fill:url(#linearGradient1103);stroke-width:0.772727"
       id="path37"
       fill="url(#linearGradient1103)"
       d="M 55.100003,23.999999 V 8.545454 l 15.454546,15.454545 z" />
    <path
       id="path39"
       fill="#424048"
       d="m 55.1,23.999999 3e-6,-6.181818 6.181818,6.181818 z"
       style="stroke-width:0.772727" />
    <path
       id="path45"
       fill="#f6d32d"
       d="M 69.009094,22.454545 56.645458,10.090909 109.14993,-42.413553 121.51356,-30.049916 Z"
       style="stroke-width:0.772727" />
    <path
       id="path47"
       fill="#f9f06b"
       d="m 59.649645,13.095087 -4.549642,-4.549633 52.545457,-52.545447 4.50865,4.590619 z"
       style="stroke-width:0.772727" />
    <path
       id="path49"
       fill="#e5a50a"
       d="m 66.00492,19.450359 4.549629,4.54964 52.545451,-52.545454 -4.59062,-4.508647 z"
       style="stroke-width:0.772727" />
  </g>
</svg>
