<?xml version="1.0" encoding="UTF-8" standalone="no"?>
<svg
   xmlns:dc="http://purl.org/dc/elements/1.1/"
   xmlns:cc="http://creativecommons.org/ns#"
   xmlns:rdf="http://www.w3.org/1999/02/22-rdf-syntax-ns#"
   xmlns:svg="http://www.w3.org/2000/svg"
   xmlns="http://www.w3.org/2000/svg"
   xmlns:xlink="http://www.w3.org/1999/xlink"
   xmlns:sodipodi="http://sodipodi.sourceforge.net/DTD/sodipodi-0.dtd"
   xmlns:inkscape="http://www.inkscape.org/namespaces/inkscape"
   width="128pt"
   height="128pt"
   viewBox="0 0 128 128"
   version="1.1"
   id="svg80"
   sodipodi:docname="plank.svg"
   inkscape:version="1.0.2 (e86c870879, 2021-01-15, custom)">
  <metadata
     id="metadata84">
    <rdf:RDF>
      <cc:Work
         rdf:about="">
        <dc:format>image/svg+xml</dc:format>
        <dc:type
           rdf:resource="http://purl.org/dc/dcmitype/StillImage" />
      </cc:Work>
    </rdf:RDF>
  </metadata>
  <sodipodi:namedview
     pagecolor="#ffffff"
     bordercolor="#666666"
     borderopacity="1"
     objecttolerance="10"
     gridtolerance="10"
     guidetolerance="10"
     inkscape:pageopacity="0"
     inkscape:pageshadow="2"
     inkscape:window-width="640"
     inkscape:window-height="480"
     id="namedview82"
     showgrid="false"
     inkscape:zoom="1"
     inkscape:cx="85.333333"
     inkscape:cy="85.333333"
     inkscape:current-layer="svg80"
     inkscape:document-rotation="0" />
  <defs
     id="defs45">
    <linearGradient
       id="linear0"
       gradientUnits="userSpaceOnUse"
       x1="88.595886"
       y1="-449.39401"
       x2="536.59589"
       y2="-449.39401"
       gradientTransform="matrix(0.232143,0,0,0.328947,-8.566925,263.82696)"
       spreadMethod="pad">
      <stop
         offset="0"
         style="stop-color:#174d82;stop-opacity:1"
         id="stop2" />
      <stop
         offset="0.0384615"
         style="stop-color:#2273c3;stop-opacity:0.90196073"
         id="stop4" />
      <stop
         offset="0.0768555"
         style="stop-color:#174d82;stop-opacity:1"
         id="stop6" />
      <stop
         offset="0.923077"
         style="stop-color:#174d82;stop-opacity:1"
         id="stop8" />
      <stop
         offset="0.961538"
         style="stop-color:#2273c4;stop-opacity:0.90196073"
         id="stop10" />
      <stop
         offset="1"
         style="stop-color:#174d82;stop-opacity:1"
         id="stop12" />
    </linearGradient>
    <linearGradient
       id="linearGradient4173-6-3-7"
       inkscape:collect="always">
      <stop
         id="stop4175-8-6-6"
         offset="0"
         style="stop-color:#000000;stop-opacity:1;" />
      <stop
         id="stop4177-4-10-0"
         offset="1"
         style="stop-color:#000000;stop-opacity:0;" />
    </linearGradient>
    <linearGradient
       inkscape:collect="always"
       xlink:href="#linearGradient4173-6-3-7"
       id="linearGradient3383"
       gradientUnits="userSpaceOnUse"
       gradientTransform="matrix(0.82683542,0,0,0.82683542,11.440512,-1.5293044)"
       x1="66.898949"
       y1="55.356216"
       x2="66.898949"
       y2="104.67931" />
    <linearGradient
       inkscape:collect="always"
       xlink:href="#linearGradient4173-6-3-7"
       id="linearGradient3368"
       gradientUnits="userSpaceOnUse"
       x1="59.338505"
       y1="40.51968"
       x2="68.601463"
       y2="40.51968"
       gradientTransform="matrix(0.86822317,0,0,0.86822317,-87.707745,29.064842)" />
    <linearGradient
       inkscape:collect="always"
       xlink:href="#linearGradient4173-6-3-7"
       id="linearGradient3387"
       gradientUnits="userSpaceOnUse"
       gradientTransform="matrix(0.82683542,0,0,0.82683542,11.440512,-1.5293044)"
       x1="66.898949"
       y1="51.34885"
       x2="66.898949"
       y2="56.1427" />
    <linearGradient
       inkscape:collect="always"
       xlink:href="#linearGradient4173-6-3-7"
       id="linearGradient3390"
       gradientUnits="userSpaceOnUse"
       gradientTransform="matrix(0.82683542,0,0,0.82683542,11.440512,-1.5293044)"
       x1="66.898949"
       y1="32.777451"
       x2="66.898949"
       y2="52.34782" />
    <linearGradient
       inkscape:collect="always"
       xlink:href="#linearGradient3707-319-631-407-324"
       id="linearGradient3393"
       gradientUnits="userSpaceOnUse"
       gradientTransform="matrix(1.3517123,0,0,1.3517123,310.45918,-19.703372)"
       x1="-179.48473"
       y1="77.348625"
       x2="-179.48473"
       y2="19.409487" />
    <linearGradient
       id="linearGradient3707-319-631-407-324">
      <stop
         id="stop3760"
         style="stop-color:#185f9a;stop-opacity:1;"
         offset="0" />
      <stop
         id="stop3762"
         style="stop-color:#3b78b5;stop-opacity:1"
         offset="1" />
    </linearGradient>
    <linearGradient
       id="linearGradient2867-449-88-871-390-598-476-591-434-148-57-177">
      <stop
         id="stop3750"
         style="stop-color:#90cdec;stop-opacity:1"
         offset="0" />
      <stop
         id="stop3752"
         style="stop-color:#55adec;stop-opacity:1"
         offset="0.26238" />
      <stop
         id="stop3754"
         style="stop-color:#3689e6;stop-opacity:1;"
         offset="0.704952" />
      <stop
         id="stop3756"
         style="stop-color:#2b63a0;stop-opacity:1;"
         offset="1" />
    </linearGradient>
    <linearGradient
       inkscape:collect="always"
       xlink:href="#linear0"
       id="linearGradient1116"
       x1="12"
       y1="66"
       x2="116"
       y2="66"
       gradientUnits="userSpaceOnUse" />
    <linearGradient
       inkscape:collect="always"
       xlink:href="#linearGradient2867-449-88-871-390-598-476-591-434-148-57-177"
       id="linearGradient871"
       x1="63.776848"
       y1="-10.65851"
       x2="63.776848"
       y2="127.95453"
       gradientUnits="userSpaceOnUse" />
  </defs>
  <path
     style="fill:url(#linearGradient1116);fill-opacity:1;fill-rule:nonzero;stroke:none"
     d="m 20,16 h 88 c 4.41797,0 8,3.582031 8,8 v 84 c 0,4.41797 -3.58203,8 -8,8 H 20 c -4.417969,0 -8,-3.58203 -8,-8 V 24 c 0,-4.417969 3.582031,-8 8,-8 z m 0,0"
     id="path47" />
  <path
     style="fill:url(#linearGradient871);fill-opacity:1;fill-rule:nonzero;stroke:none"
     d="m 20,12 h 88 c 4.41797,0 8,3.582031 8,8 v 84 c 0,4.41797 -3.58203,8 -8,8 H 20 c -4.417969,0 -8,-3.58203 -8,-8 V 20 c 0,-4.417969 3.582031,-8 8,-8 z m 0,0"
     id="path49" />
  <path
     inkscape:connector-curvature="0"
     d="m 64.357978,26.583099 c -3.658173,0 -6.615785,2.963433 -6.614683,6.614683 -8.26e-4,2.754946 1.731867,5.029692 4.134178,6.020394 v 2.247959 h -9.922026 c -0.439214,0 -0.826834,0.359871 -0.826834,0.826835 v 2.480506 c 0,0.466965 0.359143,0.826836 0.826834,0.826836 h 9.922026 v 30.592911 c 0,0.849497 -1.417571,0.86715 -2.222127,0.956026 -1.178714,-0.0073 -1.895349,-0.30809 -3.023108,-0.620125 -2.546873,-0.744744 -4.978255,-1.776894 -7.312334,-3.023117 -0.98271,-0.54483 -1.942027,-1.07596 -2.8164,-1.782865 -0.376871,-0.321522 -0.815215,-0.786394 -0.775164,-1.317768 0.05094,-0.402251 0.254611,-0.830761 0.697641,-0.904352 0.399305,-0.06324 0.757976,0.15094 1.111067,0.284226 0.304375,0.131257 0.513773,-0.237932 0.46509,-0.490934 -0.04895,-0.666513 -0.274829,-1.283449 -0.620127,-1.86038 -0.718399,-1.18168 -1.823965,-2.060644 -2.971437,-2.816408 -1.225127,-0.782384 -2.531175,-1.642596 -3.307341,-2.893924 -0.154409,-0.231264 -0.325884,-0.613893 -0.67181,-0.490933 -0.480887,0.155976 -0.746334,0.627268 -0.981861,1.033543 -0.662692,1.26112 -0.99315,2.621533 -1.291936,4.004985 -0.245614,1.100748 -0.292501,2.263272 -0.206709,3.384857 0.08886,1.122231 0.165632,2.259344 0.620127,3.307342 0.286228,0.688704 0.790146,1.243941 1.291935,1.782864 0.320196,-0.338542 0.654302,-0.701929 0.981862,-1.033544 0.424497,-0.426155 0.954884,-0.702841 1.576157,-0.620127 0.845588,0.108834 1.609287,0.621238 2.273798,1.11106 0.936011,0.727865 1.811045,1.489569 2.764729,2.196281 1.509085,1.153268 3.173581,1.997532 4.883499,2.816409 1.424604,0.661569 2.888367,1.322349 4.366727,1.86038 0.264742,0.115625 0.557298,0.110376 0.826836,0.206708 2.660701,1.106562 4.902163,2.394474 6.743879,4.702626 0.0022,0.03167 -0.0022,0.09901 0,0.129193 0.02117,-0.02736 0.05622,-0.05044 0.07751,-0.07747 0.02117,0.02703 0.05633,0.05018 0.0775,0.07747 0.01389,-0.06375 -0.01367,-0.142695 0,-0.206709 1.835938,-2.281379 4.099306,-3.525254 6.743879,-4.62511 0.269537,-0.09633 0.562083,-0.09108 0.826835,-0.206708 1.478359,-0.538029 2.942123,-1.198814 4.366727,-1.86038 1.709918,-0.818876 3.374415,-1.66314 4.883489,-2.816409 0.953683,-0.706713 1.828728,-1.468412 2.764738,-2.196281 0.664512,-0.489825 1.42821,-1.00222 2.273798,-1.11106 0.621274,-0.08271 1.15165,0.193965 1.576147,0.620127 0.32757,0.331613 0.661678,0.695002 0.981873,1.033544 0.50179,-0.538924 1.005696,-1.094165 1.291924,-1.782864 0.454496,-1.047994 0.531313,-2.185114 0.620127,-3.307342 0.08577,-1.121583 0.03892,-2.284108 -0.206709,-3.384857 -0.298785,-1.383453 -0.629233,-2.743866 -1.291924,-4.004985 -0.235539,-0.406273 -0.500985,-0.877562 -0.981873,-1.033543 -0.345916,-0.122965 -0.517401,0.259669 -0.671798,0.490933 -0.776168,1.251328 -2.082225,2.111542 -3.307342,2.893924 -1.147471,0.755764 -2.253039,1.634724 -2.971437,2.816408 -0.345297,0.576935 -0.571145,1.193865 -0.620127,1.86038 -0.04873,0.253003 0.160714,0.622198 0.46509,0.490934 0.35308,-0.133287 0.711761,-0.347466 1.111057,-0.284226 0.443041,0.0736 0.646739,0.502102 0.697651,0.904352 0.04002,0.531373 -0.398292,0.996242 -0.775163,1.317768 -0.874373,0.706909 -1.83369,1.238036 -2.816412,1.782865 -2.334068,1.246223 -4.765449,2.278372 -7.312322,3.023117 -1.127772,0.312036 -1.844395,0.612839 -3.02312,0.620125 -1.012731,0.18052 -2.222115,-0.369307 -2.222115,-0.956026 V 45.600312 h 9.922025 c 0.382273,0 0.826836,-0.331401 0.826836,-0.826836 V 42.29297 c 0,-0.481198 -0.387621,-0.826835 -0.826836,-0.826835 H 66.83847 v -2.247959 c 2.402309,-0.990703 4.135004,-3.265448 4.134177,-6.020394 0.0011,-3.65125 -2.956521,-6.614683 -6.614684,-6.614683 z m -0.129195,3.229825 c 1.775811,-10e-7 3.230357,1.405698 3.229828,3.178149 5.29e-4,1.772453 -1.454017,3.229825 -3.229828,3.229825 -1.775811,-10e-7 -3.256199,-1.45737 -3.25566,-3.229825 -5.39e-4,-1.772451 1.479849,-3.178149 3.25566,-3.178149 z"
     id="path1919-8"
     style="color:#000000;display:inline;overflow:visible;visibility:visible;opacity:0.15;fill:#ffffff;fill-opacity:1;fill-rule:nonzero;stroke:none;stroke-width:0.826836;marker:none;enable-background:accumulate" />
  <path
     style="color:#000000;display:inline;overflow:visible;visibility:visible;opacity:0.05;fill:#000000;fill-opacity:1;fill-rule:nonzero;stroke:none;stroke-width:0.909022;marker:none;enable-background:accumulate"
     d="m 40.688343,88.028998 h -11.55405 c -1.331897,0 -2.404167,1.07226 -2.404167,2.404174 v 11.554048 c 0,1.33191 1.07227,2.40418 2.404167,2.40418 h 11.55405 c 1.331897,0 2.404167,-1.07227 2.404167,-2.40418 V 90.433172 c 0,-1.331914 -1.07227,-2.404174 -2.404167,-2.404174 z"
     id="path3205-6"
     inkscape:connector-curvature="0" />
  <path
     style="color:#000000;display:inline;overflow:visible;visibility:visible;opacity:0.05;fill:#000000;fill-opacity:1;fill-rule:nonzero;stroke:none;stroke-width:0.909022;marker:none;enable-background:accumulate"
     d="M 40.046452,88.938019 H 29.776184 c -1.18391,0 -2.137037,0.953121 -2.137037,2.137043 v 10.270268 c 0,1.18392 0.953127,2.13704 2.137037,2.13704 h 10.270268 c 1.183909,0 2.137036,-0.95312 2.137036,-2.13704 V 91.075062 c 0,-1.183922 -0.953127,-2.137043 -2.137036,-2.137043 z"
     id="path3205"
     inkscape:connector-curvature="0" />
  <path
     style="color:#000000;display:inline;overflow:visible;visibility:visible;opacity:0.05;fill:#000000;fill-opacity:1;fill-rule:nonzero;stroke:none;stroke-width:0.909022;marker:none;enable-background:accumulate"
     d="M 59.77779,88.028997 H 48.223741 c -1.331898,0 -2.404168,1.07226 -2.404168,2.404173 v 11.55405 c 0,1.33191 1.07227,2.40418 2.404168,2.40418 H 59.77779 c 1.331898,0 2.404168,-1.07227 2.404168,-2.40418 V 90.43317 c 0,-1.331913 -1.07227,-2.404173 -2.404168,-2.404173 z"
     id="path3205-6-1"
     inkscape:connector-curvature="0" />
  <path
     style="color:#000000;display:inline;overflow:visible;visibility:visible;opacity:0.05;fill:#000000;fill-opacity:1;fill-rule:nonzero;stroke:none;stroke-width:0.909022;marker:none;enable-background:accumulate"
     d="M 59.135899,88.938018 H 48.865632 c -1.18391,0 -2.137037,0.953122 -2.137037,2.137044 v 10.270268 c 0,1.18392 0.953127,2.13704 2.137037,2.13704 h 10.270267 c 1.18391,0 2.137038,-0.95312 2.137038,-2.13704 V 91.075062 c 0,-1.183922 -0.953128,-2.137043 -2.137038,-2.137044 z"
     id="path3205-9"
     inkscape:connector-curvature="0" />
  <path
     style="color:#000000;display:inline;overflow:visible;visibility:visible;opacity:0.05;fill:#000000;fill-opacity:1;fill-rule:nonzero;stroke:none;stroke-width:0.909022;marker:none;enable-background:accumulate"
     d="M 79.776259,88.028997 H 68.22221 c -1.331898,0 -2.404167,1.07226 -2.404167,2.404173 v 11.55405 c 0,1.33191 1.072269,2.40418 2.404167,2.40418 h 11.554049 c 1.331898,0 2.404168,-1.07227 2.404168,-2.40418 V 90.43317 c 0,-1.331913 -1.07227,-2.404173 -2.404168,-2.404173 z"
     id="path3205-6-4"
     inkscape:connector-curvature="0" />
  <path
     style="color:#000000;display:inline;overflow:visible;visibility:visible;opacity:0.05;fill:#000000;fill-opacity:1;fill-rule:nonzero;stroke:none;stroke-width:0.909022;marker:none;enable-background:accumulate"
     d="M 79.134369,88.938019 H 68.864101 c -1.183909,0 -2.137037,0.953121 -2.137037,2.137043 v 10.270268 c 0,1.18392 0.953128,2.13704 2.137037,2.13704 h 10.270268 c 1.183898,0 2.137036,-0.95312 2.137036,-2.13704 V 91.075062 c 0,-1.183922 -0.953138,-2.137043 -2.137036,-2.137043 z"
     id="path3205-62"
     inkscape:connector-curvature="0" />
  <path
     style="color:#000000;display:inline;overflow:visible;visibility:visible;opacity:0.05;fill:#000000;fill-opacity:1;fill-rule:nonzero;stroke:none;stroke-width:0.909022;marker:none;enable-background:accumulate"
     d="M 98.865707,88.028997 H 87.311658 c -1.33191,0 -2.404167,1.07226 -2.404167,2.404173 v 11.55405 c 0,1.33191 1.072257,2.40418 2.404167,2.40418 h 11.554049 c 1.331903,0 2.404163,-1.07227 2.404163,-2.40418 V 90.43317 c 0,-1.331913 -1.07226,-2.404173 -2.404163,-2.404173 z"
     id="path3205-6-2"
     inkscape:connector-curvature="0" />
  <path
     style="color:#000000;display:inline;overflow:visible;visibility:visible;opacity:0.05;fill:#000000;fill-opacity:1;fill-rule:nonzero;stroke:none;stroke-width:0.909022;marker:none;enable-background:accumulate"
     d="M 98.223817,88.938019 H 87.953548 c -1.183909,0 -2.137036,0.953121 -2.137036,2.137043 v 10.270268 c 0,1.18392 0.953127,2.13704 2.137036,2.13704 h 10.270269 c 1.183909,0 2.137033,-0.95312 2.137033,-2.13704 V 91.075062 c 0,-1.183922 -0.953124,-2.137043 -2.137033,-2.137043 z"
     id="path3205-90"
     inkscape:connector-curvature="0" />
  <path
     id="path3215-9"
     style="color:#000000;display:inline;overflow:visible;visibility:visible;fill:#ffffff;fill-opacity:1;fill-rule:nonzero;stroke:#ffffff;stroke-width:0.895774;stroke-linecap:butt;stroke-linejoin:miter;stroke-miterlimit:4;stroke-dashoffset:0;stroke-opacity:1;marker:none;enable-background:accumulate"
     d="m 97.824333,90.294941 h -9.4713 c -0.653502,0 -1.179619,0.526107 -1.179619,1.179612 v 9.471287 c 0,0.6535 0.526117,1.17961 1.179619,1.17961 h 9.4713 c 0.653501,0 1.179618,-0.52611 1.179618,-1.17961 v -9.471287 c 0,-0.653505 -0.526117,-1.179612 -1.179618,-1.179612 z m -19.089461,0 h -9.471287 c -0.653501,0 -1.179618,0.526107 -1.179618,1.179612 v 9.471287 c 0,0.6535 0.526117,1.17961 1.179618,1.17961 h 9.471287 c 0.653514,0 1.179619,-0.52611 1.179619,-1.17961 v -9.471287 c 0,-0.653505 -0.526105,-1.179612 -1.179619,-1.179612 z m -19.998469,0 h -9.471287 c -0.653502,0 -1.179619,0.526107 -1.179619,1.179612 v 9.471287 c 0,0.6535 0.526117,1.17961 1.179619,1.17961 h 9.471287 c 0.653513,0 1.179618,-0.52611 1.179618,-1.17961 v -9.471287 c 0,-0.653505 -0.526105,-1.179612 -1.179618,-1.179612 z m -19.089447,0 h -9.471287 c -0.653502,0 -1.17962,0.526107 -1.17962,1.179612 v 9.471287 c 0,0.6535 0.526118,1.17961 1.17962,1.17961 h 9.471287 c 0.653513,0 1.179618,-0.52611 1.179618,-1.17961 v -9.471287 c 0,-0.653505 -0.526105,-1.179612 -1.179618,-1.179612 z"
     inkscape:connector-curvature="0" />
  <path
     inkscape:connector-curvature="0"
     d="m 64.357978,25.756264 c -3.658173,0 -6.615785,2.963433 -6.614683,6.614682 -8.26e-4,2.754948 1.731867,5.029692 4.134178,6.020397 v 2.247958 h -9.922026 c -0.439214,0 -0.826834,0.359871 -0.826834,0.826835 v 2.480506 c 0,0.466965 0.359143,0.826835 0.826834,0.826835 h 9.922026 v 30.59291 c 0,0.849497 -1.417571,0.867151 -2.222127,0.956029 -1.178714,-0.0073 -1.895349,-0.308091 -3.023108,-0.620126 -2.546873,-0.744745 -4.978255,-1.776894 -7.312334,-3.023119 -0.98271,-0.544829 -1.942027,-1.075958 -2.8164,-1.782863 -0.376871,-0.321523 -0.815215,-0.786395 -0.775164,-1.317769 0.05094,-0.402251 0.254611,-0.830761 0.697641,-0.90435 0.399305,-0.06323 0.757976,0.150937 1.111067,0.284223 0.304375,0.131258 0.513773,-0.23793 0.46509,-0.490933 -0.04895,-0.666514 -0.274829,-1.283447 -0.620127,-1.860379 -0.718399,-1.181681 -1.823965,-2.060644 -2.971437,-2.816409 -1.225127,-0.782382 -2.531175,-1.642596 -3.307341,-2.893923 -0.154409,-0.231266 -0.325884,-0.613893 -0.67181,-0.490934 -0.480887,0.155975 -0.746334,0.627269 -0.981861,1.033545 -0.662692,1.261119 -0.99315,2.621531 -1.291936,4.004983 -0.245614,1.100749 -0.292501,2.263272 -0.206709,3.384858 0.08886,1.12223 0.165632,2.259344 0.620127,3.307341 0.286228,0.688703 0.790146,1.243941 1.291935,1.782864 0.320196,-0.338542 0.654302,-0.70193 0.981862,-1.033545 0.424497,-0.426154 0.954884,-0.702838 1.576157,-0.620125 0.845588,0.108833 1.609287,0.621237 2.273798,1.111059 0.936011,0.727866 1.811045,1.48957 2.764729,2.196282 1.509085,1.153267 3.173581,1.997532 4.883499,2.816408 1.424604,0.661568 2.888367,1.32235 4.366727,1.86038 0.264742,0.115625 0.557298,0.110377 0.826836,0.206709 2.660701,1.106561 4.902163,2.394473 6.743879,4.702626 0.0022,0.03167 -0.0022,0.099 0,0.129193 0.02117,-0.02737 0.05622,-0.05044 0.07751,-0.07748 0.02117,0.02704 0.05633,0.0502 0.0775,0.07748 0.01389,-0.06375 -0.01367,-0.142696 0,-0.20671 1.835938,-2.281378 4.099306,-3.525252 6.743879,-4.625109 0.269537,-0.09633 0.562083,-0.09108 0.826835,-0.206709 1.478359,-0.538028 2.942123,-1.198813 4.366727,-1.86038 1.709918,-0.818874 3.374415,-1.663139 4.883489,-2.816408 0.953683,-0.706713 1.828728,-1.468413 2.764738,-2.196282 0.664512,-0.489825 1.42821,-1.002219 2.273798,-1.111059 0.621274,-0.08271 1.15165,0.193965 1.576147,0.620125 0.32757,0.331615 0.661678,0.695004 0.981873,1.033545 0.50179,-0.538924 1.005696,-1.094164 1.291924,-1.782864 0.454496,-1.047993 0.531313,-2.185113 0.620127,-3.307341 0.08577,-1.121583 0.03892,-2.284109 -0.206709,-3.384858 -0.298785,-1.383453 -0.629233,-2.743866 -1.291924,-4.004983 -0.235539,-0.406276 -0.500985,-0.877562 -0.981873,-1.033545 -0.345916,-0.122966 -0.517401,0.259668 -0.671798,0.490934 -0.776168,1.251327 -2.082225,2.111542 -3.307342,2.893923 -1.147471,0.755764 -2.253039,1.634726 -2.971437,2.816409 -0.345297,0.576933 -0.571145,1.193864 -0.620127,1.860379 -0.04873,0.253004 0.160714,0.6222 0.46509,0.490933 0.35308,-0.133286 0.711761,-0.347465 1.111057,-0.284223 0.443041,0.0736 0.646739,0.502102 0.697651,0.90435 0.04002,0.531373 -0.398292,0.996243 -0.775163,1.317769 -0.874373,0.706908 -1.83369,1.238035 -2.816412,1.782863 -2.334068,1.246224 -4.765449,2.278373 -7.312322,3.023119 -1.127772,0.312035 -1.844395,0.612838 -3.02312,0.620126 -1.012731,0.180519 -2.222115,-0.369309 -2.222115,-0.956029 v -30.59291 h 9.922025 c 0.382273,0 0.826836,-0.331401 0.826836,-0.826835 v -2.480506 c 0,-0.4812 -0.387621,-0.826835 -0.826836,-0.826835 H 66.83847 v -2.247958 c 2.402309,-0.990705 4.135004,-3.265449 4.134177,-6.020397 0.0011,-3.651249 -2.956521,-6.614682 -6.614684,-6.614682 z m -0.129195,3.229825 c 1.775811,0 3.230357,1.405698 3.229828,3.178148 5.29e-4,1.772455 -1.454017,3.229828 -3.229828,3.229828 -1.775811,-10e-7 -3.256199,-1.457371 -3.25566,-3.229828 -5.39e-4,-1.77245 1.479849,-3.178148 3.25566,-3.178148 z"
     id="path1919"
     style="color:#000000;display:inline;overflow:visible;visibility:visible;fill:url(#linearGradient3393);fill-opacity:1;fill-rule:nonzero;stroke:none;stroke-width:0.826836;marker:none;enable-background:accumulate" />
  <path
     style="color:#000000;display:inline;overflow:visible;visibility:visible;opacity:0.1;fill:none;stroke:url(#linearGradient3390);stroke-width:0.826836;stroke-opacity:1;marker:none;enable-background:accumulate"
     d="m 66.608724,40.987469 c -0.478198,-0.652855 -0.0279,-1.648163 -0.183657,-2.413767 0.0077,-1.061465 1.744282,-0.866417 2.16072,-1.749519 3.303295,-2.766332 2.216646,-8.676932 -1.807496,-10.168317 -0.763246,-0.322772 -1.592232,-0.486865 -2.420313,-0.486184 -4.398422,-0.211184 -7.66849,5.029989 -5.572263,8.881696 0.596676,1.613721 2.271956,2.308272 3.487095,3.234811 -0.08996,0.858871 0.253662,1.889989 -0.127411,2.673139"
     id="path4171"
     inkscape:connector-curvature="0"
     sodipodi:nodetypes="cccccccc" />
  <path
     style="color:#000000;display:inline;overflow:visible;visibility:visible;opacity:0.1;fill:none;stroke:url(#linearGradient3387);stroke-width:0.826836;stroke-opacity:1;marker:none;enable-background:accumulate"
     d="m 62.145399,40.959328 c -1.415696,0.244026 -2.945076,0.0122 -4.399116,0.09338 -2.019231,0.07624 -4.097279,-0.153045 -6.07949,0.115449 -0.08478,0.976012 -0.481911,2.546851 0.288654,3.191892 m 24.805063,-2e-6 c 0.849381,-0.572717 0.21921,-1.970913 0.413417,-2.893923 -0.64568,-0.830444 -2.109224,-0.231748 -3.114578,-0.413418 -2.478345,-0.04816 -4.993646,0.09332 -7.450625,-0.06524"
     id="path4171-8"
     inkscape:connector-curvature="0"
     sodipodi:nodetypes="cccccccc" />
  <circle
     style="color:#000000;display:inline;overflow:visible;visibility:visible;opacity:0.1;fill:none;stroke:url(#linearGradient3368);stroke-width:0.826836;stroke-linecap:round;stroke-linejoin:round;stroke-miterlimit:4;stroke-dasharray:none;stroke-dashoffset:0;stroke-opacity:1;marker:none;enable-background:accumulate"
     id="path4235"
     transform="rotate(-90)"
     cx="-32.167519"
     cy="64.244965"
     r="3.6077411" />
  <path
     style="color:#000000;display:inline;overflow:visible;visibility:visible;opacity:0.1;fill:none;stroke:url(#linearGradient3383);stroke-width:0.826836;stroke-opacity:1;marker:none;enable-background:accumulate"
     d="m 62.072308,44.404998 c 0,0 0.218583,21.887059 0.218583,30.961387 -1.061393,2.322199 -4.351062,1.152283 -6.243787,0.578877 -3.571831,-1.198082 -7.184682,-2.634647 -10.126552,-5.035033 -1.64118,-1.183793 0.316094,-3.490402 1.668168,-2.416914 -0.491383,-3.934117 -5.387097,-4.551348 -7.053943,-7.699905 -1.847944,2.098605 -2.278791,5.268009 -2.170442,8.009969 -0.07057,1.955247 0.940707,6.119368 3.044914,3.203991 2.593376,-0.676387 4.331715,2.023238 6.282825,3.229821 3.257324,2.417216 7.182003,3.869213 10.947334,5.269339 2.324004,0.512974 4.45801,3.548533 6.045756,3.707798 2.436914,-2.80007 6.021026,-3.965453 9.363271,-5.220793 3.567563,-1.431235 6.892565,-3.373132 9.740176,-5.952623 1.574603,-2.001747 4.225107,-0.670653 5.343242,-0.03834 1.545267,-2.106799 1.36591,-5.014141 1.038891,-7.480695 -0.331881,-1.828822 -1.583236,-6.847883 -3.347548,-3.061921 -2.060761,1.809341 -5.378751,2.966976 -5.7218,6.085037 3.171398,-1.306994 2.482634,3.297707 -0.03726,3.650192 -3.705777,2.116733 -7.738,3.994878 -12.00349,4.540646 -1.869827,0.427804 -3.040704,-1.264658 -2.635543,-2.958366 0.01886,-9.719505 0.02822,-29.162057 0.02822,-29.162057"
     id="path4171-8-2"
     inkscape:connector-curvature="0"
     sodipodi:nodetypes="ccccccccccccccccccccc" />
</svg>
