<?xml version="1.0" encoding="UTF-8" standalone="no"?>
<svg
   xmlns:dc="http://purl.org/dc/elements/1.1/"
   xmlns:cc="http://creativecommons.org/ns#"
   xmlns:rdf="http://www.w3.org/1999/02/22-rdf-syntax-ns#"
   xmlns:svg="http://www.w3.org/2000/svg"
   xmlns="http://www.w3.org/2000/svg"
   xmlns:sodipodi="http://sodipodi.sourceforge.net/DTD/sodipodi-0.dtd"
   xmlns:inkscape="http://www.inkscape.org/namespaces/inkscape"
   inkscape:version="1.0 (4035a4fb49, 2020-05-01)"
   sodipodi:docname="typecatcher.svg"
   id="svg114"
   version="1.1"
   width="128"
   viewBox="0 0 128 128"
   height="128"
   enable-background="new">
  <metadata
     id="metadata120">
    <rdf:RDF>
      <cc:Work
         rdf:about="">
        <dc:format>image/svg+xml</dc:format>
        <dc:type
           rdf:resource="http://purl.org/dc/dcmitype/StillImage" />
      </cc:Work>
    </rdf:RDF>
  </metadata>
  <defs
     id="defs118" />
  <sodipodi:namedview
     inkscape:current-layer="svg114"
     inkscape:cy="64"
     inkscape:cx="64"
     inkscape:zoom="6.7421875"
     showgrid="false"
     id="namedview116"
     inkscape:window-height="480"
     inkscape:window-width="640"
     inkscape:pageshadow="2"
     inkscape:pageopacity="0"
     guidetolerance="10"
     gridtolerance="10"
     objecttolerance="10"
     borderopacity="1"
     bordercolor="#666666"
     pagecolor="#ffffff" />
  <linearGradient
     y2="-180"
     y1="268"
     x2="256"
     x1="256"
     gradientUnits="userSpaceOnUse"
     id="linearGradient1572">
    <stop
       id="stop2"
       stop-color="#eeeeec"
       offset="0" />
    <stop
       id="stop4"
       stop-color="#fff"
       offset="1" />
  </linearGradient>
  <linearGradient
     gradientTransform="translate(0,-172)"
     y2="263.286"
     y1="264.437"
     x2="102.252"
     x1="103.436"
     gradientUnits="userSpaceOnUse"
     id="linearGradient917">
    <stop
       id="stop7"
       stop-color="#d5d3cf"
       offset="0" />
    <stop
       id="stop9"
       stop-color="#fff"
       offset="1" />
  </linearGradient>
  <g
     enable-background="new"
     fill="url(#linearGradient1572)"
     transform="matrix(0.3,0,0,-0.21279762,-12.799997,75.3631)"
     id="g18"
     style="fill:url(#linearGradient1572)">
    <rect
       fill="#1a5fb4"
       height="451.133"
       rx="26.667"
       ry="44.431999"
       transform="scale(-1,1)"
       width="346.66699"
       x="-429.32999"
       y="-190.97"
       id="rect12" />
    <rect
       fill="#d5d3cf"
       height="451.133"
       rx="26.667"
       ry="44.431999"
       transform="scale(-1,1)"
       width="346.66699"
       x="-429.32999"
       y="-181.57001"
       id="rect14" />
    <rect
       fill="#f6f5f4"
       height="451.133"
       rx="26.667"
       ry="37.594002"
       transform="scale(-1,1)"
       width="346.66699"
       x="-429.32999"
       y="-153.37"
       id="rect16" />
  </g>
  <g
     id="g74"
     transform="matrix(1.4444444,0,0,0.99844056,-28.444444,-172.70215)"
     stroke-width="2"
     stroke="#d5d3cf"
     opacity="0.3"
     fill="none"
     enable-background="new">
    <path
       id="path56"
       d="m 28,192 h 72" />
    <path
       id="path58"
       d="m 28,202 h 72" />
    <path
       id="path60"
       d="m 28,212 h 72" />
    <path
       id="path62"
       d="m 28,222 h 72" />
    <path
       id="path64"
       d="m 28,232 h 72" />
    <path
       id="path66"
       d="m 28,242 h 72" />
    <path
       id="path68"
       d="m 28,252 h 72" />
    <path
       id="path70"
       d="m 28,262 h 72" />
    <path
       id="path72"
       d="M 28,272 H 94" />
  </g>
  <g
     style="fill:#ffffff"
     id="g30"
     fill="#813d9c"
     transform="translate(-2.999942,-170.00025)">
    <path
       style="fill:#ffffff"
       id="path22"
       transform="matrix(0.140625,0,0,0.140625,-29.23291,12.300445)"
       d="m 812.20261,1309.7929 c -27.70079,0 -55.72369,7.4083 -74.72772,20.9366 l 18.03773,35.1092 c 12.56198,-9.9852 31.56602,-16.1051 49.92584,-16.1051 27.05659,0 42.19199,14.4169 42.19199,35.9977 l -50.00981,-0.2354 c -52.82417,-0.2486 -74.40225,26.624 -74.40225,57.2238 0,29.9555 22.04572,51.6578 62.6306,51.6578 25.44607,0 52.4405,-7.5298 61.78146,-23.3128 l 0.003,21.3432 53.33034,-0.01 -0.006,-104.013 c -0.003,-52.5026 -35.93005,-78.5921 -88.75482,-78.5921 z m -11.67969,151.6087 c -17.71562,0 -28.34499,-8.3747 -28.34499,-20.9367 0,-11.5956 7.40547,-23.1197 30.91845,-22.9689 l 44.53407,0.2354 0.003,16.1495 c 0.003,16.8142 -30.36157,27.5207 -47.11089,27.5207 z" />
    <path
       style="fill:#ffffff"
       id="path24"
       transform="translate(2.694112,-3.92387)"
       d="m 55.305889,221.92387 c -0.944974,0.77446 -1.612023,1.05106 -2.445832,1.05106 -1.278503,0 -1.667605,-0.77447 -1.667605,-3.20851 v -10.78724 c 0,-2.8766 -0.277936,-4.48085 -1.111745,-5.80851 -1.22291,-1.99149 -4.573306,-3.04255 -7.852936,-3.04255 -5.225182,0 -9.33863,2.71064 -9.33863,6.19575 0,1.27234 1.056163,2.37871 2.39025,2.37871 1.334086,0 2.501413,-1.10637 2.501413,-2.3234 0,-0.22127 -0.05563,-0.49787 -0.111176,-0.8851 -0.111177,-0.49787 -0.16676,-0.94042 -0.16676,-1.32766 0,-1.49362 1.778783,-2.71064 4.002271,-2.71064 2.723757,0 4.672684,1.60425 4.672684,4.59149 v 4.39862 c -7.655771,2.24877 -9.953459,2.84819 -12.343697,4.95032 -1.22292,1.10637 -2.001135,2.98723 -2.001135,4.81276 0,3.48511 2.445832,5.91915 5.836637,5.91915 2.445831,0 5.172972,-1.1617 8.563777,-4.0383 0.277937,2.93191 1.790584,4.0383 4.069655,4.0383 1.889959,0 3.057287,-0.66383 5.002829,-2.76596 z m -9.128066,-3.1532 c 0,1.65958 -0.277936,2.26809 -1.445263,2.93191 -1.389682,0.77448 -3.338597,1.21703 -4.505924,1.21703 -1.945553,0 -3.501982,-1.88085 -3.501982,-4.25958 v -0.22127 c 0.05563,-3.31915 2.949483,-4.39712 9.453169,-6.6652 z" />
    <path
       style="fill:#ffffff"
       id="path26"
       d="m 86.312915,236.674 c -0.913953,-0.0795 -2.066328,0.23842 -3.457126,0.95369 -1.390799,0.71527 -2.801467,1.78817 -4.232002,3.21871 -1.430536,1.3908 -2.761727,3.07963 -3.99358,5.06648 -1.192112,1.98686 -2.066328,4.19227 -2.622647,6.61623 -0.437107,1.78817 -0.596055,3.33791 -0.476846,4.64924 0.119213,1.27158 0.397373,2.32462 0.834481,3.15909 0.437107,0.79475 0.973557,1.37094 1.609351,1.72857 0.635794,0.39738 1.231851,0.59606 1.78817,0.59606 1.192113,-0.0795 2.384226,-0.33776 3.576339,-0.77488 1.033163,-0.39736 2.125935,-1.01329 3.278311,-1.84777 1.152376,-0.87422 2.205409,-2.10606 3.159099,-3.69555 -0.03974,1.0729 0.01987,1.96699 0.178817,2.68225 0.198685,0.71527 0.397372,1.29143 0.596055,1.72857 0.238423,0.51658 0.536452,0.91394 0.894085,1.19211 0.357634,0.23845 0.774874,0.3974 1.251719,0.47685 0.476845,0.11922 0.973556,0.15898 1.490143,0.11921 0.556313,-0.0398 1.092769,-0.13908 1.609345,-0.29804 0.516587,-0.15894 0.97357,-0.35763 1.370936,-0.59605 0.596061,-0.39736 1.331189,-1.0729 2.205406,-2.02659 0.913953,-0.99342 1.827907,-2.06632 2.741871,-3.21871 0.953691,-1.19211 1.867644,-2.36436 2.741858,-3.51673 0.87421,-1.19211 1.58947,-2.18554 2.14579,-2.98028 0.47687,-0.63579 0.75503,-1.19211 0.83449,-1.66897 0.11917,-0.47683 0.0993,-0.83448 -0.0596,-1.0729 -0.15895,-0.23839 -0.39737,-0.31787 -0.71528,-0.23842 -0.31789,0.0398 -0.63578,0.23844 -0.95369,0.59607 -0.23843,0.31789 -0.63578,0.81461 -1.1921,1.49013 -0.51659,0.67554 -1.112642,1.45041 -1.788176,2.32463 -0.675533,0.87421 -1.410661,1.78817 -2.205405,2.74186 -0.755007,0.91394 -1.490146,1.7683 -2.205405,2.56303 -0.715271,0.75501 -1.390805,1.39081 -2.026602,1.90738 -0.635786,0.47685 -1.152373,0.71527 -1.54974,0.71527 -0.47685,0 -0.854348,-0.0993 -1.132505,-0.29802 -0.238431,-0.23842 -0.417245,-0.53645 -0.536454,-0.89409 -0.119215,-0.35763 -0.198689,-0.73514 -0.238423,-1.1325 0,-0.43712 0.01987,-0.83448 0.05961,-1.19212 0.119204,-0.59605 0.218553,-1.09276 0.298027,-1.49014 0.07952,-0.39736 0.139089,-0.73514 0.178814,-1.01329 0.07952,-0.31791 0.13909,-0.61593 0.178826,-0.89409 0.07941,-0.31789 0.158936,-0.65566 0.23842,-1.01329 0.397366,-1.82791 0.71527,-3.31805 0.95369,-4.47043 0.23842,-1.15237 0.417235,-2.06633 0.536445,-2.74186 0.119221,-0.67552 0.178826,-1.13251 0.178826,-1.37093 0,-0.27819 -0.01982,-0.457 -0.05958,-0.53645 -0.07952,-0.0398 -0.238419,-0.0596 -0.476839,-0.0596 -0.198683,0 -0.496708,0.0198 -0.894086,0.0596 -0.357629,0.0398 -0.814612,0.11921 -1.37093,0.23842 0.834486,-1.27159 1.152379,-2.28488 0.953696,-3.03989 -0.158958,-0.79474 -0.516588,-1.3908 -1.072909,-1.78817 -0.675529,-0.4371 -1.549746,-0.75501 -2.622648,-0.95369 z m -1.403712,3.72833 c 0.151497,0.008 0.281139,0.0567 0.390417,0.14604 0.119214,0.15896 0.198687,0.37751 0.238422,0.65566 0.03975,0.23842 0.01987,0.57618 -0.05961,1.0133 -0.03974,0.39736 -0.218555,0.91395 -0.536451,1.54975 0.317896,-0.0794 0.635794,-0.13905 0.95369,-0.17882 0.317896,-0.0398 0.576189,-0.0993 0.774874,-0.17882 0.238422,-0.0794 0.456975,-0.13904 0.655661,-0.17882 0.158946,-0.0397 0.178818,0.27817 0.05961,0.95369 -0.07947,0.6358 -0.218554,1.45041 -0.41724,2.44384 -0.198686,0.99344 -0.437108,2.0266 -0.715267,3.09949 -0.278161,1.0729 -0.516583,2.00672 -0.715268,2.80147 -0.03974,0.19868 -0.218554,0.51657 -0.53645,0.95369 -0.27816,0.43711 -0.655663,0.91395 -1.132508,1.43053 -0.437109,0.51658 -0.95369,1.0133 -1.549747,1.49014 -0.556319,0.47685 -1.132507,0.87422 -1.728565,1.19211 -0.556318,0.27813 -1.112638,0.43707 -1.668957,0.47685 -0.55632,0 -1.053033,-0.21856 -1.490141,-0.65566 -0.238419,-0.23843 -0.397365,-0.73513 -0.476845,-1.49014 -0.07947,-0.79474 -0.05961,-1.70871 0.05961,-2.74186 0.15895,-1.03317 0.417241,-2.12594 0.774874,-3.27831 0.357635,-1.19211 0.83448,-2.30475 1.430536,-3.33791 1.430536,-2.50345 2.682256,-4.21214 3.755155,-5.1261 0.834481,-0.71526 1.479711,-1.06246 1.934205,-1.04012 z" />
    <path
       style="fill:#ffffff"
       id="path28"
       transform="translate(1.796942,170.07613)"
       fill-rule="evenodd"
       d="m 37,68 c -2.704645,-0.03825 -2.704645,4.03825 0,4 h 9.880859 c 0.01107,0.001 0.285634,0.0327 0.585938,0.197266 0.306304,0.16789 0.485897,0.188343 0.537109,0.939453 v -0.01953 L 48.25,78.310547 C 47.789324,78.134111 47.480469,78.058594 47.480469,78.058594 L 47.244141,78 H 38 c -4.333333,0 -5.896484,4.367188 -5.896484,4.367188 L 32,82.675781 V 85 c 0,3.03333 1.431289,5.127712 2.939453,6.070312 C 36.447617,92.012912 38,92 38,92 h 7.591797 l 3.392578,-2.203125 0.01953,0.320313 c 0.08969,2.735348 4.223189,2.492675 3.992188,-0.234376 l -1,-17.009765 v -0.0098 c -0.140818,-2.06533 -1.461734,-3.545828 -2.607422,-4.173828 -1.145688,-0.62799 -2.257813,-0.685547 -2.257813,-0.685547 L 47.064453,68 Z m 1,14 h 8.644531 c 0.106906,0.0312 0.525263,0.141312 1.03711,0.482422 0.558515,0.372213 0.877827,0.68942 0.894531,1.355469 L 48.714844,85.201172 44.408203,88 H 38 C 38,88 37.552383,87.9871 37.060547,87.679688 36.568711,87.372288 36,86.96667 36,85 V 83.435547 C 36.102847,83.130577 36.534758,82 38,82 Z" />
  </g>
  <path
     id="path34"
     fill="#ffffff"
     d="m 81.98314,28.489827 c -3.895424,0 -7.836144,1.041792 -10.508586,2.944209 l 2.536556,4.937231 c 1.766529,-1.404169 4.438972,-2.264779 7.020821,-2.264779 3.804833,0 5.933249,2.027376 5.933249,5.062176 l -7.032629,-0.0331 c -7.428399,-0.03496 -10.462817,3.744 -10.462817,8.047097 0,4.212492 3.100179,7.264378 8.807428,7.264378 3.578354,0 7.374446,-1.058878 8.688018,-3.278363 l 4.22e-4,3.001388 7.499579,-0.0014 -8.44e-4,-14.626828 C 94.463915,32.158648 89.411674,28.489812 81.983191,28.489812 Z M 80.340684,49.8098 c -2.491259,0 -3.986015,-1.177692 -3.986015,-2.944223 0,-1.630632 1.041395,-3.251208 4.347907,-3.230002 l 6.262604,0.0331 4.22e-4,2.271024 c 4.22e-4,2.364496 -4.269596,3.870098 -6.624969,3.870098 z"
     style="fill:#333333;stroke-width:0.140625" />
  <path
     style="fill:#333333"
     id="path36"
     fill="#ffffff"
     d="m 55.000059,49.99975 c -0.944974,0.77446 -1.612023,1.05106 -2.445832,1.05106 -1.278503,0 -1.667605,-0.77447 -1.667605,-3.20851 V 37.05506 c 0,-2.8766 -0.277936,-4.48085 -1.111745,-5.80851 -1.22291,-1.99149 -4.573306,-3.04255 -7.852936,-3.04255 -5.225182,0 -9.33863,2.71064 -9.33863,6.19575 0,1.27234 1.056163,2.37871 2.39025,2.37871 1.334086,0 2.501413,-1.10637 2.501413,-2.3234 0,-0.22127 -0.05563,-0.49787 -0.111176,-0.8851 -0.111177,-0.49787 -0.16676,-0.94042 -0.16676,-1.32766 0,-1.49362 1.778783,-2.71064 4.002271,-2.71064 2.723757,0 4.672684,1.60425 4.672684,4.59149 v 4.39862 c -7.655771,2.24877 -9.953459,2.84819 -12.343697,4.95032 -1.22292,1.10637 -2.001135,2.98723 -2.001135,4.81276 0,3.48511 2.445832,5.91915 5.836637,5.91915 2.445831,0 5.172972,-1.1617 8.563777,-4.0383 0.277937,2.93191 1.790584,4.0383 4.069655,4.0383 1.889959,0 3.057287,-0.66383 5.002829,-2.76596 z m -9.128066,-3.1532 c 0,1.65958 -0.277936,2.26809 -1.445263,2.93191 -1.389682,0.77448 -3.338597,1.21703 -4.505924,1.21703 -1.945553,0 -3.501982,-1.88085 -3.501982,-4.25958 v -0.22127 c 0.05563,-3.31915 2.949483,-4.39712 9.453169,-6.6652 z" />
  <path
     style="fill:#333333"
     id="path38"
     fill="#ffffff"
     d="m 83.312973,68.67375 c -0.913953,-0.0795 -2.066328,0.23842 -3.457126,0.95369 -1.390799,0.71527 -2.801467,1.78817 -4.232002,3.21871 -1.430536,1.3908 -2.761727,3.07963 -3.99358,5.06648 -1.192112,1.98686 -2.066328,4.19227 -2.622647,6.61623 -0.437107,1.78817 -0.596055,3.33791 -0.476846,4.64924 0.119213,1.27158 0.397373,2.32462 0.834481,3.15909 0.437107,0.79475 0.973557,1.37094 1.609351,1.72857 0.635794,0.39738 1.231851,0.59606 1.78817,0.59606 1.192113,-0.0795 2.384226,-0.33776 3.576339,-0.77488 1.033163,-0.39736 2.125935,-1.01329 3.278311,-1.84777 1.152376,-0.87422 2.205409,-2.10606 3.159099,-3.69555 -0.03974,1.0729 0.01987,1.96699 0.178817,2.68225 0.198685,0.71527 0.397372,1.29143 0.596055,1.72857 0.238423,0.51658 0.536452,0.91394 0.894085,1.19211 0.357634,0.23845 0.774874,0.3974 1.251719,0.47685 0.476845,0.11922 0.973556,0.15898 1.490143,0.11921 0.556313,-0.0398 1.092769,-0.13908 1.609345,-0.29804 0.516587,-0.15894 0.97357,-0.35763 1.370936,-0.59605 0.596061,-0.39736 1.331189,-1.0729 2.205406,-2.02659 0.913953,-0.99342 1.827907,-2.06632 2.741871,-3.21871 0.953691,-1.19211 1.867644,-2.36436 2.74186,-3.51673 0.87421,-1.19211 1.58947,-2.18554 2.14579,-2.98028 0.47687,-0.63579 0.75503,-1.19211 0.83449,-1.66897 0.11917,-0.47683 0.0993,-0.83448 -0.0596,-1.0729 -0.15895,-0.23839 -0.39737,-0.31787 -0.71528,-0.23842 -0.31789,0.0398 -0.63578,0.23844 -0.95369,0.59607 -0.23843,0.31789 -0.63578,0.81461 -1.1921,1.49013 -0.51659,0.67554 -1.112642,1.45041 -1.788176,2.32463 -0.675533,0.87421 -1.410661,1.78817 -2.205405,2.74186 -0.755007,0.91394 -1.490146,1.7683 -2.205405,2.56303 -0.715271,0.75501 -1.390805,1.39081 -2.026602,1.90738 -0.635786,0.47685 -1.152373,0.71527 -1.54974,0.71527 -0.47685,0 -0.854348,-0.0993 -1.132505,-0.29802 -0.238431,-0.23842 -0.417245,-0.53645 -0.536454,-0.89409 -0.119215,-0.35763 -0.198689,-0.73514 -0.238423,-1.1325 0,-0.43712 0.01987,-0.83448 0.05961,-1.19212 0.119204,-0.59605 0.218553,-1.09276 0.298027,-1.49014 0.07952,-0.39736 0.139089,-0.73514 0.178814,-1.01329 0.07952,-0.31791 0.13909,-0.61593 0.178826,-0.89409 0.07941,-0.31789 0.158936,-0.65566 0.23842,-1.01329 0.397366,-1.82791 0.71527,-3.31805 0.95369,-4.47043 0.23842,-1.15237 0.417235,-2.06633 0.536445,-2.74186 0.119221,-0.67552 0.178826,-1.13251 0.178826,-1.37093 0,-0.27819 -0.01982,-0.457 -0.05958,-0.53645 -0.07952,-0.0398 -0.238419,-0.0596 -0.476839,-0.0596 -0.198683,0 -0.496708,0.0198 -0.894086,0.0596 -0.357629,0.0398 -0.814612,0.11921 -1.37093,0.23842 0.834486,-1.27159 1.152379,-2.28488 0.953696,-3.03989 -0.158958,-0.79474 -0.516588,-1.3908 -1.072909,-1.78817 -0.675529,-0.4371 -1.549746,-0.75501 -2.622648,-0.95369 z m -1.403712,3.72833 c 0.151497,0.008 0.281139,0.0567 0.390417,0.14604 0.119214,0.15896 0.198687,0.37751 0.238422,0.65566 0.03975,0.23842 0.01987,0.57618 -0.05961,1.0133 -0.03974,0.39736 -0.218555,0.91395 -0.536451,1.54975 0.317896,-0.0794 0.635794,-0.13905 0.95369,-0.17882 0.317896,-0.0398 0.576189,-0.0993 0.774874,-0.17882 0.238422,-0.0794 0.456975,-0.13904 0.655661,-0.17882 0.158946,-0.0397 0.178818,0.27817 0.05961,0.95369 -0.07947,0.6358 -0.218554,1.45041 -0.41724,2.44384 -0.198686,0.99344 -0.437108,2.0266 -0.715267,3.09949 -0.278161,1.0729 -0.516583,2.00672 -0.715268,2.80147 -0.03974,0.19868 -0.218554,0.51657 -0.53645,0.95369 -0.27816,0.43711 -0.655663,0.91395 -1.132508,1.43053 -0.437109,0.51658 -0.95369,1.0133 -1.549747,1.49014 -0.556319,0.47685 -1.132507,0.87422 -1.728565,1.19211 -0.556318,0.27813 -1.112638,0.43707 -1.668957,0.47685 -0.55632,0 -1.053033,-0.21856 -1.490141,-0.65566 -0.238419,-0.23843 -0.397365,-0.73513 -0.476845,-1.49014 -0.07947,-0.79474 -0.05961,-1.70871 0.05961,-2.74186 0.15895,-1.03317 0.417241,-2.12594 0.774874,-3.27831 0.357635,-1.19211 0.83448,-2.30475 1.430536,-3.33791 1.430536,-2.50345 2.682256,-4.21214 3.755155,-5.1261 0.834481,-0.71526 1.479711,-1.06246 1.934205,-1.04012 z" />
  <path
     style="fill:#333333"
     id="path40"
     fill-rule="evenodd"
     fill="#ffffff"
     d="m 35.797,70.07588 c -2.704645,-0.03825 -2.704645,4.03825 0,4 h 9.880859 c 0.01107,0.001 0.285634,0.0327 0.585938,0.197266 0.306304,0.16789 0.485897,0.188343 0.537109,0.939453 v -0.01953 L 47.047,80.386427 c -0.460676,-0.176436 -0.769531,-0.251953 -0.769531,-0.251953 l -0.236328,-0.05859 H 36.797 c -4.333333,0 -5.896484,4.367188 -5.896484,4.367188 L 30.797,84.751665 v 2.324219 c 0,3.033326 1.431289,5.127716 2.939453,6.070316 1.508164,0.9426 3.060547,0.92968 3.060547,0.92968 h 7.591797 l 3.392578,-2.20312 0.01953,0.32031 c 0.08969,2.73535 4.223189,2.49268 3.992188,-0.23437 l -1,-17.009769 v -0.0098 c -0.140818,-2.065334 -1.461734,-3.545832 -2.607422,-4.173832 -1.145688,-0.62799 -2.257813,-0.685547 -2.257813,-0.685547 l -0.0664,-0.0039 z m 1,14 h 8.644531 c 0.106906,0.0312 0.525263,0.141312 1.03711,0.482422 0.558515,0.372213 0.877827,0.68942 0.894531,1.355469 l 0.138672,1.363281 -4.306641,2.798828 H 36.797 c 0,0 -0.447617,-0.0129 -0.939453,-0.32031 C 35.365711,89.44817 34.797,89.04255 34.797,87.07588 v -1.564453 c 0.102847,-0.30497 0.534758,-1.435547 2,-1.435547 z" />
  <g
     enable-background="new"
     transform="matrix(-1,0,0,1,148.00037,-172)"
     id="g108">
    <g
       fill="none"
       opacity="0.1"
       stroke="#00000f"
       transform="translate(14.00001,-11.999987)"
       id="g82">
      <path
         d="m 35.99999,249.99999 -8,8"
         stroke-width="6"
         id="path76" />
      <path
         d="m 27.99999,257.99999 -14,14"
         stroke-linecap="round"
         stroke-width="12"
         id="path78" />
      <circle
         cx="58"
         cy="228"
         r="30.118"
         stroke-linejoin="round"
         stroke-width="3.76471"
         id="circle80" />
    </g>
    <g
       enable-background="new"
       fill="none"
       transform="translate(14.00001,-13.999987)"
       id="g96">
      <path
         d="m 11.890335,268.55054 15.45714,-15.45715"
         opacity="0.154"
         stroke="#ffffff"
         stroke-linecap="round"
         stroke-width="1.63784"
         id="path84" />
      <path
         d="m 35.99999,249.99999 -8,8"
         stroke="#949390"
         stroke-width="6"
         id="path86" />
      <path
         d="m 35.99999,247.99999 -8,8"
         stroke="#d5d3cf"
         stroke-width="6"
         id="path88" />
      <g
         stroke-linecap="round"
         stroke-width="12"
         id="g94">
        <path
           d="m 27.99999,257.99999 -14,14"
           stroke="#241f31"
           id="path90" />
        <path
           d="m 27.99999,255.99999 -14,14"
           stroke="#424048"
           id="path92" />
      </g>
    </g>
    <circle
       cx="-72"
       cy="212.062"
       fill="#ffffff"
       opacity="0.5"
       r="29.938"
       transform="scale(-1,1)"
       id="circle98" />
    <g
       fill="none"
       id="g106">
      <circle
         cx="72"
         cy="214"
         r="30.118"
         stroke="#1a5fb4"
         stroke-linejoin="round"
         stroke-width="3.76471"
         id="circle100" />
      <circle
         cx="72"
         cy="212"
         r="30.118"
         stroke="#62a0ea"
         stroke-linejoin="round"
         stroke-width="3.76471"
         id="circle102" />
      <path
         d="M 25,255 41,239"
         opacity="0.154"
         stroke="#ffffff"
         stroke-linecap="round"
         stroke-width="2"
         id="path104" />
    </g>
  </g>
</svg>
