<?xml version="1.0" encoding="UTF-8" standalone="no"?>
<svg
   xmlns:dc="http://purl.org/dc/elements/1.1/"
   xmlns:cc="http://creativecommons.org/ns#"
   xmlns:rdf="http://www.w3.org/1999/02/22-rdf-syntax-ns#"
   xmlns:svg="http://www.w3.org/2000/svg"
   xmlns="http://www.w3.org/2000/svg"
   xmlns:sodipodi="http://sodipodi.sourceforge.net/DTD/sodipodi-0.dtd"
   xmlns:inkscape="http://www.inkscape.org/namespaces/inkscape"
   enable-background="new"
   height="128"
   viewBox="0 0 128 128"
   width="128"
   version="1.1"
   id="svg14"
   sodipodi:docname="atom.svg"
   inkscape:version="1.0.2 (e86c870879, 2021-01-15, custom)">
  <metadata
     id="metadata20">
    <rdf:RDF>
      <cc:Work
         rdf:about="">
        <dc:format>image/svg+xml</dc:format>
        <dc:type
           rdf:resource="http://purl.org/dc/dcmitype/StillImage" />
        <dc:title />
      </cc:Work>
    </rdf:RDF>
  </metadata>
  <defs
     id="defs18">
    <linearGradient
       x1="127.85778"
       y1="20.49717"
       x2="127.85778"
       y2="245.0489"
       id="linearGradient-2"
       gradientUnits="userSpaceOnUse"
       gradientTransform="matrix(0.47901456,0,0,0.47901456,2.7542681,1.6180077)">
      <stop
         stop-color="#B2E198"
         offset="0%"
         id="stop28" />
      <stop
         stop-color="#04A171"
         offset="100%"
         id="stop30" />
    </linearGradient>
  </defs>
  <sodipodi:namedview
     pagecolor="#ffffff"
     bordercolor="#666666"
     borderopacity="1"
     objecttolerance="10"
     gridtolerance="10"
     guidetolerance="10"
     inkscape:pageopacity="0"
     inkscape:pageshadow="2"
     inkscape:window-width="640"
     inkscape:window-height="480"
     id="namedview16"
     showgrid="false"
     inkscape:zoom="6.703125"
     inkscape:cx="64"
     inkscape:cy="64"
     inkscape:current-layer="svg14"
     inkscape:document-rotation="0" />
  <path
     d="M 124.00001,64.999998 A 59.999999,59.999999 0 0 1 64.000011,125 59.999999,59.999999 0 0 1 4,64.999998 59.999999,59.999999 0 0 1 64.000011,5.000002 59.999999,59.999999 0 0 1 124.00001,64.999998 Z"
     fill="#deddda"
     id="path2" />
  <rect
     fill="#d5d3cf"
     height="114"
     rx="56"
     width="112"
     x="8"
     y="7"
     id="rect4" />
  <path
     d="M 124.00001,63 A 59.999999,59.999999 0 0 1 64.000011,123 59.999999,59.999999 0 0 1 4,63 59.999999,59.999999 0 0 1 64.000011,2.9999952 59.999999,59.999999 0 0 1 124.00001,63 Z"
     fill="#f6f5f4"
     id="path6" />
  <circle
     fill="url(#linearGradient-2)"
     cx="64"
     cy="63"
     id="circle37"
     style="fill:url(#linearGradient-2);stroke-width:0.479015"
     r="56" />
  <circle
     cx="64"
     cy="61.981819"
     fill="none"
     r="54.981819"
     id="circle8"
     style="stroke-width:1.01818" />
  <g
     transform="matrix(0.4818491,0,0,0.4818491,24.252804,26.679286)"
     id="g43">
    <path
       d="m 54.941845,57.474516 c -1.375573,2.120249 -2.704782,4.2496 -3.987626,6.38208 -1.403165,-3.862471 -2.635094,-7.666346 -3.684409,-11.377209 3.730204,-0.534471 7.695075,-0.956302 11.874133,-1.248142 -1.419093,2.034347 -2.821405,4.115627 -4.202098,6.243271 z m 103.137845,7.474916 c -4.13212,-3.966578 -10.03946,-7.601209 -17.5579,-10.8032 C 125.59614,47.789752 105.60368,43.671565 84.226823,42.550285 81.648903,42.415174 79.132138,42.32273 76.698147,42.273521 93.019001,22.792774 108.78121,12.427618 117.9608,12.07889 c 1.94389,-0.07424 3.57575,0.310329 4.85432,1.141191 4.29625,2.792106 5.48808,11.452302 3.18863,23.166009 -0.45369,2.312248 1.05244,4.554809 3.36469,5.008782 2.31253,0.452266 4.55452,-1.052445 5.00878,-3.364978 3.95293,-20.13696 -1.57667,-28.4970666 -6.91143,-31.9647288 -2.78442,-1.80992 -6.09337,-2.6552889 -9.82898,-2.5133511 C 103.51671,4.0882763 83.732174,19.144205 65.679623,42.355156 58.532387,42.60177 51.642005,43.21873 45.196494,44.18129 44.489081,40.896241 43.942378,37.71217 43.572032,34.660081 41.952974,21.316223 43.938681,11.844223 48.883463,9.3223385 49.677916,8.9172896 50.546041,8.6840452 51.537614,8.6098052 55.95589,8.2772896 62.190058,11.246321 69.080156,16.96849 c 1.812196,1.50528 4.502471,1.256391 6.00832,-0.556658 1.50528,-1.812765 1.256107,-4.502756 -0.556658,-6.008036 C 65.682183,3.0543207 57.731392,-0.41305706 50.899036,0.10036517 48.786467,0.25880072 46.804174,0.80408072 45.00677,1.7205607 c -4.593209,2.3424 -7.732054,6.8278045 -9.329494,13.3316263 -1.368178,5.569423 -1.562169,12.512427 -0.576284,20.635591 0.389689,3.212516 0.959715,6.555876 1.694435,9.998223 -5.039502,1.062115 -9.71008,2.356053 -13.896533,3.868444 C 4.5829474,56.170907 0.35439625,64.891974 0.03240513,71.043085 -0.27536376,76.918854 2.7323518,85.66353 18.808014,93.953663 c 2.094364,1.08032 4.667733,0.257422 5.747769,-1.836658 1.080035,-2.094364 0.257707,-4.667733 -1.836658,-5.747484 C 13.471552,81.600241 8.3086007,76.177023 8.5540762,71.489378 8.8999607,64.884579 19.970538,57.894072 38.828067,53.955085 c 1.746774,6.308693 3.990472,12.860871 6.680747,19.50464 -6.777742,12.722916 -11.723093,25.26208 -14.28736,36.416005 -1.832676,7.97013 -2.368284,14.88981 -1.592036,20.56703 0.906525,6.63069 3.558685,11.4176 7.881956,14.22792 2.204444,1.43274 5.175467,2.55345 9.078044,2.55345 5.658738,-2.8e-4 13.275023,-2.35747 23.343503,-9.53884 1.918293,-1.36818 2.364586,-4.03257 0.996124,-5.95115 -1.367893,-1.91829 -4.032569,-2.3643 -5.951147,-0.99612 -9.924835,7.07897 -18.454186,9.6128 -22.816142,6.77802 -4.651804,-3.02364 -5.632853,-12.64184 -2.624,-25.72856 1.995094,-8.67755 5.5552,-18.296039 10.383076,-28.209213 1.048178,2.243983 2.142151,4.489387 3.283058,6.730525 9.716906,19.087358 21.612088,35.694078 33.494471,46.761528 5.983858,5.57312 11.707164,9.49732 17.010919,11.66364 3.21763,1.31385 6.23929,1.97092 9.04448,1.97092 2.59641,-2.8e-4 5.00821,-0.5632 7.21635,-1.68932 4.43022,-2.25934 7.51104,-6.52088 9.15712,-12.66602 1.40942,-5.26251 1.72601,-11.8272 0.94151,-19.51204 -1.54282,-15.10997 -7.25248,-33.538557 -16.07708,-51.891197 -1.02087,-2.123947 -3.57063,-3.017102 -5.69429,-1.996516 -2.12367,1.021156 -3.01739,3.570632 -1.99624,5.694294 8.40733,17.4848 13.83368,34.908159 15.27837,49.060129 1.27061,12.44615 -0.78023,21.30943 -5.48608,23.70929 -4.94166,2.5199 -13.75574,-1.43815 -23.579024,-10.58759 C 81.343979,120.42179 70.083961,104.65759 60.808227,86.437503 58.687694,82.271814 56.73413,78.097592 54.956636,73.954658 c 2.206151,-3.944675 4.591787,-7.902719 7.143538,-11.835448 2.601813,-4.009814 5.235769,-7.788658 7.876836,-11.333405 0.700586,-0.0097 1.404871,-0.01678 2.115129,-0.01906 3.664213,-0.01166 7.591537,0.09045 11.687822,0.305209 20.404339,1.070365 39.368249,4.950471 53.398469,10.925227 12.34062,5.25568 19.53479,11.704035 19.24466,17.249564 -0.24661,4.708409 -5.96765,9.575254 -15.69593,13.352391 -2.19676,0.853049 -3.28619,3.325156 -2.43342,5.521636 0.65593,1.689316 2.2693,2.723558 3.97881,2.723558 0.51313,0 1.03566,-0.0933 1.54282,-0.29042 16.90454,-6.563556 20.82077,-14.966898 21.12939,-20.861156 0.26965,-5.151289 -2.04003,-10.111431 -6.86507,-14.743324 v 0 z"
       fill="#f2f8f6"
       id="path39" />
    <path
       d="m 73.682976,76.510479 c 0,5.15328 4.173938,9.330916 9.322667,9.330916 5.149013,0 9.322951,-4.177636 9.322951,-9.330916 0,-5.15328 -4.173938,-9.330915 -9.322951,-9.330915 -5.148729,0 -9.322667,4.177635 -9.322667,9.330915"
       fill="#f1f8f3"
       id="path41" />
  </g>
</svg>
