<?xml version="1.0" encoding="UTF-8" standalone="no"?>
<svg
   xmlns:dc="http://purl.org/dc/elements/1.1/"
   xmlns:cc="http://creativecommons.org/ns#"
   xmlns:rdf="http://www.w3.org/1999/02/22-rdf-syntax-ns#"
   xmlns:svg="http://www.w3.org/2000/svg"
   xmlns="http://www.w3.org/2000/svg"
   xmlns:xlink="http://www.w3.org/1999/xlink"
   xmlns:sodipodi="http://sodipodi.sourceforge.net/DTD/sodipodi-0.dtd"
   xmlns:inkscape="http://www.inkscape.org/namespaces/inkscape"
   inkscape:version="1.0 (4035a4fb49, 2020-05-01)"
   sodipodi:docname="balena-etcher-electron.svg"
   id="svg8"
   version="1.1"
   width="128"
   height="128">
  <metadata
     id="metadata14">
    <rdf:RDF>
      <cc:Work
         rdf:about="">
        <dc:format>image/svg+xml</dc:format>
        <dc:type
           rdf:resource="http://purl.org/dc/dcmitype/StillImage" />
      </cc:Work>
    </rdf:RDF>
  </metadata>
  <defs
     id="defs12">
    <linearGradient
       inkscape:collect="always"
       id="linearGradient896">
      <stop
         style="stop-color:#2fc34f;stop-opacity:1"
         offset="0"
         id="stop892" />
      <stop
         style="stop-color:#7bdf91;stop-opacity:1"
         offset="1"
         id="stop894" />
    </linearGradient>
    <linearGradient
       id="linearGradient843"
       inkscape:collect="always">
      <stop
         style="stop-color:#20734c;stop-opacity:1"
         offset="0"
         id="stop856" />
      <stop
         id="stop841"
         offset="1"
         style="stop-color:#58d69d;stop-opacity:1" />
    </linearGradient>
    <linearGradient
       spreadMethod="pad"
       y2="21.454546"
       x2="64.279282"
       y1="65.81118"
       x1="64.883125"
       gradientUnits="userSpaceOnUse"
       id="linearGradient874"
       xlink:href="#linearGradient843"
       inkscape:collect="always" />
    <linearGradient
       y2="107.01021"
       x2="89.602554"
       y1="113.55296"
       x1="93.480591"
       gradientUnits="userSpaceOnUse"
       id="linearGradient884"
       xlink:href="#linearGradient896"
       inkscape:collect="always" />
    <linearGradient
       y2="110.02943"
       x2="43.429256"
       y1="115.70271"
       x1="40.082649"
       gradientUnits="userSpaceOnUse"
       id="linearGradient890"
       xlink:href="#linearGradient896"
       inkscape:collect="always" />
  </defs>
  <sodipodi:namedview
     inkscape:current-layer="svg8"
     inkscape:cy="64"
     inkscape:cx="64"
     inkscape:zoom="1"
     showgrid="false"
     id="namedview10"
     inkscape:window-height="480"
     inkscape:window-width="640"
     inkscape:pageshadow="2"
     inkscape:pageopacity="0"
     guidetolerance="10"
     gridtolerance="10"
     objecttolerance="10"
     borderopacity="1"
     bordercolor="#666666"
     pagecolor="#ffffff" />
  <path
     id="path888"
     d="m 114.25976,40.506716 c -13.25384,6.973411 -28.304149,15.542348 -38.437491,23.328259 -4.3647,3.3536 -6.290797,6.001798 -7.136282,7.609511 -0.422739,0.803857 -0.579232,1.350694 -0.639806,1.629797 -0.02379,0.109614 -0.02933,0.09915 -0.03408,0.09275 0.0019,0.09346 0.0095,0.2669 0.0095,0.2669 h -0.0076 L 68.21941,124 c 0.217379,-0.0876 2.536055,-0.48422 3.150684,-1.00392 L 107.82003,99.510705 c 2.87364,-1.66414 6.54473,-5.335461 7.00377,-10.853962 V 66.337406 65.714638 43.397194 c -0.0855,-1.027623 -0.28169,-1.991962 -0.56408,-2.890478 z"
     style="opacity:1;mix-blend-mode:normal;fill:url(#linearGradient884);fill-opacity:1" />
  <path
     id="path872"
     d="M 14.291238,39.868804 C 13.890689,40.945952 13.606212,42.120328 13.5,43.397194 v 22.317444 0.622768 22.319337 c 0.459038,5.518501 4.130133,9.189832 7.003779,10.853962 l 38.899362,23.581915 c 0.743767,0.38662 1.646958,0.65308 2.610327,0.83099 L 61.740889,73.284397 h 0.0095 c 0,-0.02454 0.0029,-0.076 0.0038,-0.11736 -0.0047,0.0063 -0.01023,0.01685 -0.03408,-0.09275 -0.06056,-0.279104 -0.217053,-0.82594 -0.639805,-1.629797 C 60.234786,69.836773 58.308682,67.188575 53.94398,63.834975 43.499611,55.810096 27.830084,46.951646 14.291238,39.868804 Z"
     style="opacity:1;mix-blend-mode:normal;fill:url(#linearGradient890);fill-opacity:1" />
  <path
     sodipodi:nodetypes="cccccscsccccccsc"
     style="opacity:1;mix-blend-mode:normal;fill:url(#linearGradient874);fill-opacity:1"
     id="path2"
     opacity=".6"
     fill="#3d3846"
     d="m 63.993455,7.8766814 v 0.01514 c -1.697196,0.07986 -3.352143,0.423996 -4.590314,1.067603 L 17.830985,30.707105 v 3.876686 c 13.510249,7.083529 29.081133,15.940599 39.932894,24.278502 3.336536,2.563608 5.584812,4.902501 7.119246,6.948884 1.53443,-2.046245 3.78304,-4.385521 7.119245,-6.948884 10.600239,-8.144646 25.705942,-16.786805 38.994,-23.786345 V 31.199262 L 68.920707,8.9594274 c -1.238169,-0.643607 -2.893105,-0.987704 -4.590313,-1.067603 v -0.01514 c -0.05629,9.69e-4 -0.112273,0.0056 -0.16847,0.0076 -0.05629,-0.0019 -0.112144,-0.0066 -0.168469,-0.0076 z" />
  <path
     id="path4"
     fill="#8ff0a4"
     d="m63.993455 3.9999954v.015143c-1.697196.07986-3.352143.4239956-4.590314 1.0676029l-38.899362 23.5819107c-.857162.496386-1.780018 1.193073-2.672794 2.042453 13.510249 7.083529 29.081133 15.940599 39.932894 24.278502 3.336536 2.563608 5.584812 4.902501 7.119246 6.948884 1.53443-2.046245 3.78304-4.385521 7.119245-6.948884 10.600239-8.144645 25.705942-16.786805 38.994-23.786345-1.04123-1.088367-2.15697-1.944304-3.1763-2.53461l-38.899363-23.5819104c-1.238169-.6436073-2.893105-.9877044-4.590313-1.0676029v-.015143c-.05629.0009692-.112273.00563-.16847.00757-.05629-.00194-.112144-.0066-.168469-.00757zm-49.702217 31.9921226c-.400549 1.077148-.685026 2.251524-.791238 3.52839v22.317444.622768 22.319338c.459038 5.518501 4.130133 9.189828 7.003779 10.853963l38.899362 23.581919c.743767.38661 1.646958.65307 2.610327.83098l-.272579-50.639209h.0095c0-.02454.0029-.076.0038-.11736-.0047.0063-.01023.01685-.03408-.09275-.06056-.279103-.217053-.82594-.639805-1.629797-.845518-1.607717-2.771622-4.255915-7.136324-7.609515-10.444369-8.024879-26.113896-16.883329-39.652742-23.966171zm99.968522.637912c-13.25384 6.973411-28.304149 15.542348-38.437491 23.328259-4.3647 3.3536-6.290797 6.001798-7.136282 7.609511-.422739.803857-.579232 1.350694-.639806 1.629798-.02379.109613-.02933.09915-.03408.09275.0019.09346.0095.2669.0095.2669h-.0076l.205409 50.566062c.217379-.0876 2.536055-.48421 3.150684-1.00391l36.449976-23.485379c2.87364-1.664145 6.54473-5.335462 7.00377-10.853963v-22.319338-.622768-22.317444c-.0855-1.027623-.28169-1.991962-.56408-2.890478z" />
  <path
     id="path6"
     fill="#2ec27e"
     d="m64.044564 21.443189v.01325c-1.188045.05592-2.347449.295279-3.214167.745808l-27.22766 16.508094c-.168104.09735-.344387.220023-.518658.336938 8.972041 5.135024 17.786454 10.641856 24.6798 15.938328 3.336536 2.563608 5.584812 4.902501 7.119246 6.948884 1.53443-2.046245 3.78304-4.385521 7.119245-6.948884 6.686256-5.137355 15.181975-10.470243 23.873419-15.472671-.391435-.309783-.781756-.587733-1.152784-.802595l-27.229554-16.508094c-.866694-.45052-2.026145-.69178-3.214166-.747701v-.01136c-.03943.000969-.07799.0047-.117361.0057-.03942-.000969-.07799-.0047-.11736-.0057zm-34.876923 22.63356c-.235153.68907-.402784 1.430422-.469442 2.231745v15.622211.437262 15.622212c.321327 3.862962 2.892981 6.433257 4.904538 7.598153l27.22766 16.508098c.323675.16825.697028.2979 1.088426.40887l-.177934-33.097589h.0095c0-.02454.0029-.07601.0038-.11736-.0047.0063-.01023.01685-.03407-.09275-.06056-.279104-.217053-.825941-.639805-1.629798-.845476-1.607713-2.77158-4.255911-7.136282-7.609511-6.736645-5.176031-15.658896-10.706121-24.776391-15.881543zm70.200567.709842c-8.683946 4.970554-17.11423 10.229921-23.545939 15.171698-4.3647 3.3536-6.290797 6.001798-7.136282 7.609511-.422739.803857-.579232 1.350694-.639806 1.629798-.02379.109613-.02932.09915-.03407.09275.0019.09346.0095.2669.0095.2669h-.0076l.172247 32.118952 26.536747-16.087868c2.011561-1.164905 4.581323-3.7352 4.902643-7.598153v-15.622212-.437262-15.622211c-.0443-.532905-.13487-1.038493-.25744-1.521903z" />
</svg>
