<?xml version="1.0" encoding="UTF-8" standalone="no"?>
<svg
   xmlns:dc="http://purl.org/dc/elements/1.1/"
   xmlns:cc="http://creativecommons.org/ns#"
   xmlns:rdf="http://www.w3.org/1999/02/22-rdf-syntax-ns#"
   xmlns:svg="http://www.w3.org/2000/svg"
   xmlns="http://www.w3.org/2000/svg"
   xmlns:xlink="http://www.w3.org/1999/xlink"
   xmlns:sodipodi="http://sodipodi.sourceforge.net/DTD/sodipodi-0.dtd"
   xmlns:inkscape="http://www.inkscape.org/namespaces/inkscape"
   enable-background="new"
   height="128"
   viewBox="0 0 128 128"
   width="128"
   version="1.1"
   id="svg14"
   sodipodi:docname="insomnia.svg"
   inkscape:version="1.0.1 (3bc2e813f5, 2020-09-07)">
  <metadata
     id="metadata20">
    <rdf:RDF>
      <cc:Work
         rdf:about="">
        <dc:format>image/svg+xml</dc:format>
        <dc:type
           rdf:resource="http://purl.org/dc/dcmitype/StillImage" />
        <dc:title></dc:title>
      </cc:Work>
    </rdf:RDF>
  </metadata>
  <defs
     id="defs18">
    <linearGradient
       inkscape:collect="always"
       id="linearGradient919">
      <stop
         style="stop-color:#ffffff;stop-opacity:1;"
         offset="0"
         id="stop915" />
      <stop
         style="stop-color:#ffffff;stop-opacity:0;"
         offset="1"
         id="stop917" />
    </linearGradient>
    <linearGradient
       inkscape:collect="always"
       id="linearGradient877">
      <stop
         style="stop-color:#a84db3;stop-opacity:1;"
         offset="0"
         id="stop873" />
      <stop
         style="stop-color:#a84db3;stop-opacity:0;"
         offset="1"
         id="stop875" />
    </linearGradient>
    <radialGradient
       inkscape:collect="always"
       xlink:href="#linearGradient877"
       id="radialGradient879"
       cx="64.000107"
       cy="7.9999981"
       fx="64.000107"
       fy="7.9999981"
       r="54"
       gradientUnits="userSpaceOnUse"
       gradientTransform="matrix(1.3882243,0,0,1.3937613,-24.8464,-3.1500902)" />
    <radialGradient
       inkscape:collect="always"
       xlink:href="#linearGradient919"
       id="radialGradient921"
       cx="64.151596"
       cy="38.860508"
       fx="64.151596"
       fy="38.860508"
       r="54.000006"
       gradientTransform="matrix(2.0868745,0,0,1.8117961,-69.724732,-31.546839)"
       gradientUnits="userSpaceOnUse" />
  </defs>
  <sodipodi:namedview
     pagecolor="#ffffff"
     bordercolor="#666666"
     borderopacity="1"
     objecttolerance="10"
     gridtolerance="10"
     guidetolerance="10"
     inkscape:pageopacity="0"
     inkscape:pageshadow="2"
     inkscape:window-width="640"
     inkscape:window-height="480"
     id="namedview16"
     showgrid="false"
     inkscape:zoom="1.6855469"
     inkscape:cx="5.0325022"
     inkscape:cy="82.501195"
     inkscape:current-layer="svg14" />
  <path
     d="m124.00001 63.999998a59.999999 59.999999 0 0 1 -59.999999 60.000002 59.999999 59.999999 0 0 1 -60.000011-60.000002 59.999999 59.999999 0 0 1 60.000011-59.999996 59.999999 59.999999 0 0 1 59.999999 59.999996z"
     fill="#deddda"
     id="path2" />
  <rect
     fill="#d5d3cf"
     height="114"
     rx="56"
     width="112"
     x="8"
     y="6"
     id="rect4" />
  <path
     d="m124.00001 62a59.999999 59.999999 0 0 1 -59.999999 60 59.999999 59.999999 0 0 1 -60.000011-60 59.999999 59.999999 0 0 1 60.000011-60.0000048 59.999999 59.999999 0 0 1 59.999999 60.0000048z"
     fill="#f6f5f4"
     id="path6" />
  <circle
     cx="64"
     cy="62"
     fill="none"
     r="54"
     id="circle8" />
  <path
     d="m64.00011 7.9999983a54.000004 54.000004 0 0 0 -54.000003 54.0000017 54.000004 54.000004 0 0 0 .041505 1.170902 54.000004 54.000004 0 0 1 53.958503-53.1709055 54.000004 54.000004 0 0 1 53.958495 52.8281295 54.000004 54.000004 0 0 0 .04152-.828126 54.000004 54.000004 0 0 0 -54.000016-54.0000017z"
     opacity=".1"
     id="path12" />
  <circle
     style="fill:#4c277a;fill-opacity:1;stroke-width:16.6744;stroke-linecap:round;stroke-linejoin:round;stroke-opacity:0.2"
     id="path22"
     cx="64"
     cy="64"
     r="54" />
  <circle
     style="fill:url(#radialGradient879);fill-opacity:1;stroke-width:16.6744;stroke-linecap:round;stroke-linejoin:round;stroke-opacity:0.2"
     id="circle871"
     cx="64"
     cy="64"
     r="54" />
  <path
     id="path897"
     style="fill:#f6f5f4;fill-opacity:1;stroke-width:37.5249;stroke-linecap:round;stroke-linejoin:round;stroke-opacity:0.2"
     d="m 63.833983,11.000064 a 53.999992,53.999992 0 0 0 -2.54883,0.06836 c 0.89963,-0.04456 1.80413,-0.06836 2.71485,-0.06836 a 53.999992,53.999992 0 0 0 -0.16602,0 z m 0.16602,0 c 0.90679,0 1.80733,0.02418 2.70312,0.06836 a 53.999992,53.999992 0 0 0 -2.70312,-0.06836 z m -2.85938,0.07617 a 53.999992,53.999992 0 0 0 -2.4668,0.1875 c 0.81703,-0.08001 1.63948,-0.144324 2.4668,-0.1875 z m 5.71485,0 c 0.83845,0.0437 1.67212,0.107933 2.5,0.189453 a 53.999992,53.999992 0 0 0 -2.5,-0.189453 z m -8.53125,0.222656 a 53.999992,53.999992 0 0 0 -2.21485,0.28125 c 0.734,-0.107503 1.47155,-0.203596 2.21485,-0.28125 z m 11.375,0.0019 c 0.75376,0.07908 1.5019,0.177337 2.24609,0.287109 a 53.999992,53.999992 0 0 0 -2.24609,-0.287109 z m 2.91601,0.390625 c 0.61168,0.09811 1.2196,0.207692 1.82422,0.326171 a 53.999992,53.999992 0 0 0 -1.82422,-0.326171 z m -17.25195,0.0039 a 53.999992,53.999992 0 0 0 -1.70117,0.304687 c 0.56424,-0.109445 1.13079,-0.212964 1.70117,-0.304687 z m -2.86524,0.544922 a 53.999992,53.999992 0 0 0 -1.27734,0.294922 c 0.42398,-0.102944 0.8495,-0.202058 1.27734,-0.294922 z m 23.00196,0 c 0.45259,0.09822 0.90328,0.201051 1.35156,0.310547 a 53.999992,53.999992 0 0 0 -1.35156,-0.310547 z m -25.70899,0.662109 a 53.999992,53.999992 0 0 0 -1.03711,0.294922 c 0.34452,-0.101268 0.68977,-0.20038 1.03711,-0.294922 z m 28.50196,0.02344 c 0.31645,0.08669 0.63121,0.177254 0.94531,0.269531 a 53.999992,53.999992 0 0 0 -0.94531,-0.269531 z m 2.58789,0.781249 c 0.30456,0.100216 0.60801,0.20313 0.91015,0.308594 a 53.999992,53.999992 0 0 0 -0.91015,-0.308594 z m -33.79102,0.0098 a 53.999992,53.999992 0 0 0 -0.83984,0.283203 c 0.27874,-0.09704 0.55903,-0.190625 0.83984,-0.283203 z m 36.24609,0.863281 c 0.30362,0.11656 0.60531,0.235562 0.90625,0.357422 a 53.999992,53.999992 0 0 0 -0.90625,-0.357422 z m -38.82617,0.06055 a 53.999992,53.999992 0 0 0 -0.74609,0.294922 c 0.24785,-0.100327 0.49643,-0.198186 0.74609,-0.294922 z m 41.22071,0.925782 c 0.34078,0.150102 0.68052,0.30208 1.01757,0.458984 a 53.999992,53.999992 0 0 0 -1.01757,-0.458984 z m -43.50391,0.01758 a 53.999992,53.999992 0 0 0 -0.97656,0.443359 c 0.32381,-0.150761 0.64929,-0.298874 0.97656,-0.443359 z m 45.7207,1.015625 c 0.44367,0.220055 0.88367,0.445932 1.32032,0.677734 a 53.999992,53.999992 0 0 0 -1.32032,-0.677734 z m -47.95898,0.0332 a 53.999992,53.999992 0 0 0 -1.25781,0.646484 c 0.41607,-0.220908 0.83536,-0.436238 1.25781,-0.646484 z m 50.11133,1.09375 c 0.56298,0.311669 1.12143,0.631904 1.67187,0.962891 a 53.999992,53.999992 0 0 0 -1.67187,-0.962891 z m -52.21289,0.0078 a 53.999992,53.999992 0 0 0 -1.6504,0.951172 c 0.54352,-0.326704 1.09465,-0.643297 1.6504,-0.951172 z m -2.07422,1.207032 a 53.999992,53.999992 0 0 0 -1.85742,1.189453 c 0.61004,-0.409555 1.23009,-0.804492 1.85742,-1.189453 z m 56.38867,0.0078 c 0.62197,0.381922 1.23682,0.773584 1.8418,1.179688 a 53.999992,53.999992 0 0 0 -1.8418,-1.179688 z m 2.11719,1.365235 c 0.665046,0.452382 1.321486,0.917558 1.964836,1.398437 A 53.999992,53.999992 0 0 0 94.318363,20.31453 Z m -60.66016,0.01758 a 53.999992,53.999992 0 0 0 -1.97266,1.404296 c 0.6456,-0.483281 1.30518,-0.94973 1.97266,-1.404296 z m -1.97266,1.404296 a 53.999992,53.999992 0 0 0 -13.87109,15.287108 c 3.607,-5.94457 8.32716,-11.137007 13.87109,-15.287108 z m -13.87109,15.287108 a 53.999992,53.999992 0 0 0 -1.29883,2.26367 c 0.41553,-0.76602 0.84796,-1.5206 1.29883,-2.26367 z m -1.29883,2.26367 a 53.999992,53.999992 0 0 0 -1.1582,2.26563 c 0.36955,-0.76545 0.75418,-1.52082 1.1582,-2.26563 z M 96.318359,21.740299 C 102.55333,26.408684 107.74548,32.39458 111.48437,39.28717 A 53.999992,53.999992 0 0 0 96.318359,21.740299 Z M 111.48437,39.28717 c 0.3939,0.72615 0.76971,1.4632 1.13086,2.20899 a 53.999992,53.999992 0 0 0 -1.13086,-2.20899 z M 91.617183,33.2442 c -1.75605,-0.08869 -6.23679,0.39312 -13.98242,5.66407 -4.32,-1.21637 -8.91,-1.82422 -13.5,-1.82422 -4.59,0 -9.18,0.60785 -13.5,1.82422 -10.3275,-6.96035 -14.84961,-5.54102 -14.84961,-5.54102 -2.97,7.43338 -1.07906,12.97465 -0.53906,14.32617 -3.4425,3.78427 -5.53516,8.65016 -5.53516,14.5293 0,20.67836 12.55336,25.34184 24.56836,26.69336 -1.5525,1.35153 -2.9689,3.7165 -3.4414,7.23047 -3.105,1.41909 -10.86852,3.71579 -15.72852,-4.46094 -1.0125,-1.62184 -4.04829,-5.60851 -8.30078,-5.54101 -4.5225,0.06758 -1.82359,2.5684 0.06641,3.58203 2.295,1.28396 4.92765,6.08048 5.53515,7.63476 1.08,3.0409 4.59071,8.85382 18.15821,6.35352 0,4.52763 0.0664,8.7844 0.0664,10.06836 0,1.3206 -0.89578,2.79506 -3.19336,2.61523 a 53.999992,53.999992 0 0 0 16.5586,2.60156 53.999992,53.999992 0 0 0 16.43554,-2.5625 c -2.11197,0.0935 -2.93554,-1.38256 -2.93554,-2.65429 0,-1.82458 0.06836,-7.63651 0.06836,-14.86719 0,-5.0682 -1.68899,-8.31059 -3.64649,-10 12.015,-1.35152 24.638666,-5.94745 24.638666,-26.69336 0,-5.94672 -2.09265,-10.74503 -5.535146,-14.5293 0.54,-1.35152 2.428976,-6.89279 -0.54102,-14.32617 0,0 -0.28183,-0.09348 -0.86719,-0.12305 z m -76.32812,8.44922 a 53.999992,53.999992 0 0 0 -1.00781,2.23243 c 0.31937,-0.75249 0.65581,-1.4979 1.00781,-2.23243 z m 97.451167,0.06055 c 0.33946,0.7106 0.6637,1.43083 0.97266,2.1582 a 53.999992,53.999992 0 0 0 -0.97266,-2.1582 z m -98.542967,2.37109 a 53.999992,53.999992 0 0 0 -0.83398,2.11719 c 0.26419,-0.71264 0.54101,-1.41911 0.83398,-2.11719 z m 99.609377,0.01368 c 0.29765,0.70974 0.57976,1.42755 0.84765,2.15234 a 53.999992,53.999992 0 0 0 -0.84765,-2.15234 z M 13.214843,46.64655 a 53.999992,53.999992 0 0 0 -0.73242,2.16992 c 0.22937,-0.73034 0.47329,-1.45334 0.73242,-2.16992 z m 101.578127,0.02148 c 0.2476,0.68564 0.48078,1.37794 0.70117,2.07617 a 53.999992,53.999992 0 0 0 -0.70117,-2.07617 z M 12.373043,49.16999 a 53.999992,53.999992 0 0 0 -0.61718,2.17968 c 0.19112,-0.73243 0.39651,-1.45972 0.61718,-2.17968 z m 103.269537,0.05273 c 0.21845,0.71529 0.42399,1.43648 0.61328,2.16406 a 53.999992,53.999992 0 0 0 -0.61328,-2.16406 z m 0.69921,2.50586 c 0.19054,0.75261 0.36674,1.51054 0.52539,2.27539 a 53.999992,53.999992 0 0 0 -0.52539,-2.27539 z m -104.691397,0.0293 a 53.999992,53.999992 0 0 0 -0.52735,2.29882 c 0.15951,-0.77287 0.33529,-1.53842 0.52735,-2.29882 z m -0.57227,2.51758 a 53.999992,53.999992 0 0 0 -0.45508,2.54882 c 0.13071,-0.857 0.2847,-1.70559 0.45508,-2.54882 z m -0.45508,2.54882 a 53.999992,53.999992 0 0 0 -0.34375,2.70703 c 0.09214,-0.90896 0.20724,-1.81198 0.34375,-2.70703 z m -0.34375,2.70703 a 53.999992,53.999992 0 0 0 -0.20898,2.7461 c 0.04663,-0.92175 0.11685,-1.83713 0.20898,-2.7461 z m -0.20898,2.7461 a 53.999992,53.999992 0 0 0 -0.07031,2.72265 53.999992,53.999992 0 0 0 0,0.06055 c 0,-0.9334 0.02368,-1.86146 0.07031,-2.7832 z m -0.07031,2.7832 a 53.999992,53.999992 0 0 0 0.04101,2.05469 c -0.02535,-0.68167 -0.04101,-1.36665 -0.04101,-2.05469 z M 116.92968,54.29889 c 0.16401,0.81355 0.31041,1.63262 0.4375,2.45899 a 53.999992,53.999992 0 0 0 -0.4375,-2.45899 z m 0.45704,2.58008 c 0.13287,0.87722 0.24371,1.76178 0.33398,2.65234 a 53.999992,53.999992 0 0 0 -0.33398,-2.65234 z m 0.33398,2.65234 c 0.18389,1.81411 0.2789,3.65481 0.2793,5.51758 a 53.999992,53.999992 0 0 0 0,-0.04883 53.999992,53.999992 0 0 0 -0.2793,-5.46875 z M 10.060543,67.54889 a 53.999992,53.999992 0 0 0 0.08985,1.46485 c -0.03506,-0.48701 -0.06772,-0.97428 -0.08985,-1.46485 z" />
  <path
     id="path913"
     style="fill:url(#radialGradient921);fill-opacity:1;stroke-width:37.5249;stroke-linecap:round;stroke-linejoin:round;stroke-opacity:0.2"
     d="m 63.833983,11.000064 a 53.999992,53.999992 0 0 0 -2.54883,0.06836 c 0.89963,-0.04456 1.80413,-0.06836 2.71485,-0.06836 a 53.999992,53.999992 0 0 0 -0.16602,0 z m 0.16602,0 c 0.90679,0 1.80733,0.02418 2.70312,0.06836 a 53.999992,53.999992 0 0 0 -2.70312,-0.06836 z m -2.85938,0.07617 a 53.999992,53.999992 0 0 0 -2.4668,0.1875 c 0.81703,-0.08001 1.63948,-0.144324 2.4668,-0.1875 z m 5.71485,0 c 0.83845,0.0437 1.67212,0.107933 2.5,0.189453 a 53.999992,53.999992 0 0 0 -2.5,-0.189453 z m -8.53125,0.222656 a 53.999992,53.999992 0 0 0 -2.21485,0.28125 c 0.734,-0.107503 1.47155,-0.203596 2.21485,-0.28125 z m 11.375,0.0019 c 0.75376,0.07908 1.5019,0.177337 2.24609,0.287109 a 53.999992,53.999992 0 0 0 -2.24609,-0.287109 z m 2.91601,0.390625 c 0.61168,0.09811 1.2196,0.207692 1.82422,0.326171 a 53.999992,53.999992 0 0 0 -1.82422,-0.326171 z m -17.25195,0.0039 a 53.999992,53.999992 0 0 0 -1.70117,0.304687 c 0.56424,-0.109445 1.13079,-0.212964 1.70117,-0.304687 z m -2.86524,0.544922 a 53.999992,53.999992 0 0 0 -1.27734,0.294922 c 0.42398,-0.102944 0.8495,-0.202058 1.27734,-0.294922 z m 23.00196,0 c 0.45259,0.09822 0.90328,0.201051 1.35156,0.310547 a 53.999992,53.999992 0 0 0 -1.35156,-0.310547 z m -25.70899,0.662109 a 53.999992,53.999992 0 0 0 -1.03711,0.294922 c 0.34452,-0.101268 0.68977,-0.20038 1.03711,-0.294922 z m 28.50196,0.02344 c 0.31645,0.08669 0.63121,0.177254 0.94531,0.269531 a 53.999992,53.999992 0 0 0 -0.94531,-0.269531 z m 2.58789,0.781249 c 0.30456,0.100216 0.60801,0.20313 0.91015,0.308594 a 53.999992,53.999992 0 0 0 -0.91015,-0.308594 z m -33.79102,0.0098 a 53.999992,53.999992 0 0 0 -0.83984,0.283203 c 0.27874,-0.09704 0.55903,-0.190625 0.83984,-0.283203 z m 36.24609,0.863281 c 0.30362,0.11656 0.60531,0.235562 0.90625,0.357422 a 53.999992,53.999992 0 0 0 -0.90625,-0.357422 z m -38.82617,0.06055 a 53.999992,53.999992 0 0 0 -0.74609,0.294922 c 0.24785,-0.100327 0.49643,-0.198186 0.74609,-0.294922 z m 41.22071,0.925782 c 0.34078,0.150102 0.68052,0.30208 1.01757,0.458984 a 53.999992,53.999992 0 0 0 -1.01757,-0.458984 z m -43.50391,0.01758 a 53.999992,53.999992 0 0 0 -0.97656,0.443359 c 0.32381,-0.150761 0.64929,-0.298874 0.97656,-0.443359 z m 45.7207,1.015625 c 0.44367,0.220055 0.88367,0.445932 1.32032,0.677734 a 53.999992,53.999992 0 0 0 -1.32032,-0.677734 z m -47.95898,0.0332 a 53.999992,53.999992 0 0 0 -1.25781,0.646484 c 0.41607,-0.220908 0.83536,-0.436238 1.25781,-0.646484 z m 50.11133,1.09375 c 0.56298,0.311669 1.12143,0.631904 1.67187,0.962891 a 53.999992,53.999992 0 0 0 -1.67187,-0.962891 z m -52.21289,0.0078 a 53.999992,53.999992 0 0 0 -1.6504,0.951172 c 0.54352,-0.326704 1.09465,-0.643297 1.6504,-0.951172 z m -2.07422,1.207032 a 53.999992,53.999992 0 0 0 -1.85742,1.189453 c 0.61004,-0.409555 1.23009,-0.804492 1.85742,-1.189453 z m 56.38867,0.0078 c 0.62197,0.381922 1.23682,0.773584 1.8418,1.179688 a 53.999992,53.999992 0 0 0 -1.8418,-1.179688 z m 2.11719,1.365235 c 0.665046,0.452382 1.321486,0.917558 1.964836,1.398437 A 53.999992,53.999992 0 0 0 94.318363,20.31453 Z m -60.66016,0.01758 a 53.999992,53.999992 0 0 0 -1.97266,1.404296 c 0.6456,-0.483281 1.30518,-0.94973 1.97266,-1.404296 z m -1.97266,1.404296 a 53.999992,53.999992 0 0 0 -13.87109,15.287108 c 3.607,-5.94457 8.32716,-11.137007 13.87109,-15.287108 z m -13.87109,15.287108 a 53.999992,53.999992 0 0 0 -1.29883,2.26367 c 0.41553,-0.76602 0.84796,-1.5206 1.29883,-2.26367 z m -1.29883,2.26367 a 53.999992,53.999992 0 0 0 -1.1582,2.26563 c 0.36955,-0.76545 0.75418,-1.52082 1.1582,-2.26563 z M 96.318359,21.740299 C 102.55333,26.408684 107.74548,32.39458 111.48437,39.28717 A 53.999992,53.999992 0 0 0 96.318359,21.740299 Z M 111.48437,39.28717 c 0.3939,0.72615 0.76971,1.4632 1.13086,2.20899 a 53.999992,53.999992 0 0 0 -1.13086,-2.20899 z M 91.617183,33.2442 c -1.75605,-0.08869 -6.23679,0.39312 -13.98242,5.66407 -4.32,-1.21637 -8.91,-1.82422 -13.5,-1.82422 -4.59,0 -9.18,0.60785 -13.5,1.82422 -10.3275,-6.96035 -14.84961,-5.54102 -14.84961,-5.54102 -2.97,7.43338 -1.07906,12.97465 -0.53906,14.32617 -3.4425,3.78427 -5.53516,8.65016 -5.53516,14.5293 0,20.67836 12.55336,25.34184 24.56836,26.69336 -1.5525,1.35153 -2.9689,3.7165 -3.4414,7.23047 -3.105,1.41909 -10.86852,3.71579 -15.72852,-4.46094 -1.0125,-1.62184 -4.04829,-5.60851 -8.30078,-5.54101 -4.5225,0.06758 -1.82359,2.5684 0.06641,3.58203 2.295,1.28396 4.92765,6.08048 5.53515,7.63476 1.08,3.0409 4.59071,8.85382 18.15821,6.35352 0,4.52763 0.0664,8.7844 0.0664,10.06836 0,1.3206 -0.89578,2.79506 -3.19336,2.61523 a 53.999992,53.999992 0 0 0 16.5586,2.60156 53.999992,53.999992 0 0 0 16.43554,-2.5625 c -2.11197,0.0935 -2.93554,-1.38256 -2.93554,-2.65429 0,-1.82458 0.06836,-7.63651 0.06836,-14.86719 0,-5.0682 -1.68899,-8.31059 -3.64649,-10 12.015,-1.35152 24.638666,-5.94745 24.638666,-26.69336 0,-5.94672 -2.09265,-10.74503 -5.535146,-14.5293 0.54,-1.35152 2.428976,-6.89279 -0.54102,-14.32617 0,0 -0.28183,-0.09348 -0.86719,-0.12305 z m -76.32812,8.44922 a 53.999992,53.999992 0 0 0 -1.00781,2.23243 c 0.31937,-0.75249 0.65581,-1.4979 1.00781,-2.23243 z m 97.451167,0.06055 c 0.33946,0.7106 0.6637,1.43083 0.97266,2.1582 a 53.999992,53.999992 0 0 0 -0.97266,-2.1582 z m -98.542967,2.37109 a 53.999992,53.999992 0 0 0 -0.83398,2.11719 c 0.26419,-0.71264 0.54101,-1.41911 0.83398,-2.11719 z m 99.609377,0.01368 c 0.29765,0.70974 0.57976,1.42755 0.84765,2.15234 a 53.999992,53.999992 0 0 0 -0.84765,-2.15234 z M 13.214843,46.64655 a 53.999992,53.999992 0 0 0 -0.73242,2.16992 c 0.22937,-0.73034 0.47329,-1.45334 0.73242,-2.16992 z m 101.578127,0.02148 c 0.2476,0.68564 0.48078,1.37794 0.70117,2.07617 a 53.999992,53.999992 0 0 0 -0.70117,-2.07617 z M 12.373043,49.16999 a 53.999992,53.999992 0 0 0 -0.61718,2.17968 c 0.19112,-0.73243 0.39651,-1.45972 0.61718,-2.17968 z m 103.269537,0.05273 c 0.21845,0.71529 0.42399,1.43648 0.61328,2.16406 a 53.999992,53.999992 0 0 0 -0.61328,-2.16406 z m 0.69921,2.50586 c 0.19054,0.75261 0.36674,1.51054 0.52539,2.27539 a 53.999992,53.999992 0 0 0 -0.52539,-2.27539 z m -104.691397,0.0293 a 53.999992,53.999992 0 0 0 -0.52735,2.29882 c 0.15951,-0.77287 0.33529,-1.53842 0.52735,-2.29882 z m -0.57227,2.51758 a 53.999992,53.999992 0 0 0 -0.45508,2.54882 c 0.13071,-0.857 0.2847,-1.70559 0.45508,-2.54882 z m -0.45508,2.54882 a 53.999992,53.999992 0 0 0 -0.34375,2.70703 c 0.09214,-0.90896 0.20724,-1.81198 0.34375,-2.70703 z m -0.34375,2.70703 a 53.999992,53.999992 0 0 0 -0.20898,2.7461 c 0.04663,-0.92175 0.11685,-1.83713 0.20898,-2.7461 z m -0.20898,2.7461 a 53.999992,53.999992 0 0 0 -0.07031,2.72265 53.999992,53.999992 0 0 0 0,0.06055 c 0,-0.9334 0.02368,-1.86146 0.07031,-2.7832 z m -0.07031,2.7832 a 53.999992,53.999992 0 0 0 0.04101,2.05469 c -0.02535,-0.68167 -0.04101,-1.36665 -0.04101,-2.05469 z M 116.92968,54.29889 c 0.16401,0.81355 0.31041,1.63262 0.4375,2.45899 a 53.999992,53.999992 0 0 0 -0.4375,-2.45899 z m 0.45704,2.58008 c 0.13287,0.87722 0.24371,1.76178 0.33398,2.65234 a 53.999992,53.999992 0 0 0 -0.33398,-2.65234 z m 0.33398,2.65234 c 0.18389,1.81411 0.2789,3.65481 0.2793,5.51758 a 53.999992,53.999992 0 0 0 0,-0.04883 53.999992,53.999992 0 0 0 -0.2793,-5.46875 z M 10.060543,67.54889 a 53.999992,53.999992 0 0 0 0.08985,1.46485 c -0.03506,-0.48701 -0.06772,-0.97428 -0.08985,-1.46485 z" />
</svg>
