<?xml version="1.0" encoding="UTF-8" standalone="no"?>
<svg
   height="128px"
   viewBox="0 0 128 128"
   width="128px"
   version="1.1"
   id="svg209"
   sodipodi:docname="org.gnome.Shotwell.svg"
   inkscape:version="1.2.2 (b0a8486541, 2022-12-01)"
   xmlns:inkscape="http://www.inkscape.org/namespaces/inkscape"
   xmlns:sodipodi="http://sodipodi.sourceforge.net/DTD/sodipodi-0.dtd"
   xmlns:xlink="http://www.w3.org/1999/xlink"
   xmlns="http://www.w3.org/2000/svg"
   xmlns:svg="http://www.w3.org/2000/svg">
  <defs
     id="defs213">
    <linearGradient
       id="linearGradient2196"
       gradientUnits="userSpaceOnUse"
       x1="135.96919"
       y1="291.77829"
       x2="41.1329"
       y2="74.766403">
      <stop
         offset="0"
         style="stop-color:#d18260;stop-opacity:1;"
         id="stop2192" />
      <stop
         offset="1"
         style="stop-color:#dacec0;stop-opacity:1;"
         id="stop2194" />
    </linearGradient>
    <linearGradient
       inkscape:collect="always"
       id="linearGradient2190">
      <stop
         style="stop-color:#205287;stop-opacity:1;"
         offset="0"
         id="stop2186" />
      <stop
         style="stop-color:#72becf;stop-opacity:1;"
         offset="1"
         id="stop2188" />
    </linearGradient>
    <linearGradient
       inkscape:collect="always"
       xlink:href="#linearGradient4616-1-3"
       id="linearGradient81640-2"
       gradientUnits="userSpaceOnUse"
       gradientTransform="matrix(1.846227,-0.16850975,0.27469342,3.009597,-166.36735,186.2793)"
       x1="25.355263"
       y1="33.357342"
       x2="25.355263"
       y2="31.76339" />
    <linearGradient
       id="linearGradient4616-1-3"
       inkscape:collect="always">
      <stop
         id="stop4618-9-7"
         offset="0"
         style="stop-color: rgb(46, 52, 54); stop-opacity: 1;" />
      <stop
         id="stop4620-2-6"
         offset="1"
         style="stop-color: rgb(46, 52, 54); stop-opacity: 0;" />
    </linearGradient>
    <clipPath
       clipPathUnits="userSpaceOnUse"
       id="clipPath2156">
      <path
         d="m -82.410126,228.24802 -69.722724,6.05777 c -0.91757,0.0797 -1.59622,0.87901 -1.51733,1.78706 l 4.56753,52.57064 c 0.0789,0.90805 0.88523,1.57832 1.8028,1.4986 l 69.722725,-6.05777 c 0.917575,-0.0797 1.596224,-0.87901 1.517329,-1.78706 l -4.56753,-52.57064 c -0.0789,-0.90805 -0.885224,-1.57832 -1.8028,-1.4986 z m 0,0"
         fill="url(#d)"
         id="path2158"
         style="fill:#000000;stroke-width:1.30001" />
    </clipPath>
    <linearGradient
       inkscape:collect="always"
       xlink:href="#linearGradient2196"
       id="linearGradient2178"
       gradientTransform="matrix(-1.0624999,0,0,0.86666717,127.74999,-140.20007)"
       x1="44.646988"
       y1="217.62442"
       x2="44.885559"
       y2="262.11111" />
    <clipPath
       clipPathUnits="userSpaceOnUse"
       id="clipPath2182">
      <path
         d="m 113.45454,46.999999 -64.909088,3e-6 c -0.85422,-2e-5 -1.545451,0.68405 -1.545455,1.529408 v 48.94118 c 5e-6,0.845359 0.691233,1.52941 1.545454,1.529412 l 64.909089,-4e-6 C 114.30877,99.000019 115,98.315949 115,97.470591 v -48.94118 c -1e-5,-0.845359 -0.69123,-1.52941 -1.54546,-1.529412 z m 0,0"
         fill="url(#d)"
         id="path2184"
         style="fill:#000000;stroke-width:1.30001" />
    </clipPath>
    <linearGradient
       id="a-3"
       gradientUnits="userSpaceOnUse"
       x1="8"
       x2="112"
       y1="63.999954"
       y2="63.999954"
       gradientTransform="matrix(0.76923077,0,0,0.76923077,1.8461538,2.384615)">
      <stop
         offset="0"
         stop-color="#babdb6"
         id="stop3287" />
      <stop
         offset="0.0416667"
         stop-color="#f6f5f4"
         id="stop3289" />
      <stop
         offset="0.0833333"
         stop-color="#d5d3cf"
         id="stop3291" />
      <stop
         offset="0.916667"
         stop-color="#deddda"
         id="stop3293" />
      <stop
         offset="0.958333"
         stop-color="#f6f5f4"
         id="stop3295" />
      <stop
         offset="1"
         stop-color="#babdb6"
         id="stop3297" />
    </linearGradient>
    <linearGradient
       inkscape:collect="always"
       xlink:href="#a-3"
       id="linearGradient4533"
       gradientUnits="userSpaceOnUse"
       gradientTransform="matrix(0.76923077,0,0,0.76923077,34.846154,33.384615)"
       x1="8"
       y1="63.999954"
       x2="112"
       y2="63.999954" />
  </defs>
  <sodipodi:namedview
     id="namedview211"
     pagecolor="#ffffff"
     bordercolor="#999999"
     borderopacity="1"
     inkscape:showpageshadow="0"
     inkscape:pageopacity="0"
     inkscape:pagecheckerboard="0"
     inkscape:deskcolor="#d1d1d1"
     showgrid="false"
     inkscape:zoom="4"
     inkscape:cx="29.5"
     inkscape:cy="88.875"
     inkscape:current-layer="svg209" />
  <clipPath
     id="a">
    <path
       d="m 2 2 h 124 v 124 h -124 z m 0 0"
       id="path2" />
  </clipPath>
  <clipPath
     id="b">
    <path
       d="m 34.957031 2.382812 l 85.003907 22.777344 c 4.265624 1.144532 6.800781 5.53125 5.65625 9.796875 l -22.777344 85.003907 c -1.144532 4.265624 -5.53125 6.800781 -9.796875 5.65625 l -85.003907 -22.777344 c -4.265624 -1.144532 -6.800781 -5.53125 -5.65625 -9.796875 l 22.777344 -85.003907 c 1.144532 -4.265624 5.53125 -6.796874 9.796875 -5.65625 z m 0 0"
       id="path5" />
  </clipPath>
  <linearGradient
     id="c"
     gradientUnits="userSpaceOnUse">
    <stop
       offset="0"
       stop-color="#ffa348"
       id="stop8" />
    <stop
       offset="0.474835"
       stop-color="#c061cb"
       id="stop10" />
    <stop
       offset="1"
       stop-color="#1c71d8"
       id="stop12" />
  </linearGradient>
  <linearGradient
     id="d"
     gradientTransform="matrix(-1.0624999,0,0,0.86666717,94.749987,-171.20007)"
     x1="51.964199"
     x2="52.195076"
     xlink:href="#linearGradient2190"
     y1="218.85036"
     y2="265.86862"
     gradientUnits="userSpaceOnUse" />
  <clipPath
     id="e">
    <path
       d="m 20 20 h 88 v 68 h -88 z m 0 0"
       id="path16" />
  </clipPath>
  <clipPath
     id="f">
    <path
       d="m 106 20 h -84 c -1.105469 0 -2 0.894531 -2 2 v 64 c 0 1.105469 0.894531 2 2 2 h 84 c 1.105469 0 2 -0.894531 2 -2 v -64 c 0 -1.105469 -0.894531 -2 -2 -2 z m 0 0"
       id="path19" />
  </clipPath>
  <filter
     id="g"
     height="1"
     width="1"
     x="0"
     y="0">
    <feColorMatrix
       in="SourceGraphic"
       type="matrix"
       values="0 0 0 0 1 0 0 0 0 1 0 0 0 0 1 0 0 0 1 0"
       id="feColorMatrix22" />
  </filter>
  <mask
     id="h">
    <g
       filter="url(#g)"
       id="g27">
      <rect
         fill-opacity="0.568457"
         height="128"
         width="128"
         id="rect25" />
    </g>
  </mask>
  <linearGradient
     id="i"
     gradientUnits="userSpaceOnUse">
    <stop
       offset="0"
       stop-color="#ffffff"
       id="stop30" />
    <stop
       offset="1"
       stop-color="#ffffff"
       stop-opacity="0"
       id="stop32" />
  </linearGradient>
  <linearGradient
     id="j"
     gradientTransform="matrix(-0.707107,0.707107,0.707107,0.707107,110,-173.99998)"
     x1="212.802719"
     x2="290.802734"
     xlink:href="#i"
     y1="161.293045"
     y2="161.293045" />
  <clipPath
     id="k">
    <rect
       height="152"
       width="192"
       id="rect36" />
  </clipPath>
  <mask
     id="l">
    <g
       filter="url(#g)"
       id="g41">
      <rect
         fill-opacity="0.363132"
         height="128"
         width="128"
         id="rect39" />
    </g>
  </mask>
  <linearGradient
     id="m"
     gradientTransform="matrix(-0.707107,0.707107,0.707107,0.707107,111,-177.99998)"
     x1="202.232544"
     x2="240.798187"
     xlink:href="#i"
     y1="172.831131"
     y2="172.831131" />
  <clipPath
     id="n">
    <rect
       height="152"
       width="192"
       id="rect45" />
  </clipPath>
  <mask
     id="o">
    <g
       filter="url(#g)"
       id="g50">
      <rect
         fill-opacity="0.768678"
         height="128"
         width="128"
         id="rect48" />
    </g>
  </mask>
  <linearGradient
     id="p"
     gradientTransform="matrix(0,1.428571,-1.428571,0,427.2857,12.714302)"
     x1="24"
     x2="38"
     xlink:href="#i"
     y1="238"
     y2="238" />
  <clipPath
     id="q">
    <rect
       height="152"
       width="192"
       id="rect54" />
  </clipPath>
  <clipPath
     id="r">
    <path
       d="m 22 42 h 60 v 61 h -60 z m 0 0"
       id="path57" />
  </clipPath>
  <clipPath
     id="s">
    <path
       d="m 22.0625 72.179688 c 0 16.535156 13.402344 29.9375 29.9375 29.9375 s 29.9375 -13.402344 29.9375 -29.9375 c 0 -16.535157 -13.402344 -29.9375 -29.9375 -29.9375 s -29.9375 13.402343 -29.9375 29.9375 z m 0 0"
       id="path60" />
  </clipPath>
  <linearGradient
     id="t"
     gradientTransform="matrix(-1.649999,0,0,1.36,139.40002,-271.75991)"
     x1="31.003128"
     x2="71.043274"
     xlink:href="#c"
     y1="257.064087"
     y2="220.171326" />
  <clipPath
     id="u">
    <path
       d="m 117.199219 22 h -100.800781 c -1.324219 0 -2.398438 1.074219 -2.398438 2.398438 v 76.800781 c 0 1.328125 1.074219 2.402343 2.398438 2.402343 h 100.800781 c 1.328125 0 2.402343 -1.074218 2.402343 -2.402343 v -76.800781 c 0 -1.324219 -1.074218 -2.398438 -2.402343 -2.398438 z m 0 0"
       id="path64" />
  </clipPath>
  <mask
     id="v">
    <g
       filter="url(#g)"
       id="g69">
      <rect
         fill-opacity="0.568457"
         height="128"
         width="128"
         id="rect67" />
    </g>
  </mask>
  <linearGradient
     id="w"
     gradientTransform="matrix(-0.848528,0.848528,0.848528,0.848528,120.40004,-213.99979)"
     x1="212.802719"
     x2="290.802734"
     xlink:href="#i"
     y1="161.293045"
     y2="161.293045" />
  <clipPath
     id="x">
    <rect
       height="152"
       width="192"
       id="rect73" />
  </clipPath>
  <mask
     id="y">
    <g
       filter="url(#g)"
       id="g78">
      <rect
         fill-opacity="0.363132"
         height="128"
         width="128"
         id="rect76" />
    </g>
  </mask>
  <linearGradient
     id="z"
     gradientTransform="matrix(-0.848528,0.848528,0.848528,0.848528,121.60004,-218.79979)"
     x1="202.232544"
     x2="240.798187"
     xlink:href="#i"
     y1="172.831131"
     y2="172.831131" />
  <clipPath
     id="A">
    <rect
       height="152"
       width="192"
       id="rect82" />
  </clipPath>
  <clipPath
     id="B">
    <path
       d="m 22 42 h 60 v 61 h -60 z m 0 0"
       id="path85" />
  </clipPath>
  <clipPath
     id="C">
    <path
       d="m 22.0625 72.179688 c 0 16.535156 13.402344 29.9375 29.9375 29.9375 s 29.9375 -13.402344 29.9375 -29.9375 c 0 -16.535157 -13.402344 -29.9375 -29.9375 -29.9375 s -29.9375 13.402343 -29.9375 29.9375 z m 0 0"
       id="path88" />
  </clipPath>
  <mask
     id="D">
    <g
       filter="url(#g)"
       id="g93">
      <rect
         fill-opacity="0.768678"
         height="128"
         width="128"
         id="rect91" />
    </g>
  </mask>
  <linearGradient
     id="E"
     gradientTransform="matrix(0,1.714284,-1.714284,0,501.14263,10.057194)"
     x1="24"
     x2="38"
     xlink:href="#i"
     y1="238"
     y2="238" />
  <clipPath
     id="F">
    <rect
       height="152"
       width="192"
       id="rect97" />
  </clipPath>
  <mask
     id="G">
    <g
       filter="url(#g)"
       id="g102">
      <rect
         fill-opacity="0.154"
         height="128"
         width="128"
         id="rect100" />
    </g>
  </mask>
  <clipPath
     id="H">
    <rect
       height="152"
       width="192"
       id="rect105" />
  </clipPath>
  <mask
     id="I">
    <g
       filter="url(#g)"
       id="g110">
      <rect
         fill-opacity="0.154"
         height="128"
         width="128"
         id="rect108" />
    </g>
  </mask>
  <clipPath
     id="J">
    <rect
       height="152"
       width="192"
       id="rect113" />
  </clipPath>
  <mask
     id="K">
    <g
       filter="url(#g)"
       id="g118">
      <rect
         fill-opacity="0.35"
         height="128"
         width="128"
         id="rect116" />
    </g>
  </mask>
  <radialGradient
     id="L"
     cx="-72"
     cy="190"
     gradientTransform="matrix(-1,0,0,1,-12,-123.88236)"
     gradientUnits="userSpaceOnUse"
     r="29.937637">
    <stop
       offset="0"
       stop-color="#ffffff"
       id="stop121" />
    <stop
       offset="0.271152"
       stop-color="#ffffff"
       stop-opacity="0.866667"
       id="stop123" />
    <stop
       offset="1"
       stop-color="#ffffff"
       stop-opacity="0"
       id="stop125" />
  </radialGradient>
  <clipPath
     id="M">
    <rect
       height="152"
       width="192"
       id="rect128" />
  </clipPath>
  <g
     id="g4539"
     transform="translate(0,-3)">
    <path
       d="M 47.153846,58 H 114.84615 C 118.24459,58 121,60.755408 121,64.153846 v 52.307694 c 0,3.39844 -2.75541,6.15384 -6.15385,6.15384 H 47.153846 C 43.755409,122.61538 41,119.85998 41,116.46154 V 64.153846 C 41,60.755408 43.755409,58 47.153846,58 Z m 0,0"
       fill="url(#a)"
       id="path4531"
       style="fill:url(#linearGradient4533);stroke-width:1" />
    <path
       d="M 47.153846,41 H 114.84615 C 118.24459,41 121,43.755409 121,47.153846 V 114.84615 C 121,118.24459 118.24459,121 114.84615,121 H 47.153846 C 43.755409,121 41,118.24459 41,114.84615 V 47.153846 C 41,43.755409 43.755409,41 47.153846,41 Z"
       fill="#f6f5f4"
       id="path2160"
       style="stroke-width:1.30001"
       sodipodi:nodetypes="sssssssss" />
    <path
       d="M 113.45454,47 H 48.545454 c -0.854226,0 -1.545455,0.684053 -1.545455,1.529412 V 97.470588 C 46.999999,98.315946 47.691228,99 48.545454,99 H 113.45454 C 114.30877,99 115,98.315946 115,97.470588 V 48.529412 C 115,47.684053 114.30877,47 113.45454,47 Z m 0,0"
       fill="url(#d)"
       id="path2162"
       style="fill:url(#linearGradient2178);fill-opacity:1;stroke-width:1.30001" />
    <path
       sodipodi:nodetypes="ccccccccccccccccccccccccscccccccccccsccccccccc"
       inkscape:connector-curvature="0"
       id="path5519"
       d="m 47,76.2 0.500619,-0.297289 1.335519,-2.365646 1.180638,2.073579 2.071977,-0.144757 0.44672,-1.775096 1.476605,2.07405 2.662538,0.744007 0.438892,3.256301 1.924687,-0.588952 -0.432459,-7.399791 12.134302,0.166828 0.289984,3.847991 2.95965,0.0046 0.003,-1.923769 2.071531,0.151202 -0.0058,3.699556 4.436008,2.226622 -1.026686,-5.920885 3.555719,-2.658169 0.598125,-3.994596 0.437967,3.848231 4.139594,2.522121 -0.604334,7.990119 c 0,0 2.218121,1.039329 1.923543,0.150949 -0.294586,-0.888348 -0.733024,-4.440604 -0.733024,-4.440604 L 92.632392,77.748543 92.797836,66.502138 95.018025,66.20961 95.773793,56 l 0.575841,10.359662 1.773723,1.334599 -0.601123,5.91836 4.291246,0.15465 -0.30378,5.03092 2.21973,0.0035 c 0,0 -1.61952,-5.329879 -0.73163,-5.328504 0.88789,0.0014 4.14327,0.15442 4.14327,0.15442 l 0.13994,5.1796 5.1796,-0.13994 0.74888,-5.770155 -1.0244,-7.400708 2.81489,-2.067387 -0.0595,38.327353 -67.834965,-0.0623 z"
       style="color:#000000;display:inline;overflow:visible;visibility:visible;fill:#5d2c16;fill-opacity:1;stroke:none;stroke-width:1.60575;marker:none;enable-background:accumulate"
       clip-path="url(#clipPath2182)" />
  </g>
  <g
     id="g4549">
    <path
       d="M 14.153846,27 H 81.846154 C 85.244592,27 88,29.755408 88,33.153846 v 52.307693 c 0,3.398438 -2.755408,6.153841 -6.153846,6.153841 H 14.153846 C 10.755409,91.61538 8,88.859977 8,85.461539 V 33.153846 C 8,29.755408 10.755409,27 14.153846,27 Z m 0,0"
       fill="url(#a)"
       id="path3316"
       style="fill:url(#a-3);stroke-width:1" />
    <path
       d="M 14.153846,10 H 81.846154 C 85.244593,10 88,12.755409 88,16.153846 V 83.846154 C 88,87.244592 85.244593,90 81.846154,90 H 14.153846 C 10.755409,90 8.0000001,87.244592 8.0000001,83.846154 V 16.153846 C 8.0000001,12.755409 10.755409,10 14.153846,10 Z"
       fill="#f6f5f4"
       id="path139"
       style="stroke-width:1.30001;fill:#fafaf9;fill-opacity:1"
       sodipodi:nodetypes="sssssssss" />
    <path
       d="M 80.454542,16 H 15.545454 c -0.854226,0 -1.545455,0.684053 -1.545455,1.529412 V 66.470588 C 13.999999,67.315946 14.691228,68 15.545454,68 h 64.909088 c 0.854226,0 1.545454,-0.684054 1.545454,-1.529412 V 17.529412 C 81.999996,16.684053 81.308768,16 80.454542,16 Z m 0,0"
       fill="url(#d)"
       id="path141"
       style="fill:url(#d);fill-opacity:1;stroke-width:1.30001" />
    <g
       clip-path="url(#q)"
       mask="url(#o)"
       transform="matrix(0.75,0,0,0.75,-36.25,15.75)"
       id="g157"
       style="stroke-width:1.33333">
      <path
         d="m 93,67 c -5.523438,0 -10,-4.476562 -10,-10 0,-5.523438 4.476562,-10 10,-10 5.523438,0 10,4.476562 10,10 0,5.523438 -4.476562,10 -10,10 z m 0,0"
         fill="url(#p)"
         id="path155"
         style="fill:url(#p);stroke-width:1.73334" />
    </g>
    <g
       id="g2105"
       transform="matrix(0.92398537,0.08027924,-0.08027924,0.92398537,174.92387,-188.28201)"
       style="stroke-width:1.07821"
       clip-path="url(#clipPath2156)">
      <path
         inkscape:connector-curvature="0"
         style="display:inline;fill:url(#linearGradient81640-2);fill-opacity:1;stroke:none;stroke-width:0.673403"
         d="m -149.73987,284.99092 c 15.08275,-4.33459 33.24682,-3.15539 46.89612,-4.36513 l 26.470094,-3.90976 0.66102,7.22804 -73.537134,6.38917 z"
         id="path6036"
         sodipodi:nodetypes="cccccc" />
      <path
         inkscape:connector-curvature="0"
         style="display:inline;fill:#000000;fill-opacity:1;fill-rule:evenodd;stroke:none;stroke-width:0.673403"
         d="m -144.68829,239.16878 c 4.50596,2.32532 8.8681,1.23683 12.37017,4.31707 0.19657,0.17299 0.38964,0.32288 0.58648,0.48837 -0.78344,0.083 -2.94128,-0.29053 -5.01526,0.26812 -1.72635,0.46494 -3.5055,-0.16067 -5.45459,1.39196 2.32271,-1.23243 4.31723,-0.75517 6.23152,-1.19192 1.49233,-0.34049 4.22616,0.13943 6.02216,0.96768 2.98012,2.25979 5.61065,3.82611 6.2755,5.52363 0.84967,2.16924 1.59895,8.67812 1.87779,11.37122 -0.31362,-0.20893 -0.61234,-0.43356 -0.90165,-0.67637 -0.64852,-0.55919 -1.27484,-1.16489 -2.01604,-1.60428 -0.71226,-0.42349 -1.4457,-0.80534 -2.05008,-1.38441 -0.64213,-0.71905 -1.37753,-1.34566 -2.07967,-2.00487 -0.66369,-0.56578 -1.36204,-1.08669 -1.99649,-1.68739 -0.58871,-0.60297 -1.2606,-1.11893 -2.03061,-1.46744 -0.7042,-0.34556 -1.43978,-0.7385 -2.25267,-0.63439 -0.41422,-0.0306 -0.83947,-0.0892 -1.17029,-0.35376 -0.54855,-0.33302 -1.19474,-0.50951 -1.83484,-0.50996 l 0.11241,0.0439 c 0.80249,0.13908 1.51063,0.5744 2.17951,1.0204 0.74132,0.28868 1.63494,0.14653 2.25994,0.71497 0.66428,0.58454 1.60376,0.84518 2.12353,1.59447 0.20754,0.28471 0.43886,0.53619 0.69403,0.77657 -0.58286,0.2951 -1.08674,1.19341 -1.4872,1.51764 -1.04799,0.84852 -4.17894,-2.0008 -6.63801,-1.48051 1.78962,-0.20399 5.14571,1.70534 5.77583,1.83016 0.49307,0.0977 -1.26782,1.93965 -2.66422,2.87138 1.27094,-0.48997 3.22246,-2.47667 3.60972,-2.60548 0.48615,-0.16158 0.84645,-1.76558 1.96354,-1.64237 0.25168,0.2219 0.5091,0.45001 0.74041,0.69109 0.65724,0.61666 1.31252,1.21573 1.88181,1.91463 0.81561,0.84619 1.8282,1.46137 2.69781,2.24654 0.70367,0.61233 1.3288,1.30562 1.99411,1.95848 0.89081,0.89403 1.79258,1.78742 2.68331,2.68138 0.43093,0.71734 1.01362,1.30378 1.60818,1.88541 0.63199,0.60128 1.24837,1.23675 1.74985,1.95373 0.58512,0.71948 1.10201,1.496 1.51302,2.32753 0.33955,0.79124 0.56691,1.61429 0.76552,2.45004 0.24522,0.87675 0.4646,1.77762 0.46269,2.69435 -0.002,1.36276 -0.0166,2.72943 -0.006,4.09197 0.0426,0.67614 0.0227,1.40367 0.39892,1.99571 0.80561,0.41262 1.72591,0.44229 2.61161,0.41191 0.74281,-0.0882 1.46696,-0.32863 2.06893,-0.78494 0.26158,-0.16459 0.50626,-0.47513 0.33437,-0.78918 -0.2403,-0.8602 -0.50588,-1.71515 -0.6703,-2.59416 -0.20602,-0.98065 -0.40469,-1.96681 -0.56778,-2.95572 -0.17106,-0.93389 -0.299,-1.86513 -0.41876,-2.80683 -0.0511,-0.86403 -0.0936,-1.75669 0.087,-2.60909 0.20526,-0.83567 0.38919,-1.92864 0.84186,-2.65085 0.64975,-0.96347 1.70069,-1.46985 2.46893,-2.33878 0.65241,-0.68158 1.34301,-1.32762 1.95365,-2.04795 0.59661,-0.67266 1.23433,-1.99502 1.7555,-2.73423 0.59227,-0.75334 1.21062,-0.88955 1.78029,-1.57145 0.15296,-0.12643 0.31314,-0.25221 0.48117,-0.36907 0.43394,-0.2719 0.85002,-0.57693 1.428832,-0.67233 0.605299,-0.0208 1.183767,-0.27288 1.79308,-0.24492 0.606399,-0.007 0.942289,0.546 1.583135,0.42447 0.562495,-0.15817 1.1533,-0.2095 1.741784,-0.21317 -0.191774,-0.0549 -0.395626,-0.0978 -0.605889,-0.10726 -0.428273,-0.0393 -0.839924,0.14237 -1.260544,0.14222 -0.547688,0.003 -0.758147,-0.41323 -1.238755,-0.51008 -0.578688,-0.0477 -1.160981,0.19378 -1.741697,0.21316 -0.468579,-0.0212 -0.903866,0.12193 -1.368026,0.15202 0.56887,-1.02588 1.049003,-2.2176 1.669862,-3.07871 1.054387,-1.17546 2.373665,-2.36885 3.233458,-2.86923 1.145979,-0.66688 2.062904,-0.0511 3.56874,-0.97601 -1.686361,0.90018 -2.842613,0.0193 -4.802314,1.41375 -1.080619,0.75975 -1.809286,1.19397 -2.417846,1.71097 -1.47116,-1.032 -1.08154,-5.15709 -2.48963,-7.3866 0.0638,-0.0889 0.0912,-0.18807 0.0805,-0.30535 1.27616,-0.68726 3.26609,-0.84071 4.56808,-0.71503 1.582791,0.15284 1.037401,0.5099 1.832379,0.48304 0.698691,-0.0234 1.968688,0.543 2.975762,0.83934 1.089396,0.32047 1.321195,-0.13889 3.400884,0.74627 -1.511226,-0.8336 -2.96871,-0.71071 -3.200629,-0.92712 0.450542,-2.14761 3.037606,-2.78077 3.946046,-4.85799 -1.313617,2.3679 -3.301399,2.33006 -4.141459,4.7945 -1.081656,-0.19956 -2.170439,-0.57609 -2.733955,-0.86133 1.140876,-1.72967 -2.014481,-6.04997 -2.238078,-7.59918 0.09437,2.08367 2.893062,4.80559 1.766502,7.47965 -2.822744,-0.83372 -5.006442,-0.22707 -6.427302,0.23437 -0.0575,-0.0317 -0.12756,-0.0581 -0.1954,-0.0634 -1.35105,-1.64642 -1.09758,-2.97403 -2.60345,-4.77497 0.89906,1.68256 1.21705,3.5431 2.08074,4.98525 0.0204,0.0344 0.0434,0.0677 0.064,0.10254 -0.0268,0.0674 -0.0416,0.1426 -0.0344,0.21993 0.0178,0.19476 0.15957,0.347 0.33479,0.40297 1.0091,2.26697 0.98217,5.22746 1.37804,7.37967 -2.31294,-3.11767 -4.73993,-2.95086 -6.63553,-8.28162 1.76984,6.57493 7.05167,6.69483 6.0991,11.01298 -0.92531,1.15899 -2.41861,3.11324 -3.13291,3.97091 -0.60265,0.64347 -1.27265,1.21593 -1.95126,1.77677 -0.70228,0.63106 -0.59622,1.03696 -1.343,1.61278 -0.55468,0.45181 -1.85761,1.00356 -2.33252,1.45928 -0.62112,0.59608 -0.92537,1.35885 -1.4308,2.13564 -0.26687,0.43985 -1.01759,0.62578 -1.24547,1.1975 -0.38738,-1.11982 -1.40492,-3.1742 -3.04039,-3.92223 -0.80837,-0.36979 -1.74231,-1.0884 -2.43134,-1.7019 -0.15295,-0.13327 -0.30126,-0.24752 -0.46673,-0.36378 -1.30306,-2.48283 -1.70899,-5.66115 -2.21397,-8.52262 0.0762,-0.0869 0.13489,-0.17775 0.21982,-0.26397 0.42971,-0.39038 0.81944,-0.81985 1.57773,-1.11944 0.84754,-0.24789 1.43869,0.1595 2.32566,-0.0497 0.8587,-0.23678 1.50897,-1.0607 2.33735,-1.40552 0.69144,-0.34519 1.77342,-0.28169 2.60888,-0.50908 -0.98276,0.13826 -1.95926,0.0505 -2.88741,0.42611 -0.77778,0.21147 -1.17304,1.07522 -1.92456,1.17823 -0.85711,0.18116 -1.43399,-0.22193 -2.24755,0.0155 -0.68188,0.16116 -1.22349,0.45615 -1.86368,0.65781 -0.0874,-0.045 -0.35116,0.0751 -0.3543,-0.0219 -0.0977,-0.48157 -0.19865,-0.95938 -0.31804,-1.40697 -0.3574,-3.34602 3.473,-2.54549 4.17867,-3.19932 0.4648,-0.4306 3.07518,-2.92475 5.51728,-3.67377 -2.90516,0.80247 -5.67855,3.32416 -5.45416,2.5842 0.28687,-0.94561 0.0325,-6.86827 1.63108,-9.14452 -2.5334,2.95186 -0.8342,9.26479 -2.79358,10.06348 -0.96076,0.39168 -3.39576,0.30074 -3.70784,1.53062 -0.11357,-0.2488 -0.22722,-0.47573 -0.36177,-0.6986 -0.86663,-1.43538 -3.04656,-2.90305 -5.37616,-4.57608 -0.30849,-1.03251 1.34257,-1.52153 1.47242,-1.97688 0.1005,-0.35236 1.89482,-2.24415 2.29025,-3.40629 -0.8183,1.31128 -2.48071,3.02093 -2.60817,2.59531 -0.16279,-0.54387 -2.23907,-3.33052 -2.15641,-4.92416 -0.34767,2.21081 2.60861,4.71364 1.84888,5.7109 -0.31306,0.41094 -1.26994,0.98356 -1.42856,1.56648 -1.12677,-0.82126 -2.25136,-1.68503 -3.30377,-2.65189 -3.07686,-2.82668 -5.09994,-1.29611 -12.75106,-3.74039 l -10e-6,-1.7e-4 v 0 z"
         id="path6038" />
    </g>
  </g>
</svg>
