<?xml version="1.0" encoding="UTF-8" standalone="no"?>
<svg
   xmlns:dc="http://purl.org/dc/elements/1.1/"
   xmlns:cc="http://creativecommons.org/ns#"
   xmlns:rdf="http://www.w3.org/1999/02/22-rdf-syntax-ns#"
   xmlns:svg="http://www.w3.org/2000/svg"
   xmlns="http://www.w3.org/2000/svg"
   xmlns:sodipodi="http://sodipodi.sourceforge.net/DTD/sodipodi-0.dtd"
   xmlns:inkscape="http://www.inkscape.org/namespaces/inkscape"
   enable-background="new"
   height="128"
   viewBox="0 0 128 128"
   width="128"
   version="1.1"
   id="svg14"
   sodipodi:docname="pgAdmin4.svg"
   inkscape:version="1.0.1 (3bc2e813f5, 2020-09-07)">
  <metadata
     id="metadata20">
    <rdf:RDF>
      <cc:Work
         rdf:about="">
        <dc:format>image/svg+xml</dc:format>
        <dc:type
           rdf:resource="http://purl.org/dc/dcmitype/StillImage" />
        <dc:title></dc:title>
      </cc:Work>
    </rdf:RDF>
  </metadata>
  <defs
     id="defs18" />
  <sodipodi:namedview
     pagecolor="#ffffff"
     bordercolor="#666666"
     borderopacity="1"
     objecttolerance="10"
     gridtolerance="10"
     guidetolerance="10"
     inkscape:pageopacity="0"
     inkscape:pageshadow="2"
     inkscape:window-width="640"
     inkscape:window-height="480"
     id="namedview16"
     showgrid="false"
     inkscape:zoom="5.6568542"
     inkscape:cx="82.047421"
     inkscape:cy="85.039539"
     inkscape:current-layer="svg14" />
  <path
     d="m124.00001 63.999998a59.999999 59.999999 0 0 1 -59.999999 60.000002 59.999999 59.999999 0 0 1 -60.000011-60.000002 59.999999 59.999999 0 0 1 60.000011-59.999996 59.999999 59.999999 0 0 1 59.999999 59.999996z"
     fill="#deddda"
     id="path2"
     style="fill:#cccccc" />
  <rect
     fill="#d5d3cf"
     height="114"
     rx="56"
     width="112"
     x="8"
     y="6"
     id="rect4" />
  <path
     d="m124.00001 62a59.999999 59.999999 0 0 1 -59.999999 60 59.999999 59.999999 0 0 1 -60.000011-60 59.999999 59.999999 0 0 1 60.000011-60.0000048 59.999999 59.999999 0 0 1 59.999999 60.0000048z"
     fill="#f6f5f4"
     id="path6" />
  <circle
     style="fill:#336791;fill-opacity:1;stroke:none;stroke-width:17.0578;stroke-linecap:round;stroke-linejoin:round"
     id="path61"
     cx="64"
     cy="62"
     r="56" />
  <circle
     cx="64"
     cy="62"
     fill="none"
     r="54"
     id="circle8" />
  <path
     d="M 64.000098,5.9999983 A 55.999992,55.999992 0 0 0 8.000107,61.999988 55.999992,55.999992 0 0 0 8.043149,63.214257 55.999992,55.999992 0 0 1 64.000103,8.07407 55.999992,55.999992 0 0 1 119.95705,62.858785 55.999992,55.999992 0 0 0 120.00011,61.999988 55.999992,55.999992 0 0 0 64.000102,5.9999983 Z"
     opacity="0.1"
     id="path12"
     style="stroke-width:1.03704" />
  <path
     id="path169"
     style="color:#000000;font-style:normal;font-variant:normal;font-weight:normal;font-stretch:normal;font-size:medium;line-height:normal;font-family:sans-serif;font-variant-ligatures:normal;font-variant-position:normal;font-variant-caps:normal;font-variant-numeric:normal;font-variant-alternates:normal;font-variant-east-asian:normal;font-feature-settings:normal;font-variation-settings:normal;text-indent:0;text-align:start;text-decoration:none;text-decoration-line:none;text-decoration-style:solid;text-decoration-color:#000000;letter-spacing:normal;word-spacing:normal;text-transform:none;writing-mode:lr-tb;direction:ltr;text-orientation:mixed;dominant-baseline:auto;baseline-shift:baseline;text-anchor:start;white-space:normal;shape-padding:0;shape-margin:0;inline-size:0;clip-rule:nonzero;display:inline;overflow:visible;visibility:visible;opacity:1;isolation:auto;mix-blend-mode:normal;color-interpolation:sRGB;color-interpolation-filters:linearRGB;solid-color:#000000;solid-opacity:1;vector-effect:none;fill:#f6f5f4;fill-opacity:1;fill-rule:nonzero;stroke:none;stroke-width:2.08283;stroke-linecap:round;stroke-linejoin:round;stroke-miterlimit:4;stroke-dasharray:none;stroke-dashoffset:0;stroke-opacity:1;color-rendering:auto;image-rendering:auto;shape-rendering:auto;text-rendering:auto;enable-background:accumulate;stop-color:#000000;stop-opacity:1"
     d="m 78.057498,32.459029 c -2.600142,0.02415 -4.860354,0.412986 -6.42343,0.778352 -0.781538,0.182685 -1.388135,0.358967 -1.779669,0.484443 -0.195768,0.06274 -0.331806,0.109695 -0.431743,0.147968 -0.02498,0.0095 -0.0469,0.01952 -0.07703,0.03243 -0.01507,0.0064 -0.03133,0.01184 -0.0608,0.02635 -1.605171,-0.398576 -3.334433,-0.646299 -5.207256,-0.677004 -3.700272,-0.06068 -6.666984,0.911105 -8.967262,2.474916 -1.199842,-0.46709 -7.096171,-2.630382 -13.30698,-2.274246 -3.460033,0.198402 -7.013681,1.235217 -9.603727,3.978918 -2.590046,2.743701 -4.096986,7.092706 -3.774196,13.54616 0.07583,1.516587 0.594734,4.665636 1.469545,8.569979 0.87481,3.904343 2.106935,8.4895 3.620147,12.605652 1.513211,4.116152 3.253288,7.757472 5.432247,9.87534 1.089479,1.058934 2.373457,1.770997 3.792439,1.710753 1.418981,-0.06024 2.767133,-0.89407 3.980945,-2.353298 2.929463,-3.524304 5.357803,-6.084562 5.776831,-6.524779 1.264311,0.667728 2.675174,1.05848 4.159318,1.084423 0.0024,0.04129 -0.0083,0.08252 -0.01419,0.123645 -0.848438,0.998261 -1.309601,1.664365 -1.718861,1.990473 -0.476777,0.379905 -1.254799,0.693079 -3.480286,1.151311 -1.226617,0.252839 -2.036914,0.528695 -2.651262,1.029695 -0.307174,0.2505 -0.576118,0.598743 -0.674976,1.027667 -0.09886,0.428925 0.0053,0.868332 0.174318,1.181717 0.337998,0.626772 0.840672,0.945056 1.362115,1.230364 0.521444,0.285307 1.084747,0.49771 1.615486,0.630384 v -0.0021 c 1.137932,0.284751 3.044752,0.642801 5.178878,0.277693 1.580592,-0.270409 3.287349,-0.972289 4.807945,-2.353298 -0.0224,2.786378 -0.0063,5.497354 0.09324,7.817977 0.07305,1.701901 0.178536,3.212212 0.320259,4.445119 0.141722,1.232908 0.291857,2.153226 0.577683,2.868146 0.413701,1.034105 1.105168,2.717761 2.616803,3.991091 1.511635,1.27332 3.85674,2.01646 7.072056,1.32765 2.59951,-0.5573 4.527053,-1.41246 5.894395,-2.83369 1.36694,-1.420812 2.081646,-3.316372 2.493158,-5.701833 v -0.0021 c 0.48705,-2.822607 1.284813,-9.266522 1.653998,-12.723216 0.01257,0.0039 0.02387,0.01027 0.03649,0.01419 0.883693,0.274651 1.924093,0.363044 3.050572,0.350663 2.252957,-0.02476 4.789847,-0.456878 6.561264,-1.279011 1.996886,-0.927371 3.556081,-2.0511 4.34377,-3.239078 0.196925,-0.296994 0.36594,-0.611158 0.407419,-1.041857 0.04148,-0.430697 -0.176408,-1.023955 -0.567548,-1.321576 -0.782282,-0.595243 -1.53552,-0.443508 -2.564103,-0.231073 -4.087574,0.843718 -6.138979,0.523178 -7.03557,0.152021 -0.224149,-0.09279 -0.378328,-0.184983 -0.48647,-0.265531 4.303122,-6.547109 7.359033,-13.84369 8.977396,-20.109451 0.83391,-3.228616 1.289583,-6.179704 1.327658,-8.644977 0.03808,-2.46527 -0.281413,-4.468958 -1.354008,-5.839666 -4.769084,-6.093888 -11.41672,-7.55616 -16.617002,-7.507852 z m 0.02027,2.081687 c 4.805501,-0.04464 10.663056,1.22257 14.956924,6.709231 0.528072,0.674845 0.94456,2.293208 0.910104,4.52417 -0.03446,2.230964 -0.458105,5.048839 -1.260768,8.15648 -1.494427,5.785918 -4.30763,12.576775 -8.205126,18.708822 -0.105005,-0.15917 -0.216671,-0.31678 -0.332422,-0.474308 1.475483,-2.444279 1.749488,-4.932148 1.637782,-7.197728 -0.118741,-2.408277 -0.598146,-4.614114 -0.537143,-6.492346 0.08281,-2.596523 0.767097,-4.431193 0.670923,-7.159217 0.0022,-0.0086 0.0061,-0.0202 0.0081,-0.02837 0.0498,-0.207056 0.04095,-0.327303 0.03445,-0.447957 -0.01299,-0.241308 -0.05632,-0.463085 -0.121617,-0.731732 -0.130598,-0.537294 -0.35747,-1.227831 -0.6993,-2.049255 -0.683661,-1.642847 -1.819497,-3.789066 -3.510692,-5.951149 -2.056632,-2.62927 -4.96885,-5.278654 -8.839564,-6.986924 1.399349,-0.290284 3.224879,-0.560542 5.288334,-0.57971 z m -14.034657,0.794568 c 7.789953,0.127712 12.830197,4.07427 15.944052,8.055131 1.556927,1.990429 2.613225,3.989151 3.228944,5.468733 0.210777,0.5065 0.30176,0.835643 0.411472,1.19185 -3.589783,-0.337715 -6.197025,0.148609 -7.574742,1.724942 -1.57633,1.803579 -1.485261,4.354281 -0.869564,6.82274 0.615696,2.46846 1.802623,5.004984 2.892468,7.096381 0.544922,1.045698 1.066994,1.977945 1.479679,2.718151 0.412687,0.740206 0.729384,1.33501 0.796595,1.497922 0.629546,1.526309 1.432869,2.60899 2.063444,3.405289 0.438312,0.553508 0.560663,0.774843 0.723623,1.037803 -0.247818,0.06926 -0.420423,0.09967 -0.76619,0.255397 -0.590822,0.266087 -1.269308,0.755659 -1.710753,1.564811 -0.429206,0.786724 -0.627708,1.818764 -0.56552,3.160028 -0.135566,1.785509 -1.26506,11.206511 -1.82629,14.458292 -0.374887,2.174353 -0.959396,3.592289 -1.939799,4.611329 -0.980402,1.019037 -2.449373,1.731387 -4.83024,2.241817 -2.746063,0.58828 -4.246393,-9.6e-4 -5.294415,-0.88375 -1.048022,-0.882806 -1.628577,-2.179427 -2.024931,-3.170168 -0.11894,-0.297495 -0.308848,-1.177781 -0.441877,-2.335056 -0.133028,-1.157273 -0.238513,-2.626842 -0.310124,-4.295123 -0.143224,-3.336566 -0.157664,-7.469081 -0.04257,-11.584066 A 1.0414141,1.0414141 0 0 0 63.327594,78.00275 C 63.28261,77.693089 63.20966,77.390313 63.104628,77.106835 62.71349,76.051168 61.983339,75.127809 60.923621,74.688674 60.577068,74.54512 59.993286,74.29128 59.249354,74.356253 c -0.131289,0.01147 -0.265792,0.04751 -0.399311,0.08108 0.216011,-0.888696 0.581416,-1.934961 1.027668,-3.13773 v -0.0021 c 1.053863,-2.834335 3.912859,-6.589687 1.731023,-16.679837 -0.454662,-2.102101 -1.708741,-3.491224 -3.228945,-4.07824 -0.760103,-0.293507 -1.560188,-0.411081 -2.363433,-0.411472 -0.803244,-3.92e-4 -1.609743,0.116471 -2.387757,0.295935 -1.556026,0.358928 -3.011639,0.982794 -4.118779,1.599271 -0.0133,0.0074 -0.02328,0.01489 -0.03649,0.02229 0.145972,-1.875783 0.514164,-4.628961 1.589135,-7.477448 0.906692,-2.402572 2.283805,-4.74817 4.339718,-6.459915 2.055911,-1.711745 4.788949,-2.836047 8.640922,-2.772878 z m -20.462142,0.16621 c 3.862597,0.07832 7.600721,1.111622 9.634132,1.775615 -1.937725,1.900925 -3.228753,4.24511 -4.100536,6.555183 -1.967634,5.213887 -1.837241,10.358703 -1.834396,10.463157 v 0.0021 c -7e-6,9.93e-4 6e-6,0.003 0,0.004 2.1e-5,7.44e-4 0,0.03041 0,0.03041 a 1.0414141,1.0414141 0 0 0 0.004,0.06486 1.0414141,1.0414141 0 0 0 0.0021,0.02229 c 0.0058,0.688875 0.113589,1.784497 0.149996,3.403263 0.03808,1.693257 -0.0044,3.833471 -0.324314,6.121413 -0.549923,3.932451 1.016682,7.525051 3.640416,9.735479 -0.6807,0.719261 -2.860183,3.039042 -5.632916,6.374783 -0.98739,1.187027 -1.795721,1.574832 -2.466808,1.603324 -0.671086,0.0285 -1.409001,-0.301649 -2.253977,-1.122935 -1.689952,-1.642571 -3.46319,-5.112302 -4.929562,-9.101041 -1.466373,-3.98874 -2.681485,-8.503615 -3.541096,-12.340121 -0.859611,-3.836506 -1.363307,-7.069621 -1.420897,-8.221342 -0.30456,-6.08897 1.09116,-9.768618 3.208674,-12.011753 2.117514,-2.243136 5.076765,-3.150792 8.207154,-3.330292 0.55229,-0.03167 1.106251,-0.03957 1.658051,-0.02837 z m 38.376397,16.363632 c 0.560168,0.01044 1.20379,0.06948 1.889125,0.154049 -0.04208,2.045176 -0.598478,3.743312 -0.683085,6.386945 -0.07331,2.256999 0.433869,4.485811 0.541198,6.662611 0.08668,1.757906 -0.06221,3.449766 -0.875646,5.166716 -0.191577,-0.341175 -0.379725,-0.702825 -0.551333,-1.118881 -0.184973,-0.448353 -0.49015,-0.974497 -0.904023,-1.716833 -0.413874,-0.742336 -0.923685,-1.654988 -1.451302,-2.667477 -1.055233,-2.024977 -2.175224,-4.459552 -2.718151,-6.636261 -0.542926,-2.176708 -0.46111,-3.944496 0.417554,-4.949831 0.658998,-0.754001 1.959732,-1.325342 4.335663,-1.281038 z m -25.951143,0.354718 c 0.603095,2.71e-4 1.159256,0.08421 1.623593,0.263504 0.928675,0.358601 1.602902,0.999894 1.943853,2.576264 2.087335,9.653093 -0.38806,12.124292 -1.647917,15.514337 -0.415541,1.119969 -0.809557,2.18291 -1.076314,3.230971 -4.531135,0.01136 -8.418578,-4.263854 -7.67609,-9.573322 0.341055,-2.438783 0.384326,-4.690651 0.344583,-6.45789 -0.0363,-1.614089 -0.126167,-2.708246 -0.141888,-3.162053 0.02846,-0.02595 0.02811,-0.0313 0.06689,-0.06284 0.225484,-0.183391 0.607567,-0.442116 1.080369,-0.705382 0.945604,-0.52653 2.26163,-1.087879 3.573526,-1.390493 0.655952,-0.151305 1.306303,-0.233368 1.909398,-0.233097 z m 24.692403,0.634438 c -0.204116,-0.0052 -0.424779,0.0067 -0.652681,0.03851 -0.455784,0.0635 -0.85994,0.192581 -1.157393,0.358772 -0.148726,0.0831 -0.270725,0.17455 -0.360798,0.283773 -0.09007,0.109225 -0.149398,0.246368 -0.129725,0.391203 v 0.0021 c 0.01953,0.138605 0.09173,0.261386 0.194588,0.389176 0.102856,0.127791 0.240244,0.255022 0.405391,0.36688 0.330295,0.223714 0.776906,0.388546 1.266849,0.320259 0.490487,-0.068 0.905781,-0.349842 1.197932,-0.656735 0.146076,-0.153446 0.261448,-0.313477 0.340529,-0.4662 0.07476,-0.144381 0.115982,-0.279828 0.103376,-0.421608 -6.71e-4,-0.0076 0.0072,-0.0147 0.0061,-0.02229 v -0.0021 h -0.0021 c -0.02108,-0.143443 -0.113435,-0.260616 -0.229047,-0.340529 -0.116405,-0.08046 -0.259929,-0.135056 -0.425661,-0.174319 -0.165731,-0.03926 -0.353298,-0.06167 -0.557413,-0.06689 z m -24.556597,0.518901 c -0.214461,0.0052 -0.415711,0.03027 -0.595925,0.07297 -0.180215,0.0427 -0.34217,0.102213 -0.484443,0.200668 -0.04985,0.0345 -0.06185,0.11366 -0.105402,0.162157 h -0.156076 l -0.04054,0.297962 v 0.0021 c -0.02983,0.215933 0.03773,0.377414 0.125672,0.547279 0.08825,0.170462 0.212388,0.342378 0.368906,0.50674 0.313036,0.328722 0.758528,0.632144 1.301307,0.707408 0.541138,0.07479 1.029026,-0.104403 1.386439,-0.34661 0.178953,-0.12127 0.328865,-0.258273 0.443904,-0.401338 0.115039,-0.143064 0.204256,-0.28398 0.231073,-0.476334 0.02852,-0.204526 -0.05624,-0.39334 -0.16621,-0.52701 -0.109968,-0.13367 -0.249721,-0.233922 -0.411473,-0.324313 -0.323503,-0.180782 -0.74384,-0.313014 -1.218202,-0.379041 -0.236895,-0.03306 -0.464569,-0.04776 -0.679031,-0.04257 z m 28.33282,22.70193 c 0.281114,0.236749 0.48471,0.489163 0.938482,0.677004 1.482506,0.613704 3.916179,0.839066 8.172695,-0.02837 -0.627984,0.582074 -1.56296,1.303185 -2.837742,1.895206 -1.293904,0.600507 -3.728256,1.062687 -5.705886,1.084422 -0.988817,0.01087 -1.877807,-0.08998 -2.410054,-0.255397 -0.246064,-0.07648 -0.38449,-0.162084 -0.443903,-0.20675 -0.04422,-1.056139 0.109088,-1.715893 0.302016,-2.069523 0.20086,-0.368171 0.423494,-0.521256 0.737813,-0.662816 0.314318,-0.141559 0.690363,-0.209884 1.147259,-0.370933 0.02842,-0.01007 0.06919,-0.05187 0.09932,-0.06284 z m -25.045094,0.354718 c 0.164847,-0.01439 0.367751,0.04676 0.695247,0.182426 0.33585,0.139173 0.813263,0.639533 1.027667,1.218201 0.214405,0.57867 0.184571,1.120352 -0.075,1.483734 -1.510845,2.115522 -3.279368,2.929851 -4.980236,3.220837 -1.700869,0.290985 -3.327978,0.0038 -4.323501,-0.245263 -0.348901,-0.08722 -0.783465,-0.252273 -1.118881,-0.435795 -0.109683,-0.06002 -0.09466,-0.06675 -0.174319,-0.127698 0.245264,-0.130137 0.543386,-0.302979 1.384413,-0.476336 2.309261,-0.475481 3.465469,-0.851217 4.355932,-1.560758 0.890464,-0.70954 1.264923,-1.470913 2.345191,-2.677611 0.4588,-0.513462 0.698638,-0.56734 0.863484,-0.581737 z" />
</svg>
