<?xml version="1.0" encoding="UTF-8" standalone="no"?>
<svg
   height="128"
   viewBox="0 0 128 128"
   width="128"
   version="1.1"
   id="svg7018"
   xmlns="http://www.w3.org/2000/svg"
   xmlns:svg="http://www.w3.org/2000/svg">
  <defs
     id="defs7022" />
  <linearGradient
     id="a"
     gradientUnits="userSpaceOnUse"
     x1="64.000006"
     x2="64.000006"
     y1="11.436451"
     y2="118.999999">
    <stop
       offset="0"
       stop-color="#a563cf"
       id="stop7001" />
    <stop
       offset="1"
       stop-color="#612a89"
       id="stop7003" />
  </linearGradient>
  <path
     d="m124.00001 64.999998a59.999999 59.999999 0 0 1 -59.999999 60.000002 59.999999 59.999999 0 0 1 -60.000011-60.000002 59.999999 59.999999 0 0 1 60.000011-59.999996 59.999999 59.999999 0 0 1 59.999999 59.999996z"
     fill="#deddda"
     id="path7006" />
  <rect
     fill="#d5d3cf"
     height="114"
     rx="56"
     width="112"
     x="8"
     y="7"
     id="rect7008" />
  <path
     d="m124.00001 63a59.999999 59.999999 0 0 1 -59.999999 60 59.999999 59.999999 0 0 1 -60.000011-60 59.999999 59.999999 0 0 1 60.000011-60.0000048 59.999999 59.999999 0 0 1 59.999999 60.0000048z"
     fill="#f6f5f4"
     id="path7010" />
  <circle
     cx="64"
     cy="63"
     fill="url(#a)"
     r="56"
     id="circle7012" />
  <circle
     cx="64"
     cy="61.981819"
     fill="none"
     r="54.981819"
     id="circle7014" />
  <path
     d="m100.57617 26-23.753904 19.917969-1.851563 4.787109c-.3085-.115844-.616783-.193359-.886719-.193359-.616984 0-1.19546.232082-1.658203.695312-.925484.926458-.925484 2.430964 0 3.357422.462743.463231 1.080223.695313 1.697266.695313.617 0 1.234481-.232082 1.697265-.695313.694114-.694843.885614-1.736659.5-2.585937l4.783204-1.853516 19.896484-23.701172zm-23.238279 3.177734c-2.093523.042082-4.29272.319174-6.570313.837891-2.275089.50182-4.551084 1.236138-6.826172 2.201172-11.028711-4.51645-21.825129-4.015054-28.265625 2.431641-4.974442 4.97968-6.63212 12.661212-4.626953 21.578124.501307 2.27748 1.271826 4.555956 2.197266 6.794922h.001953c-3.856135 9.496281-4.050469 18.838184.037109 25.361328l2.044922-2.43164c-2.776453-5.056862-2.777045-11.890585-.347656-19.109375 1.928068 3.744491 4.395375 7.411634 7.326172 10.808594l1.966797-2.316407c-3.277819-3.898859-5.899472-8.068207-7.789063-12.314453 2.46791-5.558749 6.286205-11.154806 11.337891-16.210937 4.935964-4.941163 10.487768-8.801774 16.15625-11.34961 4.164679 1.852919 8.367985 4.438425 12.339843 7.796875l2.314454-1.96875c-3.470493-2.972401-7.172478-5.403486-10.835938-7.294921 1.23397-.424625 2.429594-.77275 3.625-1.042969 6.092746-1.389688 11.414807-.887375 15.501953 1.351562l2.429688-2.046875c-3.313917-2.123168-7.41183-3.168751-12.017578-3.076172zm-26.853516 3c3.04979.043441 6.323036.646242 9.677734 1.775391-5.090163 2.625014-10.063447 6.252536-14.498047 10.730469-4.511698 4.516451-8.097863 9.497427-10.68164 14.515625-.385615-1.196681-.77108-2.39358-1.041016-3.628907-1.735246-7.913564-.386866-14.5911 3.816406-18.798828l.001954-.001953c3.181352-3.184702 7.641626-4.664198 12.724609-4.591797zm44.154297 5.404297-2.00586 2.46875c1.696776 3.126763 2.352438 7.026583 1.966797 11.388672.886921 1.389689 1.696585 2.817344 2.390625 4.207031 1.465331-7.064285.656338-13.317043-2.351562-18.064453zm-30.658203 6.753907c-10.257426 0-18.625 8.376885-18.625 18.644531 0 3.589988 1.040686 6.948132 2.814453 9.804687l1.001953-.384765c.154243-1.003653.618885-1.931024 1.351563-2.703125.154256-.154404.307193-.269425.5-.423828-.925485-1.891582-1.464844-4.054002-1.464844-6.292969 0-7.952081 6.47816-14.4375 14.421875-14.4375 2.275088 0 4.395565.540353 6.285156 1.466797.115722-.154405.232476-.347535.386719-.501954.732677-.733435 1.658012-1.197142 2.699218-1.351562l.423829-1.001953c-2.853552-1.775736-6.208708-2.818359-9.794922-2.818359zm21.75 4.013671-2.00586 2.31836c3.316293 3.97604 5.938092 8.184051 7.789063 12.314453l-.03711.115234c-2.545009 5.674597-6.441475 11.232837-11.261718 16.058594-7.09533 7.102801-15.46214 12.006455-23.597656 13.859375-6.092747 1.389682-11.414812.887386-15.501954-1.351563l-2.429687 2.044922c3.200573 2.045939 7.095624 3.087891 11.453125 3.087891 2.275088 0 4.666856-.268628 7.134766-.847656 8.676378-1.968754 17.583335-7.141567 25.064453-14.63086 4.395974-4.400604 8.059977-9.38158 10.720703-14.515625 3.007901 8.955721 2.273609 17.332942-2.816406 22.427735-3.85613 3.8602-9.908628 5.289401-16.888672 4.169922-1.311112.810643-2.623054 1.54297-3.972657 2.199218 2.969273.772055 5.823645 1.197266 8.484375 1.197266 5.86145 0 10.911836-1.853372 14.498047-5.443359 9.331939-9.341768 6.208244-27.909197-6.632812-43.003907zm-5.900391 4.833985-1.003906.386718c-.154241 1.003669-.616932 1.929075-1.34961 2.701172-.154256.154421-.309146.271377-.501953.425782.925484 1.891577 1.466797 4.052048 1.466797 6.291015-.03862 7.990737-6.517221 14.4375-14.460937 14.4375-2.275089 0-4.395565-.540364-6.285157-1.466797-.115721.154404-.232475.34755-.386718.501954-.732678.733451-1.658012 1.195205-2.699219 1.349609l-.384766 1.003906c2.853552 1.775736 6.208708 2.818359 9.794922 2.818359 10.257426 0 18.625-8.376894 18.625-18.644531 0-3.589996-1.040685-6.94813-2.814453-9.804687zm-15.849609.841797c-4.935965 0-8.945313 4.016014-8.945313 8.957031 0 4.941164 4.009495 8.955078 8.945313 8.955078 4.935819 0 8.947265-4.01406 8.947265-8.955078 0-4.941163-4.011446-8.957031-8.947265-8.957031zm-10.103516 16.714843c-.616999 0-1.23448.232083-1.697265.695313-.694114.694845-.885613 1.736661-.5 2.585937l-4.783204 1.853516-19.896484 23.701172.423828.423828 23.675781-19.917969 1.890625-4.787109c.308486.115845.617282.193359.925782.193359.616985 0 1.195461-.232082 1.658203-.695312.925484-.926451.925484-2.430961 0-3.357422-.462742-.46323-1.080223-.695313-1.697266-.695313zm-2.160156 11.972657-2.351563 2.007812c2.082412 1.775736 4.202987 3.356952 6.439454 4.785156.809805-.308826 2.584183-1.003593 3.355468-1.466797-2.73783-1.582708-4.936828-3.203048-7.443359-5.326171z"
     fill="#f2f8f6"
     id="path7016" />
</svg>
