<?xml version="1.0" encoding="UTF-8" standalone="no"?>
<svg
   enable-background="new"
   height="128"
   viewBox="0 0 128 128"
   width="128"
   version="1.1"
   id="svg3931"
   sodipodi:docname="rawtherapee.svg"
   inkscape:version="1.2.2 (b0a8486541, 2022-12-01)"
   xmlns:inkscape="http://www.inkscape.org/namespaces/inkscape"
   xmlns:sodipodi="http://sodipodi.sourceforge.net/DTD/sodipodi-0.dtd"
   xmlns:xlink="http://www.w3.org/1999/xlink"
   xmlns="http://www.w3.org/2000/svg"
   xmlns:svg="http://www.w3.org/2000/svg">
  <defs
     id="defs3935">
    <clipPath
       clipPathUnits="userSpaceOnUse"
       id="clipPath3903">
      <path
         id="path3905"
         style="opacity:1;fill:#000000;stroke:none;stroke-width:0.200001;stroke-linecap:round;stroke-linejoin:miter;stroke-dasharray:none;stroke-dashoffset:4.69999;stroke-opacity:1;paint-order:stroke markers fill"
         d="m 212.45651,169.39675 a 95,95 0 0 0 -95,95 95,95 0 0 0 95,95 95,95 0 0 0 95,-95 95,95 0 0 0 -95,-95 z m 0,50 a 45,45 0 0 1 45,45 45,45 0 0 1 -45,45 45,45 0 0 1 -45,-45 45,45 0 0 1 45,-45 z" />
    </clipPath>
    <linearGradient
       inkscape:collect="always"
       xlink:href="#linearGradient4002-3"
       id="linearGradient10859"
       x1="100.42588"
       y1="39.737522"
       x2="138.96776"
       y2="78.363228"
       gradientUnits="userSpaceOnUse"
       gradientTransform="matrix(1.0820683,-0.28993932,0.28993932,1.0820683,5.6491262,200.79161)" />
    <linearGradient
       id="linearGradient4002-3"
       inkscape:collect="always">
      <stop
         id="stop4004-0"
         offset="0"
         style="stop-color:#5a1898;stop-opacity:1" />
      <stop
         id="stop4006-3"
         offset="1"
         style="stop-color:#971ec6;stop-opacity:1" />
    </linearGradient>
    <linearGradient
       inkscape:collect="always"
       xlink:href="#linearGradient4024-9"
       id="linearGradient10843"
       x1="76.875038"
       y1="125.39568"
       x2="129.98044"
       y2="111.2607"
       gradientUnits="userSpaceOnUse"
       gradientTransform="matrix(1.0820683,-0.28993932,0.28993932,1.0820683,5.6491262,200.79161)" />
    <linearGradient
       id="linearGradient4024-9">
      <stop
         id="stop4026-2"
         offset="0"
         style="stop-color:#053980;stop-opacity:1" />
      <stop
         id="stop4028-5"
         offset="1"
         style="stop-color:#0293e4;stop-opacity:1;" />
    </linearGradient>
    <linearGradient
       inkscape:collect="always"
       xlink:href="#linearGradient3954-7"
       id="linearGradient10827"
       x1="140.57898"
       y1="188.96413"
       x2="154.49196"
       y2="135.54562"
       gradientUnits="userSpaceOnUse"
       gradientTransform="matrix(1.0820683,-0.28993932,0.28993932,1.0820683,5.6491262,200.79161)" />
    <linearGradient
       id="linearGradient3954-7">
      <stop
         id="stop3956-7"
         offset="0"
         style="stop-color:#009a01;stop-opacity:1" />
      <stop
         id="stop3958-6"
         offset="1"
         style="stop-color:#01d901;stop-opacity:1;" />
    </linearGradient>
    <linearGradient
       inkscape:collect="always"
       xlink:href="#linearGradient3978-6"
       id="linearGradient7759"
       x1="249.71877"
       y1="79.683319"
       x2="197.60223"
       y2="93.622879"
       gradientUnits="userSpaceOnUse"
       gradientTransform="matrix(1.0820683,-0.28993932,0.28993932,1.0820683,5.6491262,200.79161)" />
    <linearGradient
       id="linearGradient3978-6">
      <stop
         style="stop-color:#f18e01;stop-opacity:1;"
         offset="0"
         id="stop4040-9" />
      <stop
         id="stop3982-2"
         offset="1"
         style="stop-color:#ffd02b;stop-opacity:1;" />
    </linearGradient>
    <linearGradient
       inkscape:collect="always"
       xlink:href="#linearGradient3970-4"
       id="linearGradient7767"
       x1="249.90581"
       y1="125.98007"
       x2="197.72298"
       y2="111.61357"
       gradientUnits="userSpaceOnUse"
       gradientTransform="matrix(1.0820683,-0.28993932,0.28993932,1.0820683,5.6491262,200.79161)" />
    <linearGradient
       id="linearGradient3970-4">
      <stop
         id="stop3972-8"
         offset="0"
         style="stop-color:#f8bc00;stop-opacity:1;" />
      <stop
         id="stop3974-1"
         offset="1"
         style="stop-color:#ffe309;stop-opacity:1;" />
    </linearGradient>
    <linearGradient
       inkscape:collect="always"
       xlink:href="#linearGradient3962-8"
       id="linearGradient10819"
       x1="186.45189"
       y1="188.78058"
       x2="172.53987"
       y2="136.40414"
       gradientUnits="userSpaceOnUse"
       gradientTransform="matrix(1.0820683,-0.28993932,0.28993932,1.0820683,5.6491262,200.79161)" />
    <linearGradient
       id="linearGradient3962-8">
      <stop
         id="stop3964-8"
         offset="0"
         style="stop-color:#38c102;stop-opacity:1" />
      <stop
         id="stop3966-8"
         offset="1"
         style="stop-color:#bced02;stop-opacity:1;" />
    </linearGradient>
    <linearGradient
       inkscape:collect="always"
       xlink:href="#linearGradient3946-8"
       id="linearGradient10835"
       x1="99.718773"
       y1="165.33376"
       x2="138.70259"
       y2="126.9732"
       gradientUnits="userSpaceOnUse"
       gradientTransform="matrix(1.0820683,-0.28993932,0.28993932,1.0820683,5.6491262,200.79161)" />
    <linearGradient
       id="linearGradient3946-8">
      <stop
         id="stop3948-9"
         offset="0"
         style="stop-color:#0193be;stop-opacity:1;" />
      <stop
         id="stop3950-3"
         offset="1"
         style="stop-color:#01d4ed;stop-opacity:1;" />
    </linearGradient>
    <linearGradient
       inkscape:collect="always"
       xlink:href="#linearGradient4018-0"
       id="linearGradient10851"
       x1="77.518173"
       y1="79.568878"
       x2="130.19432"
       y2="93.55809"
       gradientUnits="userSpaceOnUse"
       gradientTransform="matrix(1.0820683,-0.28993932,0.28993932,1.0820683,5.6491262,200.79161)" />
    <linearGradient
       id="linearGradient4018-0"
       inkscape:collect="always">
      <stop
         id="stop4020-5"
         offset="0"
         style="stop-color:#151b92;stop-opacity:1" />
      <stop
         id="stop4022-9"
         offset="1"
         style="stop-color:#1526c3;stop-opacity:1" />
    </linearGradient>
    <linearGradient
       inkscape:collect="always"
       xlink:href="#linearGradient3994-4"
       id="linearGradient10867"
       x1="140.49059"
       y1="16.437004"
       x2="154.79814"
       y2="69.879189"
       gradientUnits="userSpaceOnUse"
       gradientTransform="matrix(1.0820683,-0.28993932,0.28993932,1.0820683,5.6491262,200.79161)" />
    <linearGradient
       id="linearGradient3994-4"
       inkscape:collect="always">
      <stop
         id="stop3996-7"
         offset="0"
         style="stop-color:#d91566;stop-opacity:1" />
      <stop
         id="stop3998-7"
         offset="1"
         style="stop-color:#fc12aa;stop-opacity:1" />
    </linearGradient>
    <linearGradient
       inkscape:collect="always"
       xlink:href="#linearGradient3986-8"
       id="linearGradient7477"
       x1="226.75093"
       y1="39.7075"
       x2="188.64473"
       y2="77.343597"
       gradientUnits="userSpaceOnUse"
       gradientTransform="matrix(1.0820683,-0.28993932,0.28993932,1.0820683,5.6491262,200.79161)" />
    <linearGradient
       id="linearGradient3986-8">
      <stop
         id="stop3988-0"
         offset="0"
         style="stop-color:#fd4c0b;stop-opacity:1" />
      <stop
         id="stop3990-2"
         offset="1"
         style="stop-color:#feab27;stop-opacity:1;" />
    </linearGradient>
  </defs>
  <sodipodi:namedview
     id="namedview3933"
     pagecolor="#ffffff"
     bordercolor="#999999"
     borderopacity="1"
     inkscape:showpageshadow="0"
     inkscape:pageopacity="0"
     inkscape:pagecheckerboard="0"
     inkscape:deskcolor="#d1d1d1"
     showgrid="false"
     inkscape:zoom="1"
     inkscape:cx="64"
     inkscape:cy="64.5"
     inkscape:current-layer="svg3931" />
  <path
     id="path3923"
     style="fill:#0d0d0d;fill-opacity:1;stroke-width:0.999997"
     d="M 63.999998,2.9999999 A 60.999997,60.999997 0 0 0 3,63.999998 60.999997,60.999997 0 0 0 63.999998,125 60.999997,60.999997 0 0 0 125,63.999998 60.999997,60.999997 0 0 0 63.999998,2.9999999 Z m 0,35.0749991 A 25.924999,25.924999 0 0 1 89.924997,63.999998 25.924999,25.924999 0 0 1 63.999998,89.924997 25.924999,25.924999 0 0 1 38.074999,63.999998 25.924999,25.924999 0 0 1 63.999998,38.074999 Z" />
  <circle
     cx="64"
     cy="64"
     fill="none"
     r="54"
     id="circle3925" />
  <g
     id="g3829"
     clip-path="url(#clipPath3903)"
     style="stroke-width:1.61017;enable-background:new"
     transform="matrix(0.62105354,0,0,0.62105354,-67.946781,-100.20454)">
    <path
       id="path4850"
       style="fill:url(#linearGradient10859);fill-opacity:1;stroke-width:1.09827;stroke-linecap:round;stroke-linejoin:round"
       d="m 145.03906,195.64648 c -1.20755,0.0106 -1.79341,1.20929 -2.64669,1.86344 -2.55462,2.32202 -4.66456,5.07527 -6.81425,7.76352 -6.93805,9.04445 -12.32318,19.30537 -15.66688,30.20879 -0.33773,1.312 -0.67892,2.63062 -0.92296,3.96113 0.053,0.91151 0.60791,1.83971 1.38086,2.33984 4.88328,1.33618 9.79994,2.62694 14.69545,3.94793 11.21805,3.00564 22.43611,6.01128 33.65416,9.01692 0.98687,-0.0936 2.07158,-0.6101 2.51758,-1.54883 1.27491,-4.84876 3.54588,-9.54961 6.40625,-13.57227 1.38654,-1.95961 2.96723,-3.77226 4.63086,-5.5 0.39781,-0.95506 0.4648,-2.26206 -0.29102,-3.07422 -4.48285,-4.38262 -8.87833,-8.86398 -13.32757,-13.2846 -7.26906,-7.26906 -14.53813,-14.53813 -21.80719,-21.80719 -0.57342,-0.31687 -1.17017,-0.3238 -1.8086,-0.31446 z" />
    <path
       id="path4844"
       style="fill:url(#linearGradient10843);fill-opacity:1;stroke-width:1.09827;stroke-linecap:round;stroke-linejoin:round"
       d="m 168.51367,274.08789 c -16.10206,4.34063 -32.22841,8.63872 -48.33984,12.96289 -1.16495,0.43505 -1.79344,1.86587 -1.2517,3.00285 3.6769,13.31551 10.17218,25.87232 19.07239,36.44745 1.97724,2.26991 4.05211,4.47305 6.2682,6.50389 0.99366,0.62657 2.35939,0.33718 3.0334,-0.61945 11.64478,-11.64478 23.28956,-23.28956 34.93435,-34.93435 0.42388,-0.94645 0.53588,-2.25618 -0.20508,-3.08984 -3.55901,-3.50946 -6.42244,-7.71459 -8.52734,-12.24414 -0.58778,-1.28993 -1.25048,-2.91765 -1.68946,-4.26367 -0.36049,-0.86812 -0.44108,-1.88413 -0.95334,-2.66474 -0.55697,-0.62973 -1.46745,-1.1606 -2.34158,-1.10089 z" />
    <path
       id="path4838"
       style="fill:url(#linearGradient10827);fill-opacity:1;stroke-width:1.09827;stroke-linecap:round;stroke-linejoin:round"
       d="m 200.59375,305.78516 c -0.77517,0.43379 -1.71465,0.89513 -1.80764,1.89205 -4.26529,15.91814 -8.53058,31.83629 -12.79588,47.75443 0.10563,0.9355 0.55818,1.93696 1.39649,2.43555 4.61588,1.32564 9.32923,2.40724 14.1197,2.89059 12.01914,1.37016 24.29945,0.46175 35.98186,-2.66598 1.01224,-0.34119 1.72746,-1.3898 1.44781,-2.46228 -0.32676,-1.59173 -0.84837,-3.14019 -1.22767,-4.72241 -3.90411,-14.56995 -7.80822,-29.1399 -11.71233,-43.70984 -0.60559,-0.83457 -1.67038,-1.58429 -2.75781,-1.375 -3.72128,0.9988 -7.49628,1.39723 -11.3714,1.34334 -3.55374,-0.0488 -7.13691,-0.6099 -10.52508,-1.49373 -0.24935,0.0378 -0.4987,0.0755 -0.74805,0.11328 z" />
    <path
       id="path4832"
       style="fill:#fffb00;fill-opacity:1;stroke-width:1.09827;stroke-linecap:round;stroke-linejoin:round"
       d="m 255.44922,274.13672 c -0.79324,0.40838 -1.745,0.85207 -1.85679,1.85215 -1.98696,7.01357 -5.79106,13.48287 -10.93012,18.65053 -0.42071,0.90997 -0.47101,2.14452 0.15996,2.9856 6.86765,6.78581 13.66537,13.65351 20.50605,20.4709 4.91205,4.91205 9.82409,9.82409 14.73613,14.73613 0.94671,0.42575 2.26003,0.53242 3.0918,-0.20898 1.81798,-1.78332 3.70312,-3.51814 5.28104,-5.53012 8.3347,-9.81203 14.69211,-21.31141 18.51941,-33.60522 0.34541,-1.38581 0.71476,-2.78836 0.97959,-4.18003 -0.10461,-0.89031 -0.60819,-1.78951 -1.37379,-2.28229 -2.17024,-0.64436 -4.3947,-1.17606 -6.58359,-1.78568 -13.92787,-3.7316 -27.85573,-7.46319 -41.7836,-11.19479 -0.2487,0.0306 -0.49739,0.0612 -0.74609,0.0918 z" />
    <path
       id="path4826"
       style="fill:url(#linearGradient7759);fill-opacity:1;stroke-width:1.09827;stroke-linecap:round;stroke-linejoin:round"
       d="m 279.32422,195.2832 c -1.35709,0.33081 -2.09006,1.66946 -3.1049,2.52092 -11.15579,11.15579 -22.31158,22.31158 -33.46737,33.46736 -0.42444,0.9383 -0.53638,2.23673 0.18555,3.07227 5.16689,5.1416 8.87539,11.69703 10.82821,18.71023 0.28751,0.91857 1.29391,1.4158 2.17374,1.64133 0.9516,0.0544 1.82947,-0.46265 2.76016,-0.61818 15.34623,-4.11165 30.69245,-8.22329 46.03867,-12.33494 1.16472,-0.43588 1.79696,-1.86701 1.25156,-3.00477 -4.07379,-14.82332 -11.70643,-28.6538 -22.12505,-39.96166 -0.98796,-1.01184 -1.8955,-2.11931 -2.9882,-3.01676 -0.45102,-0.30653 -1.00005,-0.51825 -1.55237,-0.4758 z" />
    <path
       id="path2481"
       style="fill:#ff0b0d;fill-opacity:1;stroke-width:1.09827;stroke-linecap:round;stroke-linejoin:round"
       d="m 210.36914,167.42969 c -6.07771,0.15572 -12.1883,0.8336 -18.15509,2.1278 -1.71152,0.40777 -3.46144,0.71455 -5.13007,1.26673 -1.02543,0.54322 -1.47868,1.84906 -0.99462,2.90697 4.2749,15.95549 8.5498,31.91098 12.8247,47.86647 0.5798,0.80556 1.57083,1.49915 2.61133,1.40234 7.18792,-1.95478 14.8856,-1.87054 22.08008,0.0234 0.98787,-0.12618 2.07142,-0.67893 2.47461,-1.64649 2.72952,-10.39427 5.55767,-20.76891 8.32518,-31.15563 1.51938,-5.71543 3.08559,-11.4227 4.57575,-17.14324 0.16004,-1.21974 -0.78789,-2.41008 -2.02136,-2.50707 -8.65955,-2.28472 -17.63933,-3.31056 -26.59051,-3.14132 z" />
    <path
       id="path4829"
       style="fill:url(#linearGradient7767);fill-opacity:1;stroke-width:1.09827;stroke-linecap:round;stroke-linejoin:round"
       d="m 304.01022,288.92925 a 95.000518,95.000518 0 0 0 2.13079,-8.77758 95.000518,95.000518 0 0 0 1.28824,-13.4944 95.000518,95.000518 0 0 0 -0.64438,-13.53829 95.000518,95.000518 0 0 0 -2.56552,-13.31119 l -48.4437,12.98044 a 44.847109,44.847109 0 0 1 -0.0993,23.19002 z" />
    <path
       id="path4835"
       style="fill:url(#linearGradient10819);fill-opacity:1;stroke-width:1.09827;stroke-linecap:round;stroke-linejoin:round"
       d="m 237.0431,356.16044 a 95.000518,95.000518 0 0 0 12.81061,-4.43378 95.000518,95.000518 0 0 0 12.04669,-6.2111 95.000518,95.000518 0 0 0 11.04236,-7.86285 95.000518,95.000518 0 0 0 6.53622,-6.2341 l -35.3828,-35.3828 a 44.847109,44.847109 0 0 1 -20.03352,11.68095 z" />
    <path
       id="path4841"
       style="fill:url(#linearGradient10835);fill-opacity:1;stroke-width:1.09827;stroke-linecap:round;stroke-linejoin:round"
       d="m 145.43438,331.41952 a 95.000518,95.000518 0 0 0 3.11953,3.27311 95.000518,95.000518 0 0 0 10.65321,8.37835 95.000518,95.000518 0 0 0 11.73978,6.77797 95.000518,95.000518 0 0 0 12.58248,5.03677 95.000518,95.000518 0 0 0 4.39436,1.06504 l 12.951,-48.33379 a 44.847109,44.847109 0 0 1 -20.05757,-11.58025 z" />
    <path
       id="path4847"
       style="fill:url(#linearGradient10851);fill-opacity:1;stroke-width:1.09827;stroke-linecap:round;stroke-linejoin:round"
       d="m 120.90223,239.86428 a 95.000518,95.000518 0 0 0 -2.13078,8.77758 95.000518,95.000518 0 0 0 -1.28824,13.4944 95.000518,95.000518 0 0 0 0.64437,13.53829 95.000518,95.000518 0 0 0 2.56496,13.3091 l 48.44369,-12.98045 a 44.847109,44.847109 0 0 1 0.0998,-23.18792 z" />
    <path
       id="path2377"
       style="fill:url(#linearGradient10867);fill-opacity:1;stroke-width:1.09827;stroke-linecap:round;stroke-linejoin:round"
       d="m 187.86724,172.63365 a 95.000518,95.000518 0 0 0 -12.80848,4.43322 95.000518,95.000518 0 0 0 -12.04671,6.2111 95.000518,95.000518 0 0 0 -11.04236,7.86285 95.000518,95.000518 0 0 0 -6.53622,6.2341 l 35.38279,35.3828 a 44.847109,44.847109 0 0 1 20.03143,-11.68038 z" />
    <path
       id="path4823"
       style="fill:url(#linearGradient7477);fill-opacity:1;stroke-width:1.09827;stroke-linecap:round;stroke-linejoin:round"
       d="m 279.61378,197.23799 a 95.000518,95.000518 0 0 0 -1.08967,-1.10789 95.000518,95.000518 0 0 0 -3.43072,-3.15801 95.000518,95.000518 0 0 0 -3.5802,-2.98885 95.000518,95.000518 0 0 0 -3.72206,-2.80814 95.000518,95.000518 0 0 0 -3.85529,-2.62066 95.000518,95.000518 0 0 0 -3.97895,-2.43123 95.000518,95.000518 0 0 0 -4.09499,-2.23027 95.000518,95.000518 0 0 0 -4.19932,-2.02788 95.000518,95.000518 0 0 0 -4.29295,-1.81932 95.000518,95.000518 0 0 0 -4.37696,-1.6088 95.000518,95.000518 0 0 0 -4.44972,-1.38997 95.000518,95.000518 0 0 0 -1.50429,-0.38973 l -12.97906,48.43192 a 44.847109,44.847109 0 0 1 20.09776,11.60345 z" />
  </g>
  <circle
     style="opacity:0.3;fill:none;fill-opacity:1;stroke:#ffffff;stroke-width:4;stroke-linecap:round;stroke-linejoin:round;stroke-miterlimit:4;stroke-dasharray:none;stroke-opacity:1;enable-background:new"
     id="circle372"
     cx="45.254833"
     cy="78.383675"
     transform="rotate(-15)"
     r="56.988728" />
</svg>
