<?xml version="1.0" encoding="UTF-8" standalone="no"?>
<svg
   xmlns:dc="http://purl.org/dc/elements/1.1/"
   xmlns:cc="http://creativecommons.org/ns#"
   xmlns:rdf="http://www.w3.org/1999/02/22-rdf-syntax-ns#"
   xmlns:svg="http://www.w3.org/2000/svg"
   xmlns="http://www.w3.org/2000/svg"
   xmlns:xlink="http://www.w3.org/1999/xlink"
   xmlns:sodipodi="http://sodipodi.sourceforge.net/DTD/sodipodi-0.dtd"
   xmlns:inkscape="http://www.inkscape.org/namespaces/inkscape"
   inkscape:version="1.0 (4035a4fb49, 2020-05-01)"
   sodipodi:docname="xnconvert.svg"
   id="svg49"
   version="1.1"
   width="128"
   viewBox="0 0 128 128"
   height="128">
  <metadata
     id="metadata55">
    <rdf:RDF>
      <cc:Work
         rdf:about="">
        <dc:format>image/svg+xml</dc:format>
        <dc:type
           rdf:resource="http://purl.org/dc/dcmitype/StillImage" />
      </cc:Work>
    </rdf:RDF>
  </metadata>
  <defs
     id="defs53">
    <linearGradient
       id="linearGradient1048"
       inkscape:collect="always">
      <stop
         id="stop1044"
         offset="0"
         style="stop-color:#73cde2;stop-opacity:1;" />
      <stop
         id="stop1046"
         offset="1"
         style="stop-color:#73cde2;stop-opacity:0;" />
    </linearGradient>
    <linearGradient
       id="linearGradient977"
       inkscape:collect="always">
      <stop
         id="stop973"
         offset="0"
         style="stop-color:#fba460;stop-opacity:1" />
      <stop
         style="stop-color:#f78c5f;stop-opacity:1"
         offset="0.35453472"
         id="stop981" />
      <stop
         id="stop975"
         offset="1"
         style="stop-color:#f4725b;stop-opacity:1" />
    </linearGradient>
    <linearGradient
       id="linearGradient945">
      <stop
         style="stop-color:#d5604d;stop-opacity:1"
         offset="0"
         stop-color="#d26400"
         id="stop941" />
      <stop
         id="stop947"
         stop-color="#d26400"
         offset="0.19315207"
         style="stop-color:#f07d59;stop-opacity:1" />
      <stop
         style="stop-color:#f27f5a;stop-opacity:1"
         offset="0.67978418"
         stop-color="#d26400"
         id="stop949" />
      <stop
         style="stop-color:#f6a586;stop-opacity:1"
         offset="1"
         stop-color="#eeb11c"
         id="stop943" />
    </linearGradient>
    <linearGradient
       id="linearGradient931"
       inkscape:collect="always">
      <stop
         id="stop927"
         offset="0"
         style="stop-color:#0b3c72;stop-opacity:1" />
      <stop
         style="stop-color:#73cfe1;stop-opacity:0.86666667"
         offset="0.22912759"
         id="stop937" />
      <stop
         style="stop-color:#195182;stop-opacity:0.98039216;"
         offset="0.67243814"
         id="stop935" />
      <stop
         id="stop929"
         offset="1"
         style="stop-color:#0b3c72;stop-opacity:1" />
    </linearGradient>
    <radialGradient
       gradientUnits="userSpaceOnUse"
       gradientTransform="matrix(1.4757271,0.01276653,-0.00977911,1.1304007,-26.911186,-9.0179255)"
       r="34.059605"
       fy="65.187698"
       fx="60.869488"
       cy="65.187698"
       cx="60.869488"
       id="radialGradient933"
       xlink:href="#linearGradient931"
       inkscape:collect="always" />
    <radialGradient
       r="24.955078"
       fy="69.862617"
       fx="64.097786"
       cy="69.862617"
       cx="64.097786"
       gradientTransform="matrix(1.5616979,-0.00698388,0.00625307,1.398281,-36.014007,-27.476245)"
       gradientUnits="userSpaceOnUse"
       id="radialGradient983"
       xlink:href="#linearGradient977"
       inkscape:collect="always" />
    <filter
       height="1.3172431"
       y="-0.15862156"
       width="1.2034011"
       x="-0.10170054"
       id="filter1003"
       style="color-interpolation-filters:sRGB"
       inkscape:collect="always">
      <feGaussianBlur
         id="feGaussianBlur1005"
         stdDeviation="2.1149541"
         inkscape:collect="always" />
    </filter>
    <filter
       height="1.1162304"
       y="-0.05811521"
       width="1.1132846"
       x="-0.05664229"
       id="filter1030"
       style="color-interpolation-filters:sRGB"
       inkscape:collect="always">
      <feGaussianBlur
         id="feGaussianBlur1032"
         stdDeviation="1.6076767"
         inkscape:collect="always" />
    </filter>
    <radialGradient
       gradientUnits="userSpaceOnUse"
       gradientTransform="matrix(1.4357501,0.00841862,-0.00776002,1.3234303,-22.227769,-15.932244)"
       r="34.059605"
       fy="54.043388"
       fx="61.415016"
       cy="54.043388"
       cx="61.415016"
       id="radialGradient1050"
       xlink:href="#linearGradient1048"
       inkscape:collect="always" />
  </defs>
  <sodipodi:namedview
     inkscape:current-layer="svg49"
     inkscape:cy="64"
     inkscape:cx="64"
     inkscape:zoom="1"
     inkscape:snap-global="false"
     inkscape:bbox-nodes="true"
     inkscape:bbox-paths="true"
     inkscape:snap-bbox="true"
     inkscape:guide-bbox="true"
     showguides="true"
     showgrid="false"
     id="namedview51"
     inkscape:window-height="480"
     inkscape:window-width="640"
     inkscape:pageshadow="2"
     inkscape:pageopacity="0"
     guidetolerance="10"
     gridtolerance="10"
     objecttolerance="10"
     borderopacity="1"
     bordercolor="#666666"
     pagecolor="#ffffff" />
  <linearGradient
     id="linearGradient3420">
    <stop
       style="stop-color:#d20700;stop-opacity:1"
       id="stop2"
       stop-color="#d26400"
       offset="0" />
    <stop
       style="stop-color:#ed241d;stop-opacity:1"
       id="stop4"
       stop-color="#eeb11c"
       offset="1" />
  </linearGradient>
  <linearGradient
     gradientTransform="matrix(0.99978555,0,0,0.96913477,-0.09467417,3.2874296)"
     y2="101.16807"
     y1="43.878544"
     xlink:href="#linearGradient945"
     x2="60.36158"
     x1="51.826881"
     gradientUnits="userSpaceOnUse"
     id="linearGradient3422" />
  <radialGradient
     spreadMethod="pad"
     fr="0"
     fy="63.028904"
     fx="64"
     r="60"
     gradientUnits="userSpaceOnUse"
     gradientTransform="matrix(1,0,0,0.91618482,0,5.282779)"
     cy="63.028904"
     cx="64"
     id="radialGradient3468">
    <stop
       style="stop-color:#dc5654;stop-opacity:1"
       id="stop8"
       stop-color="#aa0200"
       offset="0" />
    <stop
       style="stop-color:#fba25f;stop-opacity:1"
       id="stop10"
       stop-color="#f2a100"
       offset="0.35149401" />
    <stop
       style="stop-color:#f8915c;stop-opacity:1"
       id="stop12"
       stop-color="#f29e00"
       offset="0.73340553" />
    <stop
       style="stop-color:#ef675a;stop-opacity:1"
       id="stop14"
       stop-color="#ed8300"
       offset="1" />
  </radialGradient>
  <radialGradient
     r="28.418552"
     gradientUnits="userSpaceOnUse"
     gradientTransform="matrix(0.99232365,0,0,1.0823802,0.66581052,-6.4422776)"
     cy="74.750862"
     cx="58.316109"
     id="radialGradient3631-3">
    <stop
       style="stop-color:#9d120d;stop-opacity:1"
       id="stop17"
       stop-color="#aa0200"
       offset="0" />
    <stop
       style="stop-color:#ac130e;stop-opacity:1"
       id="stop19"
       stop-color="#ba2900"
       offset=".42110804" />
    <stop
       style="stop-color:#c71610;stop-opacity:1"
       id="stop21"
       stop-color="#d76800"
       offset=".84039426" />
    <stop
       style="stop-color:#ba150f;stop-opacity:1"
       id="stop23"
       stop-color="#c93c00"
       offset="1" />
  </radialGradient>
  <linearGradient
     y2="72.55394"
     y1="65.75341"
     x2="63.638779"
     x1="55.302193"
     gradientUnits="userSpaceOnUse"
     id="linearGradient3670">
    <stop
       id="stop26"
       stop-color="#fff"
       offset="0" />
    <stop
       id="stop28"
       stop-opacity=".914286"
       offset="1" />
  </linearGradient>
  <filter
     y="-.064713"
     x="-.055927"
     width="1.111854"
     height="1.129426"
     color-interpolation-filters="sRGB"
     id="filter3688">
    <feGaussianBlur
       id="feGaussianBlur31"
       stdDeviation=".57007295" />
  </filter>
  <linearGradient
     gradientTransform="matrix(0.92394468,0,0,0.90279518,4.0065619,6.4626395)"
     y2="104.21265"
     y1="39.965866"
     xlink:href="#linearGradient3420"
     x2="87.550301"
     x1="42.614201"
     gradientUnits="userSpaceOnUse"
     id="linearGradient845" />
  <path
     sodipodi:nodetypes="ccsssssscsscssscscccscsssscccssscssssssssssssscssssscc"
     style="fill:url(#radialGradient3468);fill-opacity:1"
     id="path41"
     fill="url(#radialGradient3468)"
     d="m 53.783844,116.19721 c -0.645869,-0.2471 -2.261459,-0.7989 -3.590206,-1.22624 -3.050757,-0.9811 -8.557695,-3.6549 -11.23395,-5.4544 -3.488731,-2.34581 -5.244949,-3.992 -19.496129,-18.274649 C 4.5287226,76.274124 4.7910216,76.580864 4.1354666,73.316619 c -0.360944,-1.797254 0.01072,-4.095899 0.9798,-6.059562 0.589676,-1.194892 1.877587,-2.625831 7.0769064,-7.862867 3.49582,-3.52118 6.565919,-6.65054 6.822428,-6.954135 l 0.46639,-0.551991 -5.467423,-5.487768 C 9.501354,41.871289 8.4350266,40.66948 7.9101196,39.521364 6.2861416,35.969295 6.8221396,32.202892 9.404507,29.020411 c 1.161861,-1.431854 4.254051,-2.942535 6.237719,-3.047418 1.763255,-0.09323 3.745617,0.301466 5.198194,1.034978 0.698853,0.352902 3.129206,2.579263 6.804422,6.233295 l 5.717273,5.68431 3.46316,-2.831497 c 1.904744,-1.557323 3.495518,-2.971054 3.535056,-3.141622 0.03956,-0.170568 -0.437951,-2.145662 -1.061073,-4.389098 -2.651182,-9.545052 -2.806441,-10.245774 -2.643542,-11.930661 0.224536,-2.322294 1.335021,-4.553689 3.061864,-6.152437 1.961381,-1.8158969 3.539049,-2.4024139 6.494907,-2.4145659 2.111197,-0.0087 2.429689,0.0543 3.876347,0.766488 1.743384,0.8582634 3.074426,2.0469649 4.130093,3.6884189 0.796032,1.237753 0.968905,1.777046 2.634633,8.219132 0.669968,2.591056 1.324111,5.048495 1.453657,5.460975 l 0.235528,0.749964 4.990569,-0.03146 4.99057,-0.03146 0.3058,-0.718507 c 0.168193,-0.395173 1.19625,-3.382035 2.284569,-6.637465 2.120612,-6.34325 2.814551,-7.7225 4.736553,-9.41432 1.697474,-1.4941749 3.371348,-2.0577179 6.117649,-2.0596249 2.110518,-0.0014 2.432958,0.06349 3.899087,0.785537 1.990364,0.9802184 3.610439,2.6083469 4.620053,4.6430119 0.701186,1.413103 0.776411,1.775905 0.776411,3.74465 0,2.11407 -0.06334,2.36248 -2.096484,8.21971 -1.153065,3.321867 -2.131506,6.252318 -2.174313,6.512114 -0.05753,0.349156 0.335698,0.758726 1.50769,1.570337 0.872028,0.603889 2.448405,1.81034 3.50306,2.680998 1.054648,0.87066 2.036033,1.65451 2.180851,1.741885 0.14802,0.0893 2.475335,-2.045656 5.314988,-4.875691 6.321172,-6.299752 7.352642,-6.977472 10.849842,-7.128763 6.42016,-0.277738 11.06782,5.590923 9.44482,11.926095 -0.2178,0.850161 -0.63209,1.935144 -0.92065,2.411073 -0.28856,0.475929 -2.83771,3.206685 -5.66478,6.068351 l -5.14011,5.203026 6.65069,6.634901 c 3.65788,3.649194 7.02769,7.142574 7.48845,7.763062 2.17014,2.9224 2.39847,7.635693 0.52468,10.830561 -0.64453,1.098938 -26.712281,27.287776 -29.477335,29.614266 -4.908875,4.13027 -11.451043,7.63736 -17.090796,9.16193 -1.535156,0.415 -0.875393,0.29762 -3.083652,0.74803 -7.705341,1.05122 -11.014378,1.25174 -19.297113,-0.11571 z" />
  <ellipse
     ry="33.456635"
     rx="34.386986"
     cy="73.046921"
     cx="63.901844"
     id="path71"
     style="fill:#ffffff;stroke-width:3.86638;stroke-linecap:round;stroke-linejoin:round" />
  <path
     d="M 63.742188 37.943359 C 60.189025 37.943359 59.121792 38.022827 57.158203 38.433594 C 50.134258 39.902947 44.647937 42.823192 39.507812 47.832031 C 36.347405 50.911716 34.430807 53.528934 32.625 57.226562 C 27.053806 68.634312 28.013382 81.573667 35.220703 92.220703 C 37.105636 95.005231 41.490531 99.332401 44.322266 101.20312 C 48.970341 104.27379 54.119434 106.20869 59.613281 106.94727 C 62.008201 107.26923 67.896854 107.03133 70.439453 106.50977 C 74.924646 105.58973 79.263765 103.77873 83.162109 101.20312 C 85.993933 99.332177 90.3789 95.004996 92.263672 92.220703 C 100.50259 80.049741 100.50259 64.924873 92.263672 52.753906 C 90.3789 49.969614 85.993933 45.64244 83.162109 43.771484 C 79.243168 41.182283 74.969271 39.404485 70.328125 38.433594 C 68.364534 38.022817 67.29535 37.943359 63.742188 37.943359 z M 63.236328 42.283203 C 66.378184 42.312849 69.643151 42.76447 72.501953 43.605469 C 75.070656 44.361127 79.673866 46.679485 81.966797 48.373047 C 87.918465 52.768961 92.110653 59.229703 93.802734 66.615234 C 94.496734 69.6444 94.550019 75.918817 93.90625 78.800781 C 91.178814 91.010751 81.917967 100.03029 69.478516 102.5918 C 69.2076 102.64759 68.888002 102.69736 68.552734 102.74609 C 66.49709 102.73633 64.316 102.61055 63.068359 102.36523 C 60.58776 101.8775 59.897363 101.71653 59.669922 101.57617 C 59.562287 101.50975 59.272813 101.41674 59.025391 101.36914 C 58.144968 101.19985 54.999469 99.792675 53.146484 98.738281 C 49.69025 96.771597 46.971565 94.379409 44.128906 90.804688 C 43.373251 89.854439 41.651899 86.819765 41.113281 85.488281 C 39.467007 81.418595 38.986091 76.439102 39.847656 72.398438 C 40.863634 67.633604 42.687909 64.142108 45.900391 60.822266 C 47.757445 58.903149 50.012283 57.182624 51.472656 56.568359 C 57.123671 54.191417 61.603485 54.205618 66.599609 56.615234 C 69.00368 57.774712 71.93479 60.215317 71.875 61.007812 C 71.84794 61.366433 71.635592 61.278311 70.644531 60.496094 C 65.544227 56.470556 58.34807 56.161608 52.962891 59.736328 C 49.364585 62.124905 46.599336 66.192153 45.673828 70.458984 C 45.12786 72.976017 45.300448 76.99966 46.048828 79.212891 C 47.94806 84.829618 51.993835 89.045767 57.640625 91.291016 C 61.579424 92.857131 67.111526 93.06254 70.859375 91.783203 C 74.534338 90.528747 76.929357 89.019268 79.863281 86.103516 C 83.732266 82.258482 85.947089 77.516383 86.617188 71.646484 C 87.122836 67.217157 85.974857 61.816459 83.673828 57.800781 C 81.290143 53.640852 77.70411 50.031494 73.521484 47.580078 C 72.326386 46.879639 71.292929 46.297056 71.224609 46.285156 C 71.156262 46.273254 70.668044 46.070619 70.140625 45.835938 C 67.034818 44.453967 63.040164 43.699631 58.873047 43.707031 C 55.694805 43.712674 53.055875 44.093648 50.414062 44.960938 C 52.749957 43.923139 55.227071 43.144033 57.826172 42.691406 C 59.509683 42.398227 61.351214 42.265416 63.236328 42.283203 z "
     style="fill:url(#linearGradient845);stroke-width:0.913309"
     id="path35" />
  <path
     id="path47"
     opacity=".2"
     d="m123.80664 69.763672c-.19643 1.079051-.54089 2.116053-1.07422 3.02539-.64453 1.098939-26.711507 27.286788-29.476561 29.613278-4.908875 4.13027-11.452044 7.63754-17.091797 9.16211-1.535156.415-.875725.29764-3.083984.74805-7.705341 1.05122-11.01414 1.25222-19.296875-.11523-.645869-.2471-2.261097-.79923-3.589844-1.22657-3.050757-.9811-8.55812-3.65558-11.234375-5.45508-3.488731-2.34581-5.244913-3.99078-19.496093-18.273432-14.1145591-14.14571-14.6544039-14.677345-15.2246098-17.445313-.2666092 1.233008-.3156735 2.46313-.1035156 3.519531.655555 3.264245.3932886 2.957984 15.3281254 17.925782 14.25118 14.282652 16.007362 15.927622 19.496093 18.273432 2.676255 1.7995 8.183618 4.47398 11.234375 5.45508 1.328747.42734 2.943975.97947 3.589844 1.22657 8.282735 1.36745 11.591534 1.16645 19.296875.11523 2.208259-.45041 1.548828-.33305 3.083984-.74805 5.639753-1.52457 12.182922-5.03184 17.091797-9.16211 2.765054-2.32649 28.832031-28.514339 29.476561-29.613278 1.18162-2.014699 1.52427-4.63292 1.07422-7.02539z" />
  <circle
     r="0.22225724"
     cy="97.738579"
     cx="-46.321857"
     style="fill:#f29f00;stroke:#000000"
     id="path102" />
  <g
     clip-path="none"
     id="g1092">
    <ellipse
       ry="33.196194"
       rx="34.059605"
       cy="72.630302"
       cx="63.84494"
       id="ellipse85"
       style="opacity:0.95;fill:url(#radialGradient933);fill-opacity:1;stroke-width:4.04118;stroke-linecap:round;stroke-linejoin:round" />
    <ellipse
       cx="63.84494"
       cy="72.630302"
       rx="34.059605"
       ry="33.196194"
       style="opacity:0.95;fill:url(#radialGradient1050);fill-opacity:1;stroke-width:4.04118;stroke-linecap:round;stroke-linejoin:round"
       id="ellipse1034" />
    <path
       d="m 63.195,56.408206 a 16,16 0 0 0 -16,16 16,16 0 0 0 16,16 16,16 0 0 0 14.53125,-9.304687 h 18.724609 a 34.059605,33.196198 0 0 0 0.654297,-6.472657 34.059605,33.196198 0 0 0 -0.730469,-6.839843 H 77.761406 A 16,16 0 0 0 63.195,56.408206 Z"
       style="opacity:1;fill:#182736;fill-opacity:1;stroke-width:3.90719;stroke-linecap:round;stroke-linejoin:round;filter:url(#filter1003)"
       id="path985" />
    <path
       id="ellipse1007"
       style="opacity:0.95;fill:#1d3041;fill-opacity:1;stroke-width:4.04118;stroke-linecap:round;stroke-linejoin:round;filter:url(#filter1030)"
       d="M 63.681641 39.433594 A 34.059605 33.196194 0 0 0 29.785156 72.630859 A 34.059605 33.196194 0 0 0 63.845703 105.82617 A 34.059605 33.196194 0 0 0 97.904297 72.630859 A 34.059605 33.196194 0 0 0 63.845703 39.433594 A 34.059605 33.196194 0 0 0 63.681641 39.433594 z M 63.816406 41.433594 A 32.059502 31.195999 0 0 1 63.845703 41.433594 A 32.059502 31.195999 0 0 1 95.904297 72.630859 A 32.059502 31.195999 0 0 1 63.845703 103.82617 A 32.059502 31.195999 0 0 1 31.785156 72.630859 A 32.059502 31.195999 0 0 1 63.816406 41.433594 z " />
    <path
       id="path87"
       style="opacity:1;fill:url(#radialGradient983);fill-opacity:1;stroke-width:3.90719;stroke-linecap:round;stroke-linejoin:round"
       d="m 64.195,56.408206 a 16,16 0 0 0 -16,16 16,16 0 0 0 16,16 16,16 0 0 0 14.53125,-9.304687 h 18.724609 a 34.059605,33.196198 0 0 0 0.654297,-6.472657 34.059605,33.196198 0 0 0 -0.730469,-6.839843 H 78.761406 A 16,16 0 0 0 64.195,56.408206 Z" />
  </g>
  <path
     d="M 64.544922 35.142578 C 60.700101 35.142578 59.544691 35.227018 57.419922 35.667969 C 49.819428 37.245294 43.882357 40.382866 38.320312 45.759766 C 34.900489 49.065754 32.825127 51.872457 30.871094 55.841797 C 24.842596 68.087816 25.882717 81.978795 33.681641 93.408203 C 35.721296 96.397343 40.467077 101.04454 43.53125 103.05273 C 48.560857 106.34903 54.13137 108.42396 60.076172 109.2168 C 62.667675 109.56242 69.039712 109.30599 71.791016 108.74609 C 76.64437 107.75844 81.340258 105.8176 85.558594 103.05273 C 88.622864 101.0443 93.36872 96.397091 95.408203 93.408203 C 104.3234 80.342887 104.3234 64.108287 95.408203 51.042969 C 93.36872 48.054079 88.622864 43.406877 85.558594 41.398438 C 81.317968 38.618976 76.692029 36.710204 71.669922 35.667969 C 69.545153 35.227014 68.389741 35.142578 64.544922 35.142578 z M 63.681641 39.433594 A 34.059605 33.196194 0 0 1 63.845703 39.433594 A 34.059605 33.196194 0 0 1 97.904297 72.630859 A 34.059605 33.196194 0 0 1 63.845703 105.82617 A 34.059605 33.196194 0 0 1 29.785156 72.630859 A 34.059605 33.196194 0 0 1 63.681641 39.433594 z "
     style="fill:url(#linearGradient3422);stroke-width:0.984326"
     id="path39" />
</svg>
