<?xml version="1.0" encoding="UTF-8" standalone="no"?>
<svg
   xmlns:dc="http://purl.org/dc/elements/1.1/"
   xmlns:cc="http://creativecommons.org/ns#"
   xmlns:rdf="http://www.w3.org/1999/02/22-rdf-syntax-ns#"
   xmlns:svg="http://www.w3.org/2000/svg"
   xmlns="http://www.w3.org/2000/svg"
   xmlns:xlink="http://www.w3.org/1999/xlink"
   xmlns:sodipodi="http://sodipodi.sourceforge.net/DTD/sodipodi-0.dtd"
   xmlns:inkscape="http://www.inkscape.org/namespaces/inkscape"
   height="128"
   viewBox="0 0 128 128"
   width="128"
   version="1.1"
   id="svg49"
   sodipodi:docname="xnview.svg"
   inkscape:version="1.0 (4035a4fb49, 2020-05-01)">
  <metadata
     id="metadata55">
    <rdf:RDF>
      <cc:Work
         rdf:about="">
        <dc:format>image/svg+xml</dc:format>
        <dc:type
           rdf:resource="http://purl.org/dc/dcmitype/StillImage" />
      </cc:Work>
    </rdf:RDF>
  </metadata>
  <defs
     id="defs53" />
  <sodipodi:namedview
     inkscape:document-rotation="0"
     pagecolor="#ffffff"
     bordercolor="#666666"
     borderopacity="1"
     objecttolerance="10"
     gridtolerance="10"
     guidetolerance="10"
     inkscape:pageopacity="0"
     inkscape:pageshadow="2"
     inkscape:window-width="640"
     inkscape:window-height="480"
     id="namedview51"
     showgrid="false"
     inkscape:snap-global="false"
     inkscape:zoom="1"
     inkscape:cx="64"
     inkscape:cy="64"
     inkscape:current-layer="svg49" />
  <linearGradient
     id="linearGradient3420">
    <stop
       offset="0"
       stop-color="#d26400"
       id="stop2" />
    <stop
       offset="1"
       stop-color="#eeb11c"
       id="stop4" />
  </linearGradient>
  <linearGradient
     id="linearGradient3422"
     gradientUnits="userSpaceOnUse"
     x1="42.614201"
     x2="87.550301"
     xlink:href="#linearGradient3420"
     y1="37.965866"
     y2="102.21265" />
  <radialGradient
     id="radialGradient3468"
     cx="64"
     cy="63.028904"
     gradientTransform="matrix(1 0 0 .91618482 0 5.282779)"
     gradientUnits="userSpaceOnUse"
     r="60">
    <stop
       offset="0"
       stop-color="#aa0200"
       id="stop8" />
    <stop
       offset=".42110804"
       stop-color="#f2a100"
       id="stop10" />
    <stop
       offset=".84039426"
       stop-color="#f29e00"
       id="stop12" />
    <stop
       offset="1"
       stop-color="#ed8300"
       id="stop14" />
  </radialGradient>
  <radialGradient
     id="radialGradient3631-3"
     cx="58.316109"
     cy="74.750862"
     gradientTransform="matrix(1 0 0 1.0923838 .000005 -6.905766)"
     gradientUnits="userSpaceOnUse"
     r="28.418552">
    <stop
       offset="0"
       stop-color="#aa0200"
       id="stop17" />
    <stop
       offset=".42110804"
       stop-color="#ba2900"
       id="stop19" />
    <stop
       offset=".84039426"
       stop-color="#d76800"
       id="stop21" />
    <stop
       offset="1"
       stop-color="#c93c00"
       id="stop23" />
  </radialGradient>
  <linearGradient
     id="linearGradient3670"
     gradientUnits="userSpaceOnUse"
     x1="55.302193"
     x2="63.638779"
     y1="65.75341"
     y2="72.55394">
    <stop
       offset="0"
       stop-color="#fff"
       id="stop26" />
    <stop
       offset="1"
       stop-opacity=".914286"
       id="stop28" />
  </linearGradient>
  <filter
     id="filter3688"
     color-interpolation-filters="sRGB"
     height="1.129426"
     width="1.111854"
     x="-.055927"
     y="-.064713">
    <feGaussianBlur
       stdDeviation=".57007295"
       id="feGaussianBlur31" />
  </filter>
  <linearGradient
     id="linearGradient845"
     gradientUnits="userSpaceOnUse"
     x1="42.614201"
     x2="87.550301"
     xlink:href="#linearGradient3420"
     y1="39.965866"
     y2="104.21265" />
  <path
     d="m 53.783844,116.19721 c -0.645869,-0.2471 -2.261459,-0.7989 -3.590206,-1.22624 -3.050757,-0.9811 -8.557695,-3.6549 -11.23395,-5.4544 -3.488731,-2.34581 -5.244949,-3.992 -19.496129,-18.274649 C 4.5287226,76.274124 4.7910216,76.580864 4.1354666,73.316619 c -0.360944,-1.797254 0.01072,-4.095899 0.9798,-6.059562 0.589676,-1.194892 1.877587,-2.625831 7.0769064,-7.862867 3.49582,-3.52118 6.565919,-6.65054 6.822428,-6.954135 l 0.46639,-0.551991 -5.467423,-5.487768 C 9.501354,41.871289 8.4350266,40.66948 7.9101196,39.521364 6.2861416,35.969295 6.8221396,32.202892 9.404507,29.020411 c 1.161861,-1.431854 4.254051,-2.942535 6.237719,-3.047418 1.763255,-0.09323 3.745617,0.301466 5.198194,1.034978 0.698853,0.352902 3.129206,2.579263 6.804422,6.233295 l 5.717273,5.68431 3.46316,-2.831497 c 1.904744,-1.557323 3.495518,-2.971054 3.535056,-3.141622 0.03956,-0.170568 -0.437951,-2.145662 -1.061073,-4.389098 -2.651182,-9.545052 -2.806441,-10.245774 -2.643542,-11.930661 0.224536,-2.322294 1.335021,-4.553689 3.061864,-6.152437 1.961381,-1.8158969 3.539049,-2.4024139 6.494907,-2.4145659 2.111197,-0.0087 2.429689,0.0543 3.876347,0.766488 1.743384,0.8582634 3.074426,2.0469649 4.130093,3.6884189 0.796032,1.237753 0.968905,1.777046 2.634633,8.219132 0.669968,2.591056 1.324111,5.048495 1.453657,5.460975 l 0.235528,0.749964 4.990569,-0.03146 4.99057,-0.03146 0.3058,-0.718507 c 0.168193,-0.395173 1.19625,-3.382035 2.284569,-6.637465 2.120612,-6.34325 2.814551,-7.7225 4.736553,-9.41432 1.697474,-1.4941749 3.371348,-2.0577179 6.117649,-2.0596249 2.110518,-0.0014 2.432958,0.06349 3.899087,0.785537 1.990364,0.9802184 3.610439,2.6083469 4.620053,4.6430119 0.701186,1.413103 0.776411,1.775905 0.776411,3.74465 0,2.11407 -0.06334,2.36248 -2.096484,8.21971 -1.153065,3.321867 -2.131506,6.252318 -2.174313,6.512114 -0.05753,0.349156 0.335698,0.758726 1.50769,1.570337 0.872028,0.603889 2.448405,1.81034 3.50306,2.680998 1.054648,0.87066 2.036033,1.65451 2.180851,1.741885 0.14802,0.0893 2.475335,-2.045656 5.314988,-4.875691 6.321172,-6.299752 7.352642,-6.977472 10.849842,-7.128763 6.42016,-0.277738 11.06782,5.590923 9.44482,11.926095 -0.2178,0.850161 -0.63209,1.935144 -0.92065,2.411073 -0.28856,0.475929 -2.83771,3.206685 -5.66478,6.068351 l -5.14011,5.203026 6.65069,6.634901 c 3.65788,3.649194 7.02769,7.142574 7.48845,7.763062 2.17014,2.9224 2.39847,7.635693 0.52468,10.830561 -0.64453,1.098938 -26.712281,27.287776 -29.477335,29.614266 -4.908875,4.13027 -11.451043,7.63736 -17.090796,9.16193 -1.535156,0.415 -0.875393,0.29762 -3.083652,0.74803 -7.705341,1.05122 -11.014378,1.25174 -19.297113,-0.11571 z"
     fill="url(#radialGradient3468)"
     id="path41"
     sodipodi:nodetypes="ccsssssscsscssscscccscsssscccssscssssssssssssscssssscc" />
  <ellipse
     ry="37.007824"
     rx="36.569592"
     cy="71.208076"
     cx="64.728004"
     id="path34"
     style="opacity:1;fill:#ffffff;stroke-width:2.46177;stroke-linecap:round;stroke-linejoin:round" />
  <circle
     style="opacity:1;fill:#ffffff;stroke:none;stroke-width:2.51974;stroke-linecap:round;stroke-linejoin:round"
     id="path57"
     cx="64.763092"
     cy="71.830429"
     rx="35.056484"
     ry="35.31826" />
  <path
     id="path35"
     style="fill:url(#linearGradient845)"
     d="M 64.652344 34.869141 C 60.806699 34.869141 59.650615 34.957114 57.525391 35.412109 C 49.923265 37.039668 43.987068 40.276074 38.423828 45.824219 C 35.00327 49.235497 32.92711 52.13276 30.972656 56.228516 C 30.71598 56.766407 30.490848 57.311757 30.259766 57.855469 A 36.938389 37.806389 0 0 0 27.820312 71.363281 A 36.938389 37.806389 0 0 0 64.757812 109.16992 A 36.938389 37.806389 0 0 0 101.69727 71.363281 A 36.938389 37.806389 0 0 0 100.44531 61.611328 C 99.331436 58.03585 97.694409 54.559549 95.523438 51.277344 C 93.483517 48.193264 88.736803 43.398576 85.671875 41.326172 C 81.430341 38.45819 76.802482 36.487537 71.779297 35.412109 C 69.654072 34.957111 68.497988 34.869141 64.652344 34.869141 z M 64.105469 39.677734 C 67.50595 39.710572 71.038684 40.209076 74.132812 41.140625 C 76.912959 41.977646 81.895277 44.547918 84.376953 46.423828 C 90.818537 51.293053 95.356132 58.450123 97.1875 66.630859 C 97.938627 69.986179 97.99559 76.934685 97.298828 80.126953 C 94.346881 93.651581 84.324743 103.64121 70.861328 106.47852 C 68.173723 107.04489 62.191053 107.29994 59.701172 106.95312 C 54.376166 106.21143 49.652942 104.48448 45.326172 101.69922 C 37.662983 96.7662 32.534027 89.197897 30.550781 79.892578 C 29.942401 77.037843 29.941957 70.453723 30.548828 67.576172 C 33.542824 53.379795 44.428845 42.594161 58.25 40.130859 C 60.072091 39.806114 62.06518 39.658032 64.105469 39.677734 z " />
  <path
     id="path37"
     d="M 64.652344 34.869141 C 60.806699 34.869141 59.650615 34.957114 57.525391 35.412109 C 49.923265 37.039668 43.987068 40.276074 38.423828 45.824219 C 35.00327 49.235497 32.92711 52.13276 30.972656 56.228516 C 30.71598 56.766407 30.490848 57.311757 30.259766 57.855469 A 36.938389 37.806389 0 0 0 27.820312 71.363281 A 36.938389 37.806389 0 0 0 64.757812 109.16992 A 36.938389 37.806389 0 0 0 101.69727 71.363281 A 36.938389 37.806389 0 0 0 100.44531 61.611328 C 99.331436 58.03585 97.694409 54.559549 95.523438 51.277344 C 93.483517 48.193264 88.736803 43.398576 85.671875 41.326172 C 81.430341 38.45819 76.802482 36.487537 71.779297 35.412109 C 69.654072 34.957111 68.497988 34.869141 64.652344 34.869141 z M 64.105469 39.677734 C 67.50595 39.710572 71.038684 40.209076 74.132812 41.140625 C 76.912959 41.977646 81.895277 44.547918 84.376953 46.423828 C 90.818537 51.293053 95.356132 58.450123 97.1875 66.630859 C 97.938627 69.986179 97.99559 76.934685 97.298828 80.126953 C 94.346881 93.651581 84.324743 103.64121 70.861328 106.47852 C 68.173723 107.04489 62.191053 107.29994 59.701172 106.95312 C 54.376166 106.21143 49.652942 104.48448 45.326172 101.69922 C 37.662983 96.7662 32.534027 89.197897 30.550781 79.892578 C 29.942401 77.037843 29.941957 70.453723 30.548828 67.576172 C 33.542824 53.379795 44.428845 42.594161 58.25 40.130859 C 60.072091 39.806114 62.06518 39.658032 64.105469 39.677734 z "
     style="fill:#000000;opacity:0.2" />
  <path
     d="m60.183502 109.30302c-5.946078-.81809-11.518253-2.95998-16.548939-6.36126-3.064832-2.07216-7.811437-6.866699-9.851529-9.951039-7.800599-11.793413-8.839495-26.125659-2.809703-38.761692 1.954454-4.095756 4.028978-6.993147 7.449536-10.404425 5.56324-5.548145 11.501015-8.784494 19.103141-10.412053 2.125224-.454995 3.28127-.543088 7.126915-.543088 3.845644 0 5.00169.08809 7.126915.543088 5.023185 1.075428 9.649912 3.044733 13.891446 5.912715 3.064928 2.072404 7.811605 6.867081 9.851525 9.951161 8.917111 13.481427 8.917111 30.232872 0 43.714294-2.03992 3.08408-6.786597 7.878759-9.851525 9.951159-4.21924 2.85292-8.916255 4.85728-13.770651 5.87638-2.751895.57772-9.125072.84139-11.717131.48476zm10.678051-4.82424c13.463415-2.83731 23.485897-12.827159 26.437844-26.351787.696762-3.192268.639052-10.141414-.112075-13.496734-1.831368-8.180736-6.368443-15.337634-12.810027-20.206859-2.481676-1.87591-7.464152-4.444812-10.244299-5.281833-4.950605-1.490479-11.023307-1.877077-15.882217-1.011088-13.821155 2.463302-24.708659 13.250142-27.702655 27.446519-.606871 2.877551-.60508 9.460589.0033 12.315324 1.983246 9.305319 7.111032 16.874029 14.774221 21.807043 4.32677 2.785265 9.049619 4.511095 14.374625 5.252785 2.489881.34681 8.473627.093 11.161232-.47337z"
     fill="url(#linearGradient3422)"
     id="path39" />
  <path
     d="m59.503962 105.63686c-14.905203-2.07608-26.023961-12.397979-29.148849-27.05983-.607858-2.852058-.610518-9.44548-.0053-12.285065.808316-3.790313 2.322355-7.888282 3.179096-8.604687.160242-.13399.821573-.950271 1.469631-1.813957 2.681933-3.574304 6.829042-7.045703 10.885367-9.111754 4.281932-2.180968 7.899211-3.045949 12.77415-3.054617 4.199353-.0075 8.224913.754494 11.354746 2.149237.531499.236851 1.022705.440465 1.091581.452477.06885.01201 1.110583.60022 2.314926 1.307133 4.214981 2.474072 7.828109 6.117417 10.230234 10.315792 2.318829 4.052792 3.475964 9.503741 2.966405 13.974004-.675283 5.92415-2.907419 10.708698-6.806333 14.589268-2.95662 2.9427-5.368651 4.46696-9.072042 5.73301-3.776842 1.29116-9.352076 1.08283-13.321345-.49776-5.690472-2.266-9.767679-6.52026-11.681603-12.188898-.754169-2.233686-.927692-6.294755-.3775-8.835051.932667-4.306266 3.718801-8.411331 7.344943-10.821984 5.426837-3.607758 12.678171-3.295525 17.81793.767218.998727.789447 1.212565.878553 1.239834.516617.06025-.799819-2.894237-3.263553-5.316905-4.433747-5.034773-2.431886-9.549062-2.445759-15.243792-.04685-1.47167.619942-3.742242 2.356475-5.613662 4.293329-3.237332 3.350525-5.077549 6.874229-6.101386 11.683101-.86823 4.078009-.382755 9.103096 1.276254 13.210395.542785 1.34379 2.277759 4.40706 3.039259 5.36609 2.86465 3.60776 5.603764 6.02108 9.086734 8.00594 1.86732 1.064139 5.03694 2.485239 5.924173 2.656099.249336.048.542083.14216.65055.20919.229201.14166.925042.30329 3.42483.79553 2.028385.39942 6.551703.53134 8.938843.26069 3.870262-.43881 9.071687-2.34885 13.045878-4.790659l.845567-.51954-.603976.52631c-1.048948.91406-4.403724 3.058899-6.160554 3.938689-2.330026 1.16682-5.50034 2.25368-8.286791 2.84091-2.687609.56639-8.671349.82018-11.161232.47337z"
     fill="url(#radialGradient3631-3)"
     id="path43" />
  <path
     d="m75.366046 72.024195c-.02115 1.043508-.114288 2.069648-.284635 3.057792-.179902 1.043563-.445924 2.044748-.804246 2.979255-.635193 1.656589-1.560426 3.103647-2.810107 4.20582-2.215485 1.953973-5.531212 2.734523-9.23671 2.589881-6.455537-.251988-11.653264-5.694483-11.171825-12.158804.363554-4.881485 3.663737-9.542411 8.985728-8.908577 1.835974.218659 3.699361 1.161421 4.890408 2.496804 1.191044 1.335382 1.579481 3.092324 1.542052 5.11282-.03728.653658-.272039 1.2666-.483025 1.909788-.184132.561337-.211648.965573-.841397 1.71855-.610835.626273-1.007662.932862-1.749343 1.312482-.602515.308391-1.20439.581814-2.373068.831934-1.835798.03503-4.184507-.179315-.0092-.355001.941835-.257728 1.547114-.466878 2.194243-.849053.504627-.298018 1.114982-.868563 1.460649-1.105703.820216-1.197795 1.134617-2.429018 1.335037-3.284864.375029-1.601466-.369279-3.829741-1.403639-4.989451-1.034362-1.159713-2.990286-2.158715-4.582831-2.348384-4.740989-.564637-8.24405 4.050986-8.572503 8.461158-.440898 5.919992 5.197279 11.499561 11.160499 11.732326 3.166635.123605 6.604972-.40431 8.631891-2.490036 1.09103-1.122685 2.068253-2.401592 2.630566-4.016674.315806-.907061.692036-1.791391.846547-2.788617.2757-1.779387.436981-2.963033.469538-4.568844-.08345-1.911528.04263-1.334917-.248927-2.297029-1.12087-3.698789-4.130912-9.592125-3.100219-7.25689.508559 1.152244 3.630277 7.127956 3.649606 8.695743z"
     fill="url(#linearGradient3670)"
     fill-rule="evenodd"
     filter="url(#filter3688)"
     opacity=".619"
     id="path45" />
  <path
     d="m123.80664 69.763672c-.19643 1.079051-.54089 2.116053-1.07422 3.02539-.64453 1.098939-26.711507 27.286788-29.476561 29.613278-4.908875 4.13027-11.452044 7.63754-17.091797 9.16211-1.535156.415-.875725.29764-3.083984.74805-7.705341 1.05122-11.01414 1.25222-19.296875-.11523-.645869-.2471-2.261097-.79923-3.589844-1.22657-3.050757-.9811-8.55812-3.65558-11.234375-5.45508-3.488731-2.34581-5.244913-3.99078-19.496093-18.273432-14.1145591-14.14571-14.6544039-14.677345-15.2246098-17.445313-.2666092 1.233008-.3156735 2.46313-.1035156 3.519531.655555 3.264245.3932886 2.957984 15.3281254 17.925782 14.25118 14.282652 16.007362 15.927622 19.496093 18.273432 2.676255 1.7995 8.183618 4.47398 11.234375 5.45508 1.328747.42734 2.943975.97947 3.589844 1.22657 8.282735 1.36745 11.591534 1.16645 19.296875.11523 2.208259-.45041 1.548828-.33305 3.083984-.74805 5.639753-1.52457 12.182922-5.03184 17.091797-9.16211 2.765054-2.32649 28.832031-28.514339 29.476561-29.613278 1.18162-2.014699 1.52427-4.63292 1.07422-7.02539z"
     opacity=".2"
     id="path47" />
</svg>
