<?xml version="1.0" encoding="UTF-8" standalone="no"?>
<svg
   xmlns:dc="http://purl.org/dc/elements/1.1/"
   xmlns:cc="http://creativecommons.org/ns#"
   xmlns:rdf="http://www.w3.org/1999/02/22-rdf-syntax-ns#"
   xmlns:svg="http://www.w3.org/2000/svg"
   xmlns="http://www.w3.org/2000/svg"
   xmlns:sodipodi="http://sodipodi.sourceforge.net/DTD/sodipodi-0.dtd"
   xmlns:inkscape="http://www.inkscape.org/namespaces/inkscape"
   inkscape:version="1.0 (4035a4fb49, 2020-05-01)"
   sodipodi:docname="hplip-symbolic.svg"
   id="svg14"
   version="1.1"
   width="16"
   viewBox="0 0 4.23 4.23"
   height="16">
  <metadata
     id="metadata20">
    <rdf:RDF>
      <cc:Work
         rdf:about="">
        <dc:format>image/svg+xml</dc:format>
        <dc:type
           rdf:resource="http://purl.org/dc/dcmitype/StillImage" />
      </cc:Work>
    </rdf:RDF>
  </metadata>
  <defs
     id="defs18" />
  <sodipodi:namedview
     inkscape:current-layer="svg14"
     inkscape:cy="8"
     inkscape:cx="4.4310545"
     inkscape:zoom="53.9375"
     showgrid="false"
     id="namedview16"
     inkscape:window-height="480"
     inkscape:window-width="640"
     inkscape:pageshadow="2"
     inkscape:pageopacity="0"
     guidetolerance="10"
     gridtolerance="10"
     objecttolerance="10"
     borderopacity="1"
     bordercolor="#666666"
     pagecolor="#ffffff" />
  <path
     style="fill:#3a3545;fill-opacity:1"
     id="path12"
     transform="translate(0 -292.76665)"
     fill="#474747"
     display="block"
     d="m1.545707 292.95514-.3765225 1.03491h-.0001113l-.63990653 1.75801h.4259857l.54420813-1.49392h.3202318l-.5442082 1.49396.4258372.00011.5071013-1.39373c.072989-.20038-.041819-.36439-.2549234-.36439h-.3580807l.3957814-1.0876c-.1321744-.0141-.3472085.0156-.4453929.0527zm1.1158752 1.03491-.6580517 1.80829h-.0002964l-.3691384 1.01435a2.0101486 2.0101486 0 0 0 .4064678.055l.4073956-1.11962h.5653587c.099223 0 .208169-.0763.2420846-.16947l.445652-1.22415c.072915-.20045-.041856-.36439-.2551091-.36439zm.3314008.26309h.32012l-.4482499 1.22987h-.3201202z" />
</svg>
