<?xml version="1.0" encoding="UTF-8" standalone="no"?>
<svg
   xmlns:dc="http://purl.org/dc/elements/1.1/"
   xmlns:cc="http://creativecommons.org/ns#"
   xmlns:rdf="http://www.w3.org/1999/02/22-rdf-syntax-ns#"
   xmlns:svg="http://www.w3.org/2000/svg"
   xmlns="http://www.w3.org/2000/svg"
   xmlns:sodipodi="http://sodipodi.sourceforge.net/DTD/sodipodi-0.dtd"
   xmlns:inkscape="http://www.inkscape.org/namespaces/inkscape"
   inkscape:version="1.0 (4035a4fb49, 2020-05-01)"
   sodipodi:docname="org.inkscape.Inkscape-symbolic.svg"
   id="svg44"
   version="1.1"
   width="15.991"
   height="16"
   enable-background="new">
  <metadata
     id="metadata50">
    <rdf:RDF>
      <cc:Work
         rdf:about="">
        <dc:format>image/svg+xml</dc:format>
        <dc:type
           rdf:resource="http://purl.org/dc/dcmitype/StillImage" />
      </cc:Work>
    </rdf:RDF>
  </metadata>
  <defs
     id="defs48" />
  <sodipodi:namedview
     inkscape:current-layer="svg44"
     inkscape:cy="8"
     inkscape:cx="4.4265545"
     inkscape:zoom="53.9375"
     showgrid="false"
     id="namedview46"
     inkscape:window-height="480"
     inkscape:window-width="640"
     inkscape:pageshadow="2"
     inkscape:pageopacity="0"
     guidetolerance="10"
     gridtolerance="10"
     objecttolerance="10"
     borderopacity="1"
     bordercolor="#666666"
     pagecolor="#ffffff" />
  <path
     style="fill:#3a3545;fill-opacity:1"
     id="path42"
     transform="translate(-256.00448 -180)"
     fill-rule="evenodd"
     fill="#474747"
     d="m263.96943 180.09358c-.45372 0-.8954.16964-1.24309.52861l-6.18439 6.37443c-.34078.35183-.52155.81575-.52832 1.27489-.0001.007 0 .0234 0 .031-.00006 1.36608 3.64827.04 3.9779 1.71022.17841.90395-1.98895.48981-1.98895 1.39927 0 1.06688 3.06782.3332 3.94682 1.21269.36108.87948-1.17445.73753-.90123 1.55474.51491.53164 1.67321.23016 1.89572 1.08832.25414.98026 1.91878.81115 2.89019.0931.51491-.53162-.79461-.77436-.27968-1.30597.5149-.53163 3.05825-.4241 3.07666-1.58584-.24306-.72981-1.19738-.84765-1.21205-1.71021-.0512-.73049.78152-.51683 3.41852-1.2438 1.05444-.49441 1.09176-.75739 1.08771-1.2127-.00008-.009 0-.0214 0-.031-.006-.45914-.21862-.92306-.55938-1.27489l-6.15332-6.37443c-.34769-.35901-.78937-.52861-1.24311-.52861zm.1243 1.33708c.46729.004 1.74777 1.58409 2.89021 2.76743.32134.42998-.1243.87065-.1243.87065l-2.39297-1.30598-1.05663 1.43037-.9323-1.39928-.55941 2.17664-1.6471-.99504.43509-.55969 2.57942-2.64306c.19783-.2011.34932-.3456.80799-.34204zm7.08565 9.57719c-.12567-.004-.25243.006-.34185.031-.16855.0486-.96701.077-.90123.68409.72342.3034 1.8264.54491 1.95787-.0621.0988-.4552-.33771-.63905-.71479-.65297zm-12.33771 2.02114c-.0702.008-.11786.036-.18645.0621-.54864.20872-.91657.64774-.40402.83956.51262.1918.85588-.0109 1.30524-.24876.44942-.23797.43651-.28133.40402-.37313-.0623.0125-.47095-.24203-.90124-.27987-.0717-.006-.14738-.008-.21755 0z" />
</svg>
