<?xml version="1.0" encoding="UTF-8" standalone="no"?>
<svg
   height="16px"
   viewBox="0 0 16 16"
   width="16px"
   version="1.1"
   id="svg9498"
   sodipodi:docname="menulibre-symbolic.svg"
   inkscape:version="1.2.2 (b0a8486541, 2022-12-01)"
   xmlns:inkscape="http://www.inkscape.org/namespaces/inkscape"
   xmlns:sodipodi="http://sodipodi.sourceforge.net/DTD/sodipodi-0.dtd"
   xmlns="http://www.w3.org/2000/svg"
   xmlns:svg="http://www.w3.org/2000/svg">
  <defs
     id="defs9502" />
  <sodipodi:namedview
     id="namedview9500"
     pagecolor="#ffffff"
     bordercolor="#999999"
     borderopacity="1"
     inkscape:showpageshadow="0"
     inkscape:pageopacity="0"
     inkscape:pagecheckerboard="0"
     inkscape:deskcolor="#d1d1d1"
     showgrid="false"
     inkscape:zoom="48.625"
     inkscape:cx="8.0308483"
     inkscape:cy="8.0308483"
     inkscape:current-layer="svg9498" />
  <filter
     id="a"
     height="1"
     width="1"
     x="0"
     y="0">
    <feColorMatrix
       in="SourceGraphic"
       type="matrix"
       values="0 0 0 0 1 0 0 0 0 1 0 0 0 0 1 0 0 0 1 0"
       id="feColorMatrix9465" />
  </filter>
  <mask
     id="b">
    <g
       filter="url(#a)"
       id="g9470">
      <rect
         fill-opacity="0.5"
         height="16"
         width="16"
         id="rect9468" />
    </g>
  </mask>
  <clipPath
     id="c">
    <rect
       height="152"
       width="192"
       id="rect9473" />
  </clipPath>
  <g
     clip-path="url(#c)"
     fill="#e5a50a"
     fill-opacity="0.997061"
     mask="url(#b)"
     transform="matrix(1 0 0 1 -168 -16)"
     id="g9488">
    <path
       d="m 28 55 h 88 v 1 h -88 z m 0 0"
       id="path9476" />
    <path
       d="m 28 67 h 88 v 1 h -88 z m 0 0"
       id="path9478" />
    <path
       d="m 28 79 h 88 v 1 h -88 z m 0 0"
       id="path9480" />
    <path
       d="m 28 103 h 88 v 1 h -88 z m 0 0"
       id="path9482" />
    <path
       d="m 28 91 h 88 v 1 h -88 z m 0 0"
       id="path9484" />
    <path
       d="m 28 115 h 88 v 1 h -88 z m 0 0"
       id="path9486" />
  </g>
  <g
     fill="#241f31"
     id="g9496">
    <path
       d="m 4 1 c -1.109375 0 -2 0.890625 -2 2 v 10 c 0 1.109375 0.890625 2 2 2 h 7 c 1.109375 0 2 -0.890625 2 -2 v -4 l -2 2 v 2 h -7 v -10 h 7 l 1.417969 -1.417969 c -0.363281 -0.359375 -0.863281 -0.582031 -1.417969 -0.582031 z m 0 0"
       id="path9490" />
    <path
       d="m 7 11 h 2 l 6 -6 l -2 -2 l -6 6 z m 0 0"
       id="path9492" />
  </g>
</svg>
