<?xml version="1.0" encoding="UTF-8" standalone="no"?>
<svg
   xmlns:dc="http://purl.org/dc/elements/1.1/"
   xmlns:cc="http://creativecommons.org/ns#"
   xmlns:rdf="http://www.w3.org/1999/02/22-rdf-syntax-ns#"
   xmlns:svg="http://www.w3.org/2000/svg"
   xmlns="http://www.w3.org/2000/svg"
   xmlns:sodipodi="http://sodipodi.sourceforge.net/DTD/sodipodi-0.dtd"
   xmlns:inkscape="http://www.inkscape.org/namespaces/inkscape"
   inkscape:version="1.0 (4035a4fb49, 2020-05-01)"
   sodipodi:docname="org.gnome.Firmware-symbolic.svg"
   id="svg8"
   version="1.1"
   height="16"
   width="16">
  <metadata
     id="metadata14">
    <rdf:RDF>
      <cc:Work
         rdf:about="">
        <dc:format>image/svg+xml</dc:format>
        <dc:type
           rdf:resource="http://purl.org/dc/dcmitype/StillImage" />
      </cc:Work>
    </rdf:RDF>
  </metadata>
  <defs
     id="defs12" />
  <sodipodi:namedview
     inkscape:current-layer="svg8"
     inkscape:cy="8"
     inkscape:cx="4.4310545"
     inkscape:zoom="53.9375"
     showgrid="false"
     id="namedview10"
     inkscape:window-height="480"
     inkscape:window-width="640"
     inkscape:pageshadow="2"
     inkscape:pageopacity="0"
     guidetolerance="10"
     gridtolerance="10"
     objecttolerance="10"
     borderopacity="1"
     bordercolor="#666666"
     pagecolor="#ffffff" />
  <g
     style="fill:#3a3545;fill-opacity:1"
     id="g6"
     fill="#241f31">
    <path
       style="fill:#3a3545;fill-opacity:1"
       id="path2"
       d="M1 11V5c0-.55.45-1 1-1h12c.55 0 1 .45 1 1v6c0 .55-.45 1-1 1H2c-.55 0-1-.45-1-1zm0 0" />
    <path
       style="fill:#3a3545;fill-opacity:1"
       id="path4"
       d="M6 14V2h1v12zm0 0M3 14V2h1v12zm0 0M12 14V2h1v12zm0 0M9 14V2h1v12zm0 0" />
  </g>
</svg>
