<?xml version="1.0" encoding="UTF-8" standalone="no"?>
<svg
   xmlns:dc="http://purl.org/dc/elements/1.1/"
   xmlns:cc="http://creativecommons.org/ns#"
   xmlns:rdf="http://www.w3.org/1999/02/22-rdf-syntax-ns#"
   xmlns:svg="http://www.w3.org/2000/svg"
   xmlns="http://www.w3.org/2000/svg"
   xmlns:sodipodi="http://sodipodi.sourceforge.net/DTD/sodipodi-0.dtd"
   xmlns:inkscape="http://www.inkscape.org/namespaces/inkscape"
   width="16"
   version="1.1"
   inkscape:version="1.0.2 (e86c870879, 2021-01-15, custom)"
   id="svg7384"
   height="16"
   sodipodi:docname="atom-symbolic.svg">
  <metadata
     id="metadata90">
    <rdf:RDF>
      <cc:Work
         rdf:about="">
        <dc:format>image/svg+xml</dc:format>
        <dc:type
           rdf:resource="http://purl.org/dc/dcmitype/StillImage" />
        <dc:title>Gnome Symbolic Icon Theme</dc:title>
      </cc:Work>
    </rdf:RDF>
  </metadata>
  <sodipodi:namedview
     inkscape:document-rotation="0"
     inkscape:zoom="53.625"
     inkscape:window-y="0"
     inkscape:window-x="0"
     inkscape:window-width="1600"
     inkscape:window-maximized="1"
     inkscape:window-height="1163"
     inkscape:snap-to-guides="true"
     inkscape:snap-others="false"
     inkscape:snap-nodes="true"
     inkscape:snap-grids="true"
     inkscape:snap-global="true"
     inkscape:snap-bbox-midpoints="false"
     inkscape:snap-bbox="false"
     showguides="true"
     showgrid="false"
     showborder="true"
     inkscape:pageshadow="2"
     inkscape:pageopacity="0"
     pagecolor="#ffffff"
     objecttolerance="10"
     inkscape:object-paths="false"
     inkscape:object-nodes="false"
     id="namedview88"
     guidetolerance="10"
     inkscape:guide-bbox="true"
     gridtolerance="10"
     inkscape:cy="8"
     inkscape:cx="8"
     inkscape:current-layer="layer9"
     borderopacity="1"
     bordercolor="#666666"
     inkscape:bbox-paths="true">
    <inkscape:grid
       visible="true"
       type="xygrid"
       spacingy="1"
       spacingx="1"
       snapvisiblegridlinesonly="true"
       originy="18"
       originx="117.99999"
       id="grid4866"
       enabled="true"
       empspacing="2" />
  </sodipodi:namedview>
  <title
     id="title9167">Gnome Symbolic Icon Theme</title>
  <defs
     id="defs7386" />
  <g
     transform="translate(-123.00021,-235)"
     style="display:inline"
     inkscape:label="apps"
     id="layer9"
     inkscape:groupmode="layer">
    <path
       id="path26401"
       style="color:#000000;display:inline;overflow:visible;visibility:visible;fill:#3a3545;fill-opacity:1;fill-rule:nonzero;stroke:none;stroke-width:1.14286;marker:none;enable-background:accumulate"
       d="M 8 0 C 3.58173 0 0 3.58173 0 8 C 0 12.41827 3.58173 16 8 16 C 12.41827 16 16 12.41827 16 8 C 16 3.58173 12.41827 0 8 0 z M 5.5859375 1.8496094 C 6.1456875 1.8559094 6.8827006 2.2141644 7.4628906 2.7089844 C 7.6696406 2.8807044 7.6970406 3.1936506 7.5253906 3.4003906 C 7.3536106 3.6071906 7.0426975 3.6346106 6.8359375 3.4628906 C 6.3016875 3.0192006 5.821625 2.8113312 5.546875 2.8320312 L 5.5449219 2.8320312 C 5.4829219 2.8365313 5.435325 2.8502469 5.390625 2.8730469 C 5.254165 2.9426469 5.1302 3.1322681 5.0625 3.4550781 C 4.9948 3.7778881 4.9857281 4.2183213 5.0488281 4.7382812 C 5.0725981 4.9345312 5.1121969 5.1434856 5.1542969 5.3535156 C 5.6133169 5.2900556 6.0934 5.2458625 6.59375 5.2265625 C 7.30443 4.3220325 8.0460325 3.5617737 8.7578125 3.0273438 C 9.4862025 2.4804838 10.182002 2.1522063 10.794922 2.1289062 C 11.118432 2.1166163 11.414633 2.1913656 11.664062 2.3535156 C 11.902862 2.5087356 12.145767 2.7781975 12.279297 3.2109375 C 12.412917 3.6436675 12.44199 4.2358375 12.28125 5.0546875 C 12.22944 5.3184275 11.968728 5.4929063 11.705078 5.4414062 C 11.441408 5.3896163 11.266659 5.1289444 11.318359 4.8652344 C 11.407659 4.4103644 11.428972 4.0195625 11.388672 3.7265625 C 11.348372 3.4335725 11.247869 3.2517812 11.130859 3.1757812 C 11.060089 3.1297813 10.963711 3.1024219 10.832031 3.1074219 C 10.519521 3.1193019 10.036862 3.3165475 9.4824219 3.7109375 C 9.0015619 4.0529775 8.4505244 4.6027025 7.8964844 5.2265625 C 7.9804244 5.2305625 8.0607844 5.2313281 8.1464844 5.2363281 C 9.8635644 5.3264081 11.469771 5.655785 12.681641 6.171875 C 13.292111 6.431865 13.77736 6.7268369 14.125 7.0605469 C 14.53069 7.4499969 14.74285 7.8915525 14.71875 8.3515625 C 14.69112 8.8793725 14.318166 9.6090312 12.941406 10.144531 C 12.882086 10.168131 12.819719 10.179688 12.761719 10.179688 C 12.565099 10.179688 12.379488 10.057994 12.304688 9.8652344 C 12.208798 9.6151544 12.335987 9.3294219 12.585938 9.2324219 C 12.962367 9.0862619 13.256512 8.9195362 13.451172 8.7539062 C 13.645832 8.5882663 13.733234 8.4305313 13.740234 8.3007812 C 13.748254 8.1475513 13.645501 7.9443194 13.400391 7.7246094 C 13.155281 7.5048994 12.777685 7.2770256 12.296875 7.0722656 C 11.202565 6.6062556 9.7069531 6.2994437 8.0957031 6.2148438 C 7.7721231 6.1974438 7.460735 6.1886031 7.171875 6.1894531 C 7.141375 6.1894531 7.1120313 6.1912663 7.0820312 6.1914062 C 6.8876812 6.4546663 6.6936731 6.7299206 6.5019531 7.0253906 C 6.3143931 7.3144606 6.1404825 7.6045812 5.9765625 7.8945312 C 6.1089625 8.1992312 6.25038 8.50629 6.40625 8.8125 C 7.13872 10.25127 8.0291206 11.495131 8.9003906 12.306641 C 9.2831606 12.663131 9.6450025 12.913968 9.9453125 13.048828 C 10.245622 13.183628 10.473025 13.196453 10.609375 13.126953 C 10.738055 13.061323 10.858134 12.882821 10.927734 12.582031 C 10.997334 12.281241 11.014244 11.870729 10.964844 11.386719 C 10.852344 10.284799 10.425479 8.9077637 9.7617188 7.5273438 C 9.6452488 7.2851137 9.7479244 6.99145 9.9902344 6.875 C 10.232414 6.75861 10.528111 6.8612256 10.644531 7.1035156 C 11.353501 8.5779756 11.814013 10.058569 11.939453 11.287109 C 12.003173 11.911879 11.978315 12.450631 11.859375 12.894531 C 11.720625 13.412481 11.450507 13.796187 11.054688 13.998047 C 10.857458 14.098587 10.638666 14.150361 10.410156 14.150391 C 10.163286 14.150391 9.9052556 14.092862 9.6347656 13.982422 C 9.1885456 13.800182 8.7182719 13.475947 8.2324219 13.023438 C 7.2676919 12.124878 6.3137031 10.790983 5.5332031 9.2578125 C 5.4954331 9.1835925 5.4603281 9.1094562 5.4238281 9.0351562 C 5.1228181 9.6978362 4.8579794 10.353504 4.7246094 10.933594 C 4.6075194 11.443524 4.5701156 11.881244 4.6035156 12.208984 C 4.6369256 12.536734 4.7407606 12.740819 4.8691406 12.824219 C 4.9882906 12.902019 5.1993912 12.917831 5.4882812 12.832031 C 5.7771813 12.746221 6.1319481 12.562159 6.5175781 12.287109 C 6.7364081 12.131139 7.0451219 12.183514 7.2011719 12.402344 C 7.3573419 12.621174 7.3067006 12.927944 7.0878906 13.083984 C 6.2694006 13.667774 5.633035 13.873007 5.140625 13.873047 C 4.801015 13.873047 4.5331575 13.772711 4.3359375 13.644531 C 3.9498075 13.393531 3.716925 12.96367 3.640625 12.40625 C 3.575335 11.92863 3.6207412 11.361964 3.7695312 10.714844 C 3.9729913 9.8298438 4.3685612 8.8407169 4.8945312 7.8417969 C 4.7094912 7.3793769 4.5562944 6.9261819 4.4277344 6.4824219 C 3.7634744 6.6335519 3.2020538 6.8261656 2.8398438 7.0410156 C 2.4491937 7.2727256 2.2697656 7.5148956 2.2597656 7.6972656 C 2.2530156 7.8260856 2.3243 7.9912212 2.5 8.1757812 C 2.6757 8.3603412 2.9507637 8.5576375 3.3085938 8.7421875 C 3.5476337 8.8653475 3.6426412 9.1635538 3.5195312 9.4023438 C 3.3963212 9.6411837 3.098295 9.7365913 2.859375 9.6132812 C 1.547445 8.9367213 1.2556031 8.1732544 1.2832031 7.6464844 C 1.3120431 7.0954344 1.711485 6.3396112 3.203125 5.8007812 C 3.501825 5.6928712 3.8394731 5.6066437 4.1894531 5.5273438 C 4.1439731 5.2989837 4.1024719 5.0717188 4.0761719 4.8554688 C 3.9960719 4.1959288 4.00994 3.6266831 4.125 3.1582031 C 4.25929 2.6114331 4.5369856 2.2072669 4.9472656 1.9980469 C 5.1087356 1.9157169 5.2857063 1.8675156 5.4726562 1.8535156 L 5.4746094 1.8535156 C 5.5126394 1.8515156 5.5492375 1.8496994 5.5859375 1.8496094 z M 5.8359375 6.2597656 C 5.6858075 6.2737656 5.5365412 6.2863875 5.3945312 6.3046875 C 5.4362512 6.4445775 5.48315 6.5876387 5.53125 6.7304688 C 5.58089 6.6512388 5.6284875 6.5711875 5.6796875 6.4921875 C 5.7310075 6.4130875 5.7839375 6.3372656 5.8359375 6.2597656 z M 8.0410156 7.1972656 C 8.5322756 7.1972656 8.9335938 7.5983337 8.9335938 8.0898438 C 8.9335938 8.5813538 8.5323156 8.984375 8.0410156 8.984375 C 7.5497356 8.984375 7.1484375 8.5813137 7.1484375 8.0898438 C 7.1484375 7.5983738 7.5497756 7.1972656 8.0410156 7.1972656 z "
       transform="translate(123.00021,235)" />
  </g>
</svg>
