<?xml version="1.0" encoding="UTF-8" standalone="no"?>
<svg
   xmlns:dc="http://purl.org/dc/elements/1.1/"
   xmlns:cc="http://creativecommons.org/ns#"
   xmlns:rdf="http://www.w3.org/1999/02/22-rdf-syntax-ns#"
   xmlns:svg="http://www.w3.org/2000/svg"
   xmlns="http://www.w3.org/2000/svg"
   xmlns:sodipodi="http://sodipodi.sourceforge.net/DTD/sodipodi-0.dtd"
   xmlns:inkscape="http://www.inkscape.org/namespaces/inkscape"
   width="16px"
   height="16px"
   viewBox="0 0 16 16"
   version="1.1"
   id="svg5"
   sodipodi:docname="solaar.svg"
   inkscape:version="1.0.2 (e86c870879, 2021-01-15, custom)">
  <metadata
     id="metadata11">
    <rdf:RDF>
      <cc:Work
         rdf:about="">
        <dc:format>image/svg+xml</dc:format>
        <dc:type
           rdf:resource="http://purl.org/dc/dcmitype/StillImage" />
      </cc:Work>
    </rdf:RDF>
  </metadata>
  <defs
     id="defs9" />
  <sodipodi:namedview
     pagecolor="#ffffff"
     bordercolor="#666666"
     borderopacity="1"
     objecttolerance="10"
     gridtolerance="10"
     guidetolerance="10"
     inkscape:pageopacity="0"
     inkscape:pageshadow="2"
     inkscape:window-width="640"
     inkscape:window-height="480"
     id="namedview7"
     showgrid="true"
     inkscape:zoom="38.139572"
     inkscape:cx="3.6800036"
     inkscape:cy="9.9640049"
     inkscape:current-layer="svg5"
     inkscape:document-rotation="0"
     inkscape:object-paths="true"
     inkscape:snap-intersection-paths="true"
     inkscape:snap-object-midpoints="true">
    <inkscape:grid
       type="xygrid"
       id="grid19" />
  </sodipodi:namedview>
  <path
     id="rect849"
     style="fill:#dddddd;fill-opacity:1;stroke:none;stroke-width:0.434055;stroke-linecap:round;stroke-linejoin:round"
     d="M 2 0 C 0.892 0 0 0.892 0 2 L 0 14 C 0 15.108 0.892 16 2 16 L 14 16 C 15.108 16 16 15.108 16 14 L 16 2 C 16 0.892 15.108 0 14 0 L 2 0 z M 6.3652344 3.1699219 L 7.4511719 5.0507812 A 3 3 0 0 1 8 5 A 3 3 0 0 1 8.5488281 5.0507812 L 9.6347656 3.1699219 L 11.365234 4.1699219 L 10.279297 6.0507812 A 3 3 0 0 1 10.826172 7 L 13 7 L 13 9 L 10.828125 9 A 3 3 0 0 1 10.279297 9.9492188 L 11.365234 11.830078 L 9.6347656 12.830078 L 8.5488281 10.949219 A 3 3 0 0 1 8 11 A 3 3 0 0 1 7.4511719 10.949219 L 6.3652344 12.830078 L 4.6347656 11.830078 L 5.7207031 9.9492188 A 3 3 0 0 1 5.1738281 9 L 3 9 L 3 7 L 5.171875 7 A 3 3 0 0 1 5.7207031 6.0507812 L 4.6347656 4.1699219 L 6.3652344 3.1699219 z M 7.9492188 6 A 2 2 0 0 0 6 8 A 2 2 0 0 0 8 10 A 2 2 0 0 0 10 8 A 2 2 0 0 0 8 6 A 2 2 0 0 0 7.9511719 6 A 2 2 0 0 1 7.9492188 6 z " />
</svg>
