<?xml version="1.0" encoding="UTF-8" standalone="no"?>
<svg
   xmlns:dc="http://purl.org/dc/elements/1.1/"
   xmlns:cc="http://creativecommons.org/ns#"
   xmlns:rdf="http://www.w3.org/1999/02/22-rdf-syntax-ns#"
   xmlns:svg="http://www.w3.org/2000/svg"
   xmlns="http://www.w3.org/2000/svg"
   xmlns:sodipodi="http://sodipodi.sourceforge.net/DTD/sodipodi-0.dtd"
   xmlns:inkscape="http://www.inkscape.org/namespaces/inkscape"
   width="16px"
   height="16px"
   viewBox="0 0 16 16"
   version="1.1"
   id="svg5"
   sodipodi:docname="solaar-symbolic.svg"
   inkscape:version="1.0.2 (e86c870879, 2021-01-15, custom)">
  <metadata
     id="metadata11">
    <rdf:RDF>
      <cc:Work
         rdf:about="">
        <dc:format>image/svg+xml</dc:format>
        <dc:type
           rdf:resource="http://purl.org/dc/dcmitype/StillImage" />
      </cc:Work>
    </rdf:RDF>
  </metadata>
  <defs
     id="defs9" />
  <sodipodi:namedview
     pagecolor="#ffffff"
     bordercolor="#666666"
     borderopacity="1"
     objecttolerance="10"
     gridtolerance="10"
     guidetolerance="10"
     inkscape:pageopacity="0"
     inkscape:pageshadow="2"
     inkscape:window-width="640"
     inkscape:window-height="480"
     id="namedview7"
     showgrid="false"
     inkscape:zoom="38.139572"
     inkscape:cx="6.2180589"
     inkscape:cy="8.3451871"
     inkscape:current-layer="svg5"
     inkscape:document-rotation="0">
    <inkscape:grid
       type="xygrid"
       id="grid19" />
  </sodipodi:namedview>
  <path
     id="rect849"
     style="fill:#3a3545;fill-opacity:1;stroke:none;stroke-width:0.379798;stroke-linecap:round;stroke-linejoin:round"
     d="M 2.75 1 C 1.7805 1 1 1.7805 1 2.75 L 1 13.25 C 1 14.2195 1.7805 15 2.75 15 L 13.25 15 C 14.2195 15 15 14.2195 15 13.25 L 15 2.75 C 15 1.7805 14.2195 1 13.25 1 L 2.75 1 z M 6.3652344 3.1699219 L 7.4511719 5.0507812 A 3 3 0 0 1 8 5 A 3 3 0 0 1 8.5488281 5.0507812 L 9.6347656 3.1699219 L 11.365234 4.1699219 L 10.279297 6.0507812 A 3 3 0 0 1 10.826172 7 L 13 7 L 13 9 L 10.828125 9 A 3 3 0 0 1 10.279297 9.9492188 L 11.365234 11.830078 L 9.6347656 12.830078 L 8.5488281 10.949219 A 3 3 0 0 1 8 11 A 3 3 0 0 1 7.4511719 10.949219 L 6.3652344 12.830078 L 4.6347656 11.830078 L 5.7207031 9.9492188 A 3 3 0 0 1 5.1738281 9 L 3 9 L 3 7 L 5.171875 7 A 3 3 0 0 1 5.7207031 6.0507812 L 4.6347656 4.1699219 L 6.3652344 3.1699219 z M 7.9492188 6 A 2 2 0 0 0 6 8 A 2 2 0 0 0 8 10 A 2 2 0 0 0 10 8 A 2 2 0 0 0 8 6 A 2 2 0 0 0 7.9511719 6 A 2 2 0 0 1 7.9492188 6 z " />
</svg>
