<?xml version="1.0" encoding="UTF-8" standalone="no"?>
<svg
   xmlns:dc="http://purl.org/dc/elements/1.1/"
   xmlns:cc="http://creativecommons.org/ns#"
   xmlns:rdf="http://www.w3.org/1999/02/22-rdf-syntax-ns#"
   xmlns:svg="http://www.w3.org/2000/svg"
   xmlns="http://www.w3.org/2000/svg"
   xmlns:sodipodi="http://sodipodi.sourceforge.net/DTD/sodipodi-0.dtd"
   xmlns:inkscape="http://www.inkscape.org/namespaces/inkscape"
   width="16px"
   height="16px"
   viewBox="0 0 16 16"
   version="1.1"
   id="svg5"
   sodipodi:docname="solaar.svg"
   inkscape:version="1.0.2 (e86c870879, 2021-01-15, custom)">
  <metadata
     id="metadata11">
    <rdf:RDF>
      <cc:Work
         rdf:about="">
        <dc:format>image/svg+xml</dc:format>
        <dc:type
           rdf:resource="http://purl.org/dc/dcmitype/StillImage" />
      </cc:Work>
    </rdf:RDF>
  </metadata>
  <defs
     id="defs9" />
  <sodipodi:namedview
     pagecolor="#ffffff"
     bordercolor="#666666"
     borderopacity="1"
     objecttolerance="10"
     gridtolerance="10"
     guidetolerance="10"
     inkscape:pageopacity="0"
     inkscape:pageshadow="2"
     inkscape:window-width="640"
     inkscape:window-height="480"
     id="namedview7"
     showgrid="false"
     inkscape:zoom="38.139572"
     inkscape:cx="6.2180589"
     inkscape:cy="8.3451871"
     inkscape:current-layer="svg5"
     inkscape:document-rotation="0">
    <inkscape:grid
       type="xygrid"
       id="grid19" />
  </sodipodi:namedview>
  <path
     id="path2"
     style="fill:#33d17a;fill-opacity:1;fill-rule:nonzero;stroke:none;stroke-width:1.00479"
     d="M 2.0096154,1 C 1.4495939,1 1,1.445312 1,2 V 13.999999 C 1,14.554688 1.4495939,15 2.0096154,15 H 13.990385 C 14.550406,15 15,14.554688 15,13.999999 V 2 C 15,1.445312 14.550406,1 13.990385,1 Z M 6.1345778,2.9999999 7.50308,5.3457032 C 7.6645316,5.3162095 7.8299309,5.2988285 8,5.2988285 c 0.1700699,0 0.335466,0.017383 0.4969201,0.046875 l 1.368502,-2.3457036 1.5716099,0.9003908 -1.368503,2.3457031 c 0.215466,0.2491236 0.385886,0.5381349 0.498892,0.8535156 H 13.25 V 8.9003908 H 10.567421 C 10.45442,9.2157705 10.283995,9.5047839 10.068529,9.753906 L 11.437032,12.099609 9.8654221,13 8.4969201,10.654298 C 8.335466,10.683794 8.1700699,10.701163 8,10.701163 c -0.1700689,0 -0.3354684,-0.01739 -0.49692,-0.04686 L 6.1345778,13 4.5629693,12.099609 5.9314713,9.753906 C 5.7160071,9.5047839 5.5455842,9.2157705 5.4325795,8.9003908 H 2.75 V 7.0996094 H 5.4325795 C 5.545584,6.7842287 5.7160071,6.4952175 5.9314713,6.2460938 L 4.5629693,3.9003907 Z M 7.9684494,6.1992188 C 6.9765385,6.2161716 6.1819176,7.0173893 6.1819034,8 6.1822306,8.9945066 6.9959327,9.8007806 7.9999999,9.8007806 9.0040679,9.8007806 9.8177556,8.9945066 9.8180969,8 9.8181205,7.0003221 8.9974331,6.1921688 7.9881684,6.1992188 c -0.00621,8.36e-5 -0.013521,-1.253e-4 -0.019719,0 z"
     sodipodi:nodetypes="sssssssssccsccccccccccccscccccccccccccsccc" />
</svg>
