<?xml version="1.0" encoding="UTF-8" standalone="no"?>
<svg
   xmlns:dc="http://purl.org/dc/elements/1.1/"
   xmlns:cc="http://creativecommons.org/ns#"
   xmlns:rdf="http://www.w3.org/1999/02/22-rdf-syntax-ns#"
   xmlns:svg="http://www.w3.org/2000/svg"
   xmlns="http://www.w3.org/2000/svg"
   xmlns:sodipodi="http://sodipodi.sourceforge.net/DTD/sodipodi-0.dtd"
   xmlns:inkscape="http://www.inkscape.org/namespaces/inkscape"
   height="16"
   width="16"
   version="1.1"
   id="svg4"
   sodipodi:docname="xnconvert-symbolic.svg"
   inkscape:version="1.0 (4035a4fb49, 2020-05-01)">
  <metadata
     id="metadata10">
    <rdf:RDF>
      <cc:Work
         rdf:about="">
        <dc:format>image/svg+xml</dc:format>
        <dc:type
           rdf:resource="http://purl.org/dc/dcmitype/StillImage" />
      </cc:Work>
    </rdf:RDF>
  </metadata>
  <defs
     id="defs8" />
  <sodipodi:namedview
     inkscape:document-rotation="0"
     pagecolor="#ffffff"
     bordercolor="#666666"
     borderopacity="1"
     objecttolerance="10"
     gridtolerance="10"
     guidetolerance="10"
     inkscape:pageopacity="0"
     inkscape:pageshadow="2"
     inkscape:window-width="640"
     inkscape:window-height="480"
     id="namedview6"
     showgrid="false"
     inkscape:zoom="32"
     inkscape:cx="1.9442635"
     inkscape:cy="5.8546849"
     inkscape:current-layer="svg4" />
  <path
     id="path2"
     style="fill:#3a3545;fill-opacity:1"
     d="M 5.8945312 1.0546875 C 5.8183937 1.0465894 5.7403201 1.0489582 5.6621094 1.0605469 C 5.4535475 1.09145 5.2386584 1.1932937 5.0273438 1.3710938 C 4.5269198 1.7921938 4.4800051 2.1315125 4.7675781 3.2578125 L 5.0175781 4.2382812 L 4.6191406 4.5742188 L 4.2207031 4.9121094 L 3.4980469 4.203125 C 2.7125739 3.434125 2.330521 3.2312187 1.84375 3.3242188 C 1.467729 3.3961187 0.93443062 3.928425 0.90039062 4.265625 C 0.83701962 4.893225 0.93765371 5.1074094 1.6503906 5.8496094 L 2.3984375 6.6269531 L 1.5292969 7.5 C 0.6649409 8.3702 0.43091812 8.8091781 0.51757812 9.3925781 C 0.54691612 9.5899781 1.2556126 10.386166 2.5722656 11.697266 C 4.3121706 13.429766 4.7054064 13.757525 5.4882812 14.140625 C 5.9858772 14.384125 6.6369899 14.631453 6.9355469 14.689453 C 8.2075109 14.936053 9.2469677 14.776919 10.554688 14.136719 C 11.334772 13.754819 11.736327 13.418206 13.478516 11.691406 L 15.5 9.6894531 L 15.5 9.1035156 C 15.5 8.5353156 15.47296 8.4899094 14.542969 7.5371094 L 13.583984 6.5566406 L 14.300781 5.8144531 C 14.955276 5.1373531 15.017578 5.0290687 15.017578 4.5429688 C 15.017578 3.9612688 14.742811 3.5550156 14.212891 3.3535156 C 13.730213 3.1700156 13.31449 3.356575 12.529297 4.109375 L 11.791016 4.8183594 L 11.382812 4.4882812 C 11.158973 4.3065814 10.963706 4.1525781 10.947266 4.1425781 C 10.930822 4.1338781 11.053328 3.7225686 11.220703 3.2304688 C 11.576261 2.1850687 11.536385 1.8099 11.019531 1.375 C 10.189416 0.6765 9.3297124 1.1432531 8.8320312 2.5644531 L 8.5410156 3.3964844 L 7.9550781 3.3964844 L 7.3710938 3.3964844 L 7.1464844 2.5644531 C 6.8975937 1.6447844 6.4274943 1.1113739 5.8945312 1.0546875 z M 7.9316406 5 A 3.9882548 4 0 0 1 7.9882812 5 A 3.9882548 4 0 0 1 11.890625 8.1757812 L 9.734375 8.1757812 A 1.8735413 1.9279318 0 0 0 8.0292969 7.0449219 A 1.8735413 1.9279318 0 0 0 6.15625 8.9726562 A 1.8735413 1.9279318 0 0 0 8.0292969 10.900391 A 1.8735413 1.9279318 0 0 0 9.7304688 9.7792969 L 11.898438 9.7792969 A 3.9882548 4 0 0 1 7.9882812 13 A 3.9882548 4 0 0 1 4 9 A 3.9882548 4 0 0 1 7.9316406 5 z " />
</svg>
